<svg width="264" height="137" viewBox="0 0 264 137" fill="none" xmlns="http://www.w3.org/2000/svg">
<path d="M13.2364 78.6253H29.8527C35.4795 78.6253 40.7477 77.5301 45.3927 75.4719C47.6963 77.4357 50.6985 78.6253 53.9652 78.6253H56.2688C61.2725 87.4243 70.7703 92.5602 82.5149 92.5602C83.5912 92.5602 84.6486 92.5225 85.6683 92.4281L82.8737 105.608C82.7227 106.325 82.2695 108.365 81.8352 109.46L81.7597 109.592C81.0988 110.763 80.4946 111.216 80.419 111.254C80.0036 111.518 79.4749 111.877 79.0973 112.179C75.0565 115.389 73.2438 120.676 74.49 125.68L74.7922 126.907C75.7174 130.664 78.2287 133.818 81.6841 135.555C83.5535 136.499 85.5739 136.971 87.6131 136.971C89.3503 136.971 91.0874 136.631 92.7302 135.932C97.4696 133.95 103.512 131.061 108.44 126.284C108.761 125.982 109.346 125.396 110.744 123.999C114.671 126.473 119.43 127.87 124.679 127.87C129.626 127.87 134.441 126.548 138.746 124.056C141.125 125.982 144.769 127.87 149.962 127.87C152.492 127.87 155.721 127.436 159.195 125.925C161.631 127.209 164.407 127.87 167.39 127.87C169.769 127.87 172.828 127.436 176.095 125.849C179.399 127.152 183.062 127.87 186.858 127.87C190.955 127.87 194.826 127.039 198.262 125.491C201.775 127.039 205.778 127.87 209.932 127.87C217.409 127.87 224.131 125.151 228.852 120.185C229.475 119.581 230.343 118.731 231.646 117.409C238.406 112.915 242.39 105.513 242.39 97.1486C242.39 96.0535 242.314 95.0149 242.182 94.0142C245.336 92.7113 248.3 91.0497 250.358 89.8034C258.383 85.6116 263.16 77.8133 263.16 68.7876C263.16 57.7227 254.796 48.8292 244.127 48.5649C244.089 48.5649 243.447 48.5649 243.447 48.5649C242.635 48.5649 241.842 48.6215 241.049 48.7348C240.162 48.8481 239.293 49.0369 238.463 49.2824C237.972 49.4146 237.5 49.5845 237.027 49.7922C236.612 49.9432 236.216 50.1321 235.8 50.3209C235.12 50.6419 234.441 51.0195 233.799 51.4349C232.515 52.1713 230.929 53.1344 228.795 54.4183C228.644 54.5127 228.512 54.5882 228.379 54.6827C225.981 56.2499 224.055 58.3836 222.734 60.8194C218.863 60.8571 215.181 61.7068 211.876 63.2741C208.515 61.9523 205.306 61.1592 202.19 60.8949C202.247 60.3851 202.284 59.8564 202.284 59.3465V13.7273C202.284 6.41991 196.374 0.509797 189.067 0.509797H177.813C173.961 0.509797 170.317 2.19035 167.806 5.0982L161.801 12.0657C161.31 12.6322 160.857 13.2553 160.479 13.8973C158.95 13.6141 157.364 13.463 155.721 13.463C153.417 13.463 151.17 13.7462 148.999 14.2938C147.092 9.34667 142.277 5.83457 136.669 5.83457H128.606C125.038 2.2092 120.015 0 114.35 0C107.383 0 101.171 3.41765 97.6773 8.95012C96.922 9.7054 95.9213 10.7062 94.5995 12.0468C93.9009 12.6888 93.2589 13.3875 92.6735 14.1239C90.8042 13.6896 88.8216 13.463 86.7823 13.463C85.9704 13.463 85.1773 13.5007 84.3843 13.5574C81.9485 5.62686 74.5467 0.0189006 65.5588 0.0189006C59.8941 0.0189006 54.7016 2.30362 51.0762 6.13669C46.6578 4.34289 41.6729 3.39882 36.3481 3.39882H19.2409C15.4078 3.39882 11.7447 5.06042 9.23337 7.96827L3.20996 14.9358C1.13293 17.3338 0 20.4116 0 23.5838V65.37C0 72.6773 5.91011 78.5875 13.2175 78.5875L13.2364 78.6253Z" fill="#EDE2CD"/>
<path d="M249.812 68.8065V68.8632C249.812 69.2219 249.793 69.5618 249.755 69.8828C249.736 70.1661 249.698 70.4493 249.642 70.7136C249.623 70.8836 249.585 71.0724 249.547 71.2423C249.434 71.7522 249.302 72.1676 249.188 72.4697C248.981 73.0928 248.716 73.6592 248.377 74.1879C248.244 74.4145 248.093 74.6222 247.942 74.8488C247.904 74.9244 247.848 74.9999 247.772 75.0754C247.659 75.2453 247.527 75.4152 247.376 75.5663C246.96 76.0761 246.469 76.5293 245.941 76.9258C245.695 77.1335 245.431 77.3224 245.167 77.4923C245.129 77.5112 245.11 77.5301 245.072 77.549C240.295 80.6645 235.877 82.6094 233.648 82.9304L233.422 81.9107H233.441C233.441 81.9107 238.86 78.6441 238.879 78.6441H238.898L240.201 77.6245C240.276 77.4923 240.333 77.3601 240.371 77.2279C240.465 76.9825 240.54 76.7181 240.54 76.4538C240.729 74.5467 239.219 73.8292 237.312 73.2249C234.914 72.5074 233.894 70.7136 233.894 69.0331C233.894 67.7114 234.536 66.4841 235.631 65.7665C235.631 65.7665 241.05 62.4999 241.069 62.4999C241.182 62.4244 241.315 62.3488 241.447 62.2922C241.598 62.2166 241.768 62.1411 241.938 62.0845C242.013 62.0467 242.108 62.009 242.202 61.9901C242.41 61.9146 242.636 61.8768 242.863 61.8579C243.052 61.8201 243.241 61.8013 243.448 61.8013H243.656C243.788 61.8013 243.939 61.8012 244.071 61.839C244.279 61.8579 244.468 61.8768 244.657 61.9146C244.846 61.9523 245.053 62.0089 245.242 62.0656C245.431 62.1222 245.62 62.1978 245.809 62.2733C246.224 62.4433 246.62 62.6887 246.998 62.9531C247.187 63.0852 247.357 63.2363 247.527 63.4063C247.64 63.5196 247.772 63.595 247.886 63.7083C248.074 63.8971 248.244 64.1049 248.395 64.2937C248.546 64.5014 248.679 64.6902 248.811 64.8979C248.905 65.0301 248.981 65.1812 249.037 65.3511C249.132 65.5022 249.207 65.6721 249.264 65.842C249.358 66.0497 249.434 66.2763 249.491 66.5029C249.566 66.7484 249.623 66.975 249.661 67.2204C249.755 67.7114 249.812 68.2401 249.812 68.8065Z" fill="#EDE2CD"/>
<path d="M232.08 76.4539L231.74 76.284C228.417 74.7734 225.547 74.037 222.96 74.037C218.277 74.037 214.501 76.3217 212.613 79.8905C212.613 79.8905 208.648 83.8746 208.629 83.8935C206.495 85.8383 205.287 88.6329 205.287 91.824C205.287 92.2394 205.305 92.6359 205.343 93.0136C204.437 90.9365 202.926 89.4826 201.359 88.2175L207.496 83.2704L209.025 76.4539L208.666 76.284C208.364 76.1518 208.062 76.0196 207.76 75.8875C204.815 74.6412 202.228 74.037 199.867 74.037C195.185 74.037 191.408 76.3217 189.539 79.8905C189.52 79.8905 185.574 83.8746 185.555 83.8935C183.421 85.8383 182.213 88.6329 182.213 91.824C182.213 93.3723 182.477 94.6186 182.911 95.6759C183.138 96.2424 183.421 96.7522 183.742 97.2242L183.459 97.0543L183.232 97.4509C182.59 98.4705 180.173 102.19 179.324 101.813C178.946 101.567 179.097 100.019 179.55 97.7718C179.89 95.9592 180.381 93.7122 180.929 91.3142C181.816 87.2734 184.799 74.6601 184.799 74.6601L175.245 75.4909L169.146 82.4207C167.466 89.8602 164.558 97.1299 161.669 102.209C161.404 102.209 161.253 102.096 161.197 102.02C160.649 101.341 161.159 99.0747 161.499 97.5642L164.935 82.4585C165.691 79.0974 165.483 76.7749 164.388 75.3965C163.651 74.4902 162.537 74.037 161.083 74.037C158.043 74.037 154.985 76.2462 152.454 80.2115H152.435C152.152 80.4758 148.886 83.7613 148.735 83.9124C147.469 77.8134 142.862 74.037 136.31 74.037C130.23 74.037 125.283 77.568 122.111 82.4585C122.092 82.4773 119.146 85.404 119.071 85.4985C116.408 88.0098 114.388 91.4274 113.312 95.1661L118.334 71.1669C118.561 70.1284 119.165 67.9192 119.203 67.8248C119.977 65.4079 121.846 65.389 121.846 65.389H129.701L136.669 59.3656V57.3452C138.784 62.5755 143.108 66.1254 148.904 66.1254C151.85 66.1254 154.607 65.1435 156.797 62.7643C156.835 62.7266 156.873 62.6888 156.911 62.6133L156.967 62.5567C157.08 62.4623 157.175 62.3679 157.269 62.2734C157.345 62.2168 157.383 62.1601 157.458 62.0846L157.779 61.7636C157.779 61.7636 157.93 61.6314 158.025 61.537L158.289 61.6503C158.176 63.0098 158.119 63.9917 158.119 65.389H168.24L171.506 61.5937H171.809V65.389H182.118L189.067 59.3656V13.7463H177.813L171.809 20.7138V27.3603H164.142L162.972 29.4563C161.027 27.5869 158.629 26.6995 155.721 26.6995C150.661 26.6995 146.45 29.2486 143.939 33.4215L142.938 34.4411V27.3603H136.669V19.09H125.491L119.467 26.0575V27.3603H114.633L117.22 24.7735C119.448 23.886 120.846 21.8846 120.846 19.3166C120.846 15.8045 118.127 13.2554 114.35 13.2554C111.518 13.2554 109.271 14.7282 108.383 16.9752C108.383 16.994 108.365 16.9941 108.365 17.013C108.251 17.0885 103.72 21.6579 103.72 21.6579C102.587 22.6209 101.907 24.0749 101.907 25.812C101.907 26.3596 101.982 26.8883 102.115 27.3603H95.2226L94.1463 29.4563C92.2392 27.6058 89.7656 26.6995 86.8011 26.6995C81.4575 26.6995 77.209 29.2297 74.7732 33.497C74.7355 33.5159 71.2611 37.0658 71.2045 37.1413V27.3603H65.842C65.842 27.3603 68.3533 24.849 68.4477 24.7735C70.638 23.886 72.0353 21.8846 72.0353 19.3166C72.0353 15.8045 69.3352 13.2554 65.5776 13.2554C62.7453 13.2554 60.4983 14.7282 59.592 16.9752C59.4976 17.0696 54.947 21.6579 54.947 21.6579C54.2861 22.2055 53.7763 22.9231 53.4553 23.7539C49.7544 19.2033 43.8443 16.6353 36.3669 16.6353H19.2597L13.2363 23.6028V65.389H29.8526C36.5747 65.389 42.0882 63.2553 45.8269 59.3467C45.8647 59.29 48.9425 56.2311 49.0746 56.0989C49.0746 56.0989 49.0872 56.0989 49.1124 56.0989C51.0384 54.9094 52.6434 53.4177 53.9651 51.6239V65.4079H64.237L69.5806 59.9887C70.4492 61.216 71.5066 62.2545 72.7528 63.0665C72.7528 63.0665 72.885 63.7651 72.9039 63.8595L72.6962 63.9351C72.6962 64.0861 66.7483 69.9018 66.7483 69.9018C68.7498 75.3587 73.7913 79.3429 82.5149 79.3429C87.8774 79.3429 92.428 77.6435 95.4303 74.358C95.5058 74.3014 98.7724 71.0347 98.8668 70.9214C99.3389 70.6571 99.7921 70.3739 100.226 70.034C103.644 70.3739 103.21 73.3195 102.322 77.6057L95.8079 108.402C95.1282 111.537 94.4862 113.765 93.5421 115.653C93.4665 115.767 93.4099 115.88 93.3344 115.993C90.7475 120.657 87.5187 122.375 87.3298 122.526L87.632 123.754C92.7113 121.62 96.5066 119.505 99.3578 116.711C99.6788 116.427 102.7 113.369 102.7 113.369H102.719C107.685 110.045 110.857 105.702 112.632 98.2439C112.462 99.3768 112.386 100.51 112.386 101.662C112.386 109.686 117.334 114.671 124.698 114.671C128.984 114.671 132.836 112.802 135.8 109.819C135.97 109.686 139.463 106.155 139.482 106.137C143.712 103.474 146.997 98.8481 148.395 93.3534L146.053 103.493C145.015 108.081 144.958 111.839 146.827 113.576C147.564 114.294 148.583 114.671 149.981 114.671C153.021 114.671 155.721 113.236 158.119 110.801C158.119 110.801 160.574 108.289 160.649 108.251C160.668 108.214 161.178 107.704 161.499 107.402C161.631 107.27 161.725 107.175 161.744 107.156C162.594 106.684 163.444 106.061 164.256 105.325L164.067 106.174L163.916 106.816C163.104 110.423 163.104 114.671 167.409 114.671C169.58 114.671 171.582 113.595 173.47 111.612C173.508 111.594 177.417 107.704 177.417 107.704C177.964 107.44 178.493 107.081 178.984 106.665L177.549 111.48C179.758 113.557 183.364 114.671 186.876 114.671C190.823 114.671 194.089 113.331 196.28 111.046L200.302 107.005L200.339 106.986C201.095 106.59 201.756 106.118 202.398 105.57L200.623 111.48C202.813 113.557 206.438 114.671 209.95 114.671C213.897 114.671 217.182 113.331 219.335 111.046C219.392 111.008 223.395 107.005 223.395 107.005C227.001 105.06 229.191 101.548 229.191 97.1676C229.191 92.7869 226.85 90.2001 224.433 88.2364L230.57 83.2893L232.08 76.4728V76.4539ZM36.2348 48.7916H31.0611V33.3083C36.4991 33.8936 39.728 38.1421 39.728 44.5242C39.728 45.9215 39.5958 47.2244 39.2937 48.3951C38.3496 48.6594 37.3299 48.7916 36.2348 48.7916ZM89.3314 60.2341C89.3314 61.537 89.2747 62.2168 89.2558 63.5574C89.1425 63.5574 88.9915 63.5574 88.8971 63.5574C87.8585 63.5574 86.9333 63.3875 86.1025 63.0854C86.6312 62.7077 89.1048 60.253 89.1992 60.1775H89.2181L89.3314 60.2153V60.2341ZM83.6101 42.8437C87.0089 43.1458 89.1236 45.8837 89.1992 49.5657C85.8382 49.4713 83.5912 46.9411 83.5912 43.2402C83.5912 43.108 83.5912 42.9759 83.5912 42.8437H83.6101ZM152.53 42.8437C155.929 43.1647 158.119 46.0726 158.119 49.8679V49.9245C154.815 49.8112 152.511 47.1488 152.511 43.3724C152.511 43.2025 152.511 43.0136 152.511 42.8437H152.53ZM119.467 62.2734H115.729V62.1602L118.429 59.3845H119.467V62.2734ZM133.837 88.9917C133.837 93.2968 132.534 100.585 130.343 105.986C127.738 105.835 127.19 102.757 127.19 100.17C127.19 95.4871 128.606 88.0475 130.834 82.7794C132.855 83.3081 133.837 85.574 133.837 88.9917ZM192.107 105.155C190.766 104.418 189.558 103.267 188.614 101.756C190.086 102.983 191.295 104.041 192.107 105.155ZM214.973 105.249C213.614 104.513 212.443 103.361 211.499 101.85C212.972 103.078 214.142 104.135 214.973 105.249Z" fill="#EDE2CD"/>
<path d="M232.08 76.4539L231.74 76.284C228.417 74.7734 225.547 74.037 222.96 74.037C218.277 74.037 214.501 76.3217 212.613 79.8905C212.613 79.8905 208.648 83.8746 208.629 83.8935C206.495 85.8383 205.287 88.6329 205.287 91.824C205.287 92.2394 205.305 92.6359 205.343 93.0136C204.437 90.9365 202.926 89.4826 201.359 88.2175L207.496 83.2704L209.025 76.4539L208.666 76.284C208.364 76.1518 208.062 76.0196 207.76 75.8875C204.815 74.6412 202.228 74.037 199.867 74.037C195.185 74.037 191.408 76.3217 189.539 79.8905C189.52 79.8905 185.574 83.8746 185.555 83.8935C183.421 85.8383 182.213 88.6329 182.213 91.824C182.213 93.3723 182.477 94.6186 182.911 95.6759C183.138 96.2424 183.421 96.7522 183.742 97.2242L183.459 97.0543L183.232 97.4509C182.59 98.4705 180.173 102.19 179.324 101.813C178.946 101.567 179.097 100.019 179.55 97.7718C179.89 95.9592 180.381 93.7122 180.929 91.3142C181.816 87.2734 184.799 74.6601 184.799 74.6601L175.245 75.4909L169.146 82.4207C167.466 89.8602 164.558 97.1299 161.669 102.209C161.404 102.209 161.253 102.096 161.197 102.02C160.649 101.341 161.159 99.0747 161.499 97.5642L164.935 82.4585C165.691 79.0974 165.483 76.7749 164.388 75.3965C163.651 74.4902 162.537 74.037 161.083 74.037C158.043 74.037 154.985 76.2462 152.454 80.2115H152.435C152.152 80.4758 148.886 83.7613 148.735 83.9124C147.469 77.8134 142.862 74.037 136.31 74.037C130.23 74.037 125.283 77.568 122.111 82.4585C122.092 82.4773 119.146 85.404 119.071 85.4985C116.408 88.0098 114.388 91.4274 113.312 95.1661L118.334 71.1669C118.561 70.1284 119.165 67.9192 119.203 67.8248C119.977 65.4079 121.846 65.389 121.846 65.389H129.701L136.669 59.3656V57.3452C138.784 62.5755 143.108 66.1254 148.904 66.1254C151.85 66.1254 154.607 65.1435 156.797 62.7643C156.835 62.7266 156.873 62.6888 156.911 62.6133L156.967 62.5567C157.08 62.4623 157.175 62.3679 157.269 62.2734C157.345 62.2168 157.383 62.1601 157.458 62.0846L157.779 61.7636C157.779 61.7636 157.93 61.6314 158.025 61.537L158.289 61.6503C158.176 63.0098 158.119 63.9917 158.119 65.389H168.24L171.506 61.5937H171.809V65.389H182.118L189.067 59.3656V13.7463H177.813L171.809 20.7138V27.3603H164.142L162.972 29.4563C161.027 27.5869 158.629 26.6995 155.721 26.6995C150.661 26.6995 146.45 29.2486 143.939 33.4215L142.938 34.4411V27.3603H136.669V19.09H125.491L119.467 26.0575V27.3603H114.633L117.22 24.7735C119.448 23.886 120.846 21.8846 120.846 19.3166C120.846 15.8045 118.127 13.2554 114.35 13.2554C111.518 13.2554 109.271 14.7282 108.383 16.9752C108.383 16.994 108.365 16.9941 108.365 17.013C108.251 17.0885 103.72 21.6579 103.72 21.6579C102.587 22.6209 101.907 24.0749 101.907 25.812C101.907 26.3596 101.982 26.8883 102.115 27.3603H95.2226L94.1463 29.4563C92.2392 27.6058 89.7656 26.6995 86.8011 26.6995C81.4575 26.6995 77.209 29.2297 74.7732 33.497C74.7355 33.5159 71.2611 37.0658 71.2045 37.1413V27.3603H65.842C65.842 27.3603 68.3533 24.849 68.4477 24.7735C70.638 23.886 72.0353 21.8846 72.0353 19.3166C72.0353 15.8045 69.3352 13.2554 65.5776 13.2554C62.7453 13.2554 60.4983 14.7282 59.592 16.9752C59.4976 17.0696 54.947 21.6579 54.947 21.6579C54.2861 22.2055 53.7763 22.9231 53.4553 23.7539C49.7544 19.2033 43.8443 16.6353 36.3669 16.6353H19.2597L13.2363 23.6028V65.389H29.8526C36.5747 65.389 42.0882 63.2553 45.8269 59.3467C45.8647 59.29 48.9425 56.2311 49.0746 56.0989C49.0746 56.0989 49.0872 56.0989 49.1124 56.0989C51.0384 54.9094 52.6434 53.4177 53.9651 51.6239V65.4079H64.237L69.5806 59.9887C70.4492 61.216 71.5066 62.2545 72.7528 63.0665C72.7528 63.0665 72.885 63.7651 72.9039 63.8595L72.6962 63.9351C72.6962 64.0861 66.7483 69.9018 66.7483 69.9018C68.7498 75.3587 73.7913 79.3429 82.5149 79.3429C87.8774 79.3429 92.428 77.6435 95.4303 74.358C95.5058 74.3014 98.7724 71.0347 98.8668 70.9214C99.3389 70.6571 99.7921 70.3739 100.226 70.034C103.644 70.3739 103.21 73.3195 102.322 77.6057L95.8079 108.402C95.1282 111.537 94.4862 113.765 93.5421 115.653C93.4665 115.767 93.4099 115.88 93.3344 115.993C90.7475 120.657 87.5187 122.375 87.3298 122.526L87.632 123.754C92.7113 121.62 96.5066 119.505 99.3578 116.711C99.6788 116.427 102.7 113.369 102.7 113.369H102.719C107.685 110.045 110.857 105.702 112.632 98.2439C112.462 99.3768 112.386 100.51 112.386 101.662C112.386 109.686 117.334 114.671 124.698 114.671C128.984 114.671 132.836 112.802 135.8 109.819C135.97 109.686 139.463 106.155 139.482 106.137C143.712 103.474 146.997 98.8481 148.395 93.3534L146.053 103.493C145.015 108.081 144.958 111.839 146.827 113.576C147.564 114.294 148.583 114.671 149.981 114.671C153.021 114.671 155.721 113.236 158.119 110.801C158.119 110.801 160.574 108.289 160.649 108.251C160.668 108.214 161.178 107.704 161.499 107.402C161.631 107.27 161.725 107.175 161.744 107.156C162.594 106.684 163.444 106.061 164.256 105.325L164.067 106.174L163.916 106.816C163.104 110.423 163.104 114.671 167.409 114.671C169.58 114.671 171.582 113.595 173.47 111.612C173.508 111.594 177.417 107.704 177.417 107.704C177.964 107.44 178.493 107.081 178.984 106.665L177.549 111.48C179.758 113.557 183.364 114.671 186.876 114.671C190.823 114.671 194.089 113.331 196.28 111.046L200.302 107.005L200.339 106.986C201.095 106.59 201.756 106.118 202.398 105.57L200.623 111.48C202.813 113.557 206.438 114.671 209.95 114.671C213.897 114.671 217.182 113.331 219.335 111.046C219.392 111.008 223.395 107.005 223.395 107.005C227.001 105.06 229.191 101.548 229.191 97.1676C229.191 92.7869 226.85 90.2001 224.433 88.2364L230.57 83.2893L232.08 76.4728V76.4539ZM36.2348 48.7916H31.0611V33.3083C36.4991 33.8936 39.728 38.1421 39.728 44.5242C39.728 45.9215 39.5958 47.2244 39.2937 48.3951C38.3496 48.6594 37.3299 48.7916 36.2348 48.7916ZM89.3314 60.2341C89.3314 61.537 89.2747 62.2168 89.2558 63.5574C89.1425 63.5574 88.9915 63.5574 88.8971 63.5574C87.8585 63.5574 86.9333 63.3875 86.1025 63.0854C86.6312 62.7077 89.1048 60.253 89.1992 60.1775H89.2181L89.3314 60.2153V60.2341ZM83.6101 42.8437C87.0089 43.1458 89.1236 45.8837 89.1992 49.5657C85.8382 49.4713 83.5912 46.9411 83.5912 43.2402C83.5912 43.108 83.5912 42.9759 83.5912 42.8437H83.6101ZM152.53 42.8437C155.929 43.1647 158.119 46.0726 158.119 49.8679V49.9245C154.815 49.8112 152.511 47.1488 152.511 43.3724C152.511 43.2025 152.511 43.0136 152.511 42.8437H152.53ZM119.467 62.2734H115.729V62.1602L118.429 59.3845H119.467V62.2734ZM133.837 88.9917C133.837 93.2968 132.534 100.585 130.343 105.986C127.738 105.835 127.19 102.757 127.19 100.17C127.19 95.4871 128.606 88.0475 130.834 82.7794C132.855 83.3081 133.837 85.574 133.837 88.9917ZM192.107 105.155C190.766 104.418 189.558 103.267 188.614 101.756C190.086 102.983 191.295 104.041 192.107 105.155ZM214.973 105.249C213.614 104.513 212.443 103.361 211.499 101.85C212.972 103.078 214.142 104.135 214.973 105.249Z" fill="#EDE2CD"/>
<path d="M50.9629 54.1729V54.2121C50.9629 54.2121 50.9825 54.2121 50.9825 54.1729H50.9629Z" fill="#130A06"/>
<path d="M36.235 26.2837H30.1172V49.7542H36.235C36.235 49.7542 37.0281 49.8108 38.1421 49.622C40.5968 49.2443 44.7131 47.8093 46.167 42.4468C46.5258 41.2006 46.7146 39.7466 46.7146 38.0472C46.7146 30.7965 42.6927 26.2837 36.235 26.2837ZM36.235 48.7912H31.0613V33.3078C36.4994 33.8932 39.7282 38.1417 39.7282 44.5238C39.7282 45.9211 39.596 47.224 39.2939 48.3947C38.3498 48.659 37.3302 48.7912 36.235 48.7912Z" fill="black"/>
<path d="M64.709 28.3053H64.7852C64.7852 28.3053 64.8234 28.2481 64.8234 28.21C64.7852 28.2481 64.7471 28.2671 64.709 28.3053Z" fill="#130A06"/>
<path d="M101.49 67.5986H101.548V67.5601C101.529 67.5601 101.509 67.5793 101.49 67.5986Z" fill="#130A06"/>
<path d="M100.34 68.6935H100.454C100.454 68.6935 100.529 68.5798 100.567 68.5039C100.492 68.5798 100.435 68.6556 100.34 68.6935Z" fill="#130A06"/>
<path d="M101.49 67.5986H101.548V67.5601C101.529 67.5601 101.509 67.5793 101.49 67.5986Z" fill="#130A06"/>
<path d="M100.34 68.6935H100.454C100.454 68.6935 100.529 68.5798 100.567 68.5039C100.492 68.5798 100.435 68.6556 100.34 68.6935Z" fill="#130A06"/>
<path d="M101.49 67.5986H101.548V67.5601C101.529 67.5601 101.509 67.5793 101.49 67.5986Z" fill="#130A06"/>
<path d="M100.34 68.6935H100.454C100.454 68.6935 100.529 68.5798 100.567 68.5039C100.492 68.5798 100.435 68.6556 100.34 68.6935Z" fill="#130A06"/>
<path d="M100.34 68.6935H100.454C100.454 68.6935 100.529 68.5798 100.567 68.5039C100.492 68.5798 100.435 68.6556 100.34 68.6935Z" fill="#130A06"/>
<path d="M101.49 67.5986H101.548V67.5601C101.529 67.5601 101.509 67.5793 101.49 67.5986Z" fill="#130A06"/>
<path d="M89.4252 35.8571C86.5929 35.9138 82.6465 37.481 82.6465 43.2589C82.6465 47.4508 85.29 50.3964 89.1608 50.5286C94.0135 50.5286 96.1661 46.5633 96.1661 43.2589C96.1661 39.407 93.9758 35.7816 89.4252 35.8571ZM83.5906 43.24C83.5906 43.1079 83.5906 42.9757 83.5906 42.8435C86.9894 43.1456 89.1042 45.8836 89.1797 49.5656C85.8187 49.4712 83.5717 46.9409 83.5717 43.24H83.5906Z" fill="black"/>
<path d="M114.539 27.3608C114.539 27.3608 114.539 27.3799 114.539 27.399C114.539 27.399 114.577 27.3799 114.615 27.3608H114.558H114.539Z" fill="#130A06"/>
<path d="M101.491 67.617H101.548V67.5792C101.548 67.5792 101.51 67.5981 101.491 67.617ZM100.34 68.6933H100.453C100.453 68.6933 100.528 68.58 100.566 68.5044C100.491 68.58 100.434 68.6555 100.34 68.6933ZM64.709 28.3043H64.7845C64.7845 28.3043 64.8223 28.2477 64.8223 28.21C64.7845 28.2477 64.7467 28.2666 64.709 28.3043Z" fill="black"/>
<path d="M232.08 76.4539L231.74 76.284C228.417 74.7734 225.547 74.037 222.96 74.037C218.277 74.037 214.501 76.3217 212.613 79.8905C212.613 79.8905 208.648 83.8746 208.629 83.8935C206.495 85.8383 205.287 88.6329 205.287 91.824C205.287 92.2394 205.305 92.6359 205.343 93.0136C204.437 90.9365 202.926 89.4826 201.359 88.2175L207.496 83.2704L209.025 76.4539L208.666 76.284C208.364 76.1518 208.062 76.0196 207.76 75.8875C204.815 74.6412 202.228 74.037 199.867 74.037C195.185 74.037 191.408 76.3217 189.539 79.8905C189.52 79.8905 185.574 83.8746 185.555 83.8935C183.421 85.8383 182.213 88.6329 182.213 91.824C182.213 93.3723 182.477 94.6186 182.911 95.6759C183.138 96.2424 183.421 96.7522 183.742 97.2242L183.459 97.0543L183.232 97.4509C182.59 98.4705 180.173 102.19 179.324 101.813C178.946 101.567 179.097 100.019 179.55 97.7718C179.89 95.9592 180.381 93.7122 180.929 91.3142C181.816 87.2734 184.799 74.6601 184.799 74.6601L175.245 75.4909L169.146 82.4207C167.466 89.8602 164.558 97.1299 161.669 102.209C161.404 102.209 161.253 102.096 161.197 102.02C160.649 101.341 161.159 99.0747 161.499 97.5642L164.935 82.4585C165.691 79.0974 165.483 76.7749 164.388 75.3965C163.651 74.4902 162.537 74.037 161.083 74.037C158.043 74.037 154.985 76.2462 152.454 80.2115H152.435C152.152 80.4758 148.886 83.7613 148.735 83.9124C147.469 77.8134 142.862 74.037 136.31 74.037C130.23 74.037 125.283 77.568 122.111 82.4585C122.092 82.4773 119.146 85.404 119.071 85.4985C116.408 88.0098 114.388 91.4274 113.312 95.1661L118.334 71.1669C118.561 70.1284 119.165 67.9192 119.203 67.8248C119.977 65.4079 121.846 65.389 121.846 65.389H129.701L136.669 59.3656V57.3452C138.784 62.5755 143.108 66.1254 148.904 66.1254C151.85 66.1254 154.607 65.1435 156.797 62.7643C156.835 62.7266 156.873 62.6888 156.911 62.6133L156.967 62.5567C157.08 62.4623 157.175 62.3679 157.269 62.2734C157.345 62.2168 157.383 62.1601 157.458 62.0846L157.779 61.7636C157.779 61.7636 157.93 61.6314 158.025 61.537L158.289 61.6503C158.176 63.0098 158.119 63.9917 158.119 65.389H168.24L171.506 61.5937H171.809V65.389H182.118L189.067 59.3656V13.7463H177.813L171.809 20.7138V27.3603H164.142L162.972 29.4563C161.027 27.5869 158.629 26.6995 155.721 26.6995C150.661 26.6995 146.45 29.2486 143.939 33.4215L142.938 34.4411V27.3603H136.669V19.09H125.491L119.467 26.0575V27.3603H114.633L117.22 24.7735C119.448 23.886 120.846 21.8846 120.846 19.3166C120.846 15.8045 118.127 13.2554 114.35 13.2554C111.518 13.2554 109.271 14.7282 108.383 16.9752C108.383 16.994 108.365 16.9941 108.365 17.013C108.251 17.0885 103.72 21.6579 103.72 21.6579C102.587 22.6209 101.907 24.0749 101.907 25.812C101.907 26.3596 101.982 26.8883 102.115 27.3603H95.2226L94.1463 29.4563C92.2392 27.6058 89.7656 26.6995 86.8011 26.6995C81.4575 26.6995 77.209 29.2297 74.7732 33.497C74.7355 33.5159 71.2611 37.0658 71.2045 37.1413V27.3603H65.842C65.842 27.3603 68.3533 24.849 68.4477 24.7735C70.638 23.886 72.0353 21.8846 72.0353 19.3166C72.0353 15.8045 69.3352 13.2554 65.5776 13.2554C62.7453 13.2554 60.4983 14.7282 59.592 16.9752C59.4976 17.0696 54.947 21.6579 54.947 21.6579C54.2861 22.2055 53.7763 22.9231 53.4553 23.7539C49.7544 19.2033 43.8443 16.6353 36.3669 16.6353H19.2597L13.2363 23.6028V65.389H29.8526C36.5747 65.389 42.0882 63.2553 45.8269 59.3467C45.8647 59.29 48.9425 56.2311 49.0746 56.0989C49.0746 56.0989 49.0872 56.0989 49.1124 56.0989C51.0384 54.9094 52.6434 53.4177 53.9651 51.6239V65.4079H64.237L69.5806 59.9887C70.4492 61.216 71.5066 62.2545 72.7528 63.0665C72.7528 63.0665 72.885 63.7651 72.9039 63.8595L72.6962 63.9351C72.6962 64.0861 66.7483 69.9018 66.7483 69.9018C68.7498 75.3587 73.7913 79.3429 82.5149 79.3429C87.8774 79.3429 92.428 77.6435 95.4303 74.358C95.5058 74.3014 98.7724 71.0347 98.8668 70.9214C99.3389 70.6571 99.7921 70.3739 100.226 70.034C103.644 70.3739 103.21 73.3195 102.322 77.6057L95.8079 108.402C95.1282 111.537 94.4862 113.765 93.5421 115.653C93.4665 115.767 93.4099 115.88 93.3344 115.993C90.7475 120.657 87.5187 122.375 87.3298 122.526L87.632 123.754C92.7113 121.62 96.5066 119.505 99.3578 116.711C99.6788 116.427 102.7 113.369 102.7 113.369H102.719C107.685 110.045 110.857 105.702 112.632 98.2439C112.462 99.3768 112.386 100.51 112.386 101.662C112.386 109.686 117.334 114.671 124.698 114.671C128.984 114.671 132.836 112.802 135.8 109.819C135.97 109.686 139.463 106.155 139.482 106.137C143.712 103.474 146.997 98.8481 148.395 93.3534L146.053 103.493C145.015 108.081 144.958 111.839 146.827 113.576C147.564 114.294 148.583 114.671 149.981 114.671C153.021 114.671 155.721 113.236 158.119 110.801C158.119 110.801 160.574 108.289 160.649 108.251C160.668 108.214 161.178 107.704 161.499 107.402C161.631 107.27 161.725 107.175 161.744 107.156C162.594 106.684 163.444 106.061 164.256 105.325L164.067 106.174L163.916 106.816C163.104 110.423 163.104 114.671 167.409 114.671C169.58 114.671 171.582 113.595 173.47 111.612C173.508 111.594 177.417 107.704 177.417 107.704C177.964 107.44 178.493 107.081 178.984 106.665L177.549 111.48C179.758 113.557 183.364 114.671 186.876 114.671C190.823 114.671 194.089 113.331 196.28 111.046L200.302 107.005L200.339 106.986C201.095 106.59 201.756 106.118 202.398 105.57L200.623 111.48C202.813 113.557 206.438 114.671 209.95 114.671C213.897 114.671 217.182 113.331 219.335 111.046C219.392 111.008 223.395 107.005 223.395 107.005C227.001 105.06 229.191 101.548 229.191 97.1676C229.191 92.7869 226.85 90.2001 224.433 88.2364L230.57 83.2893L232.08 76.4728V76.4539ZM178.757 14.6904H188.123V58.4215H178.757V14.6904ZM65.5776 14.2184C68.8442 14.2184 71.0912 16.3143 71.0912 19.3354C71.0912 20.7705 70.3548 24.377 65.6343 24.377H65.5587C62.1033 24.377 60.5739 22.5643 60.1584 20.3173C59.6486 14.6149 64.6335 14.2184 65.5776 14.2184ZM48.848 56.2878C48.848 56.2878 48.8858 56.25 48.8858 56.2311C48.9047 56.2311 48.9236 56.2311 48.9236 56.2311C48.9236 56.2689 48.8858 56.2878 48.848 56.3067V56.2878ZM50.9628 54.2107V54.173H50.9817C50.9817 54.173 50.9628 54.1919 50.9628 54.2107ZM36.3669 58.4215H20.2038V17.5794H36.3669C44.4107 17.5794 55.1169 22.1111 56.873 34.4223C57.024 35.5552 57.1184 36.7637 57.1184 38.0288C57.1184 54.7395 42.768 58.4215 36.3669 58.4215ZM70.2604 58.4215H60.9515V28.3044H64.709C64.709 28.3044 64.7846 28.2478 64.8223 28.2101C64.8223 28.2478 64.7846 28.2667 64.7846 28.3044H70.2604V58.4215ZM144.278 34.5922C146.563 30.7214 150.434 28.3422 154.003 27.7757C154.04 27.7569 155.268 27.6625 155.721 27.6625C158.459 27.6625 161.537 28.8521 164.161 32.3075L165.086 31.8732V28.3233H174.263V58.4404H165.086V54.9283L164.124 54.4185L163.916 54.7206C161.895 57.6662 159.044 59.1767 155.419 59.1767C147.79 59.1767 142.239 52.5114 142.239 43.3158C142.239 39.9925 142.881 36.9714 144.278 34.5922ZM122.111 28.3044H126.435V20.0341H135.725V28.3044H141.994V36.4427H135.725V58.4215H126.435V36.4427H122.111V28.3044ZM119.033 28.3044V58.4215H109.724V28.3044H119.033ZM119.467 59.3656V62.2545H115.729V62.1413L118.429 59.3656H119.467ZM114.52 27.417V27.3792H114.577C114.577 27.3792 114.52 27.417 114.501 27.417H114.52ZM114.35 14.2184C117.617 14.2184 119.902 16.3143 119.902 19.3354C119.902 20.7327 119.165 24.377 114.426 24.377H114.35C110.895 24.377 108.855 21.6202 108.855 19.3354C108.855 19.3354 109.044 14.2184 114.35 14.2184ZM100.453 68.6934H100.34C100.34 68.6934 100.491 68.5801 100.566 68.5045C100.528 68.5801 100.491 68.6367 100.453 68.6934ZM101.548 67.6171H101.491C101.491 67.6171 101.529 67.5793 101.548 67.5793C101.548 67.5793 101.567 67.5982 101.548 67.6171ZM97.9983 70.2984C95.5436 71.6579 92.5035 72.3754 88.9915 72.3754C85.1206 72.3754 82.5715 71.9411 79.777 70.2795C74.5278 67.1639 73.848 63.6896 73.848 63.6707L82.2505 60.7817C82.3261 60.9328 83.1758 64.5393 88.8971 64.5393C94.6183 64.5393 96.2989 61.9147 96.2989 53.3988L95.1659 53.0779C93.712 56.8732 90.0111 58.0627 86.0647 58.0627C78.6063 58.0627 73.3948 51.8882 73.3948 43.0136C73.3948 39.7659 74.0746 36.8959 75.3019 34.5545C75.3586 34.4034 77.4356 30.7591 80.249 29.3241C81.703 28.4933 83.3457 27.9457 85.1773 27.7569C90.0489 27.417 92.3147 29.3241 95.1659 32.1942L96.1478 31.9487V28.3233H105.343V56.7598C105.343 66.0121 98.1493 70.2417 97.9983 70.2984ZM86.1025 63.1043C86.6312 62.7266 89.1048 60.2719 89.1992 60.1964H89.2181L89.3314 60.2341C89.3314 61.537 89.2747 62.2168 89.2558 63.5574C89.1425 63.5574 88.9915 63.5574 88.8971 63.5574C87.8585 63.5574 86.9333 63.3875 86.1025 63.0854V63.1043ZM111.952 96.941C111.235 100.321 110.253 103.059 109.007 105.344C106.854 109.007 104.815 110.612 102.908 112.085C100.585 113.765 97.7906 115.162 94.4673 116.578L94.3729 116.182C99.7165 111.801 101.227 109.214 102.757 101.983C102.757 101.983 109.554 69.8452 109.667 69.2221C109.988 67.5038 109.913 66.3142 109.894 65.9743C109.837 64.6715 108.837 63.784 108.818 63.7651C108.402 63.3686 107.741 63.2175 107.704 63.1987H122.243C120.449 63.463 119.543 64.747 119.203 65.238C117.862 67.1828 111.952 96.941 111.952 96.941ZM147.904 90.8043C147.526 93.4289 146.714 95.9214 145.506 98.1306C145.506 98.2061 145.468 98.2628 145.43 98.3383C145.411 98.3383 141.918 103.531 139.312 105.117C136.895 106.741 134.139 107.666 131.212 107.666C131.193 107.666 130.268 107.666 129.89 107.609C129.815 107.609 123.905 107.288 120.865 101.794C119.883 99.9244 119.354 97.6774 119.354 95.1284C119.354 86.4048 123.961 79.6639 129.059 76.9259C130.494 76.1707 132.25 75.4343 134.082 75.1511H134.101C134.8 75.0378 135.555 74.9811 136.31 74.9811C142.617 74.9811 146.96 78.7386 147.942 84.7809C148.319 87.6699 147.942 90.7666 147.904 90.8043ZM192.107 105.155C190.766 104.418 189.558 103.267 188.614 101.756C190.086 102.983 191.295 104.041 192.107 105.155ZM151.831 84.0067V84.0257H151.812C151.812 84.0257 151.831 84.0067 151.85 84.0067H151.831ZM149.112 87.5378C149.112 87.3678 149.112 87.1978 149.112 87.0279C149.169 86.9335 149.225 86.858 149.263 86.7824C149.905 86.9146 149.565 88.2175 149.377 89.1993L148.47 93.0891C148.905 91.3142 149.131 89.4449 149.131 87.5378H149.112ZM181.665 102.322C181.25 102.946 180.815 103.493 180.4 104.003C180.154 104.248 179.966 104.494 179.739 104.72C178.304 106.269 177.738 106.42 177.643 106.495C177.549 106.571 177.096 106.835 176.963 106.873C175.056 108.006 173.47 107.685 172.847 107.553C172.299 107.496 171.506 106.986 171.318 106.646C170.676 105.853 170.392 104.569 170.506 102.908V102.87C170.543 102.53 170.562 102.19 170.619 101.813C170.694 101.378 170.77 100.906 170.883 100.415L172.96 90.8988L172.054 90.6155C171.809 91.2575 168.278 100.472 164.293 103.89C164.218 103.946 161.046 106.93 157.741 107.591C156.627 107.817 154.324 107.704 153.342 106.401C152.114 104.796 151.661 101.586 153.021 97.0921C157.25 83.0816 157.175 79.7583 155.627 79.7583C154.418 79.7583 152.794 82.3074 152.19 83.1571L151.963 83.006C152.379 81.2877 155.966 75 161.083 75C162.254 75 163.009 75.3965 163.633 76.0196C165.993 78.3799 162.443 86.7825 160.045 100.396C160.045 100.396 159.781 102.322 161.159 103.078C162.688 103.739 164.69 101.454 164.86 101.246C166.597 99.6223 169.713 93.8255 169.731 93.8066C173.206 86.9712 174.849 80.4947 176.038 76.3972L183.648 75.6231C183.648 75.6231 182.571 80.3248 181.438 85.7062C180.853 88.4063 180.362 90.6722 179.947 92.5793C179.871 92.9191 179.796 93.2402 179.72 93.5612C179.607 94.0521 179.512 94.5242 179.399 94.9773C179.305 95.4305 179.21 95.8459 179.116 96.2424C178.946 97.0354 178.795 97.7152 178.663 98.3194C178.625 98.5838 178.568 98.8104 178.531 99.0181C178.493 99.2447 178.455 99.4523 178.417 99.6412C178.38 99.83 178.361 100 178.323 100.17C178.304 100.359 178.285 100.51 178.266 100.661C178.115 102.001 178.304 102.455 178.87 102.719C179.909 103.285 181.174 101.794 181.344 101.586C181.514 101.416 183.704 98.4516 183.78 98.3761L183.969 98.5083C183.969 98.5083 181.722 102.266 181.665 102.322ZM205.06 98.716C204.89 100.113 204.418 101.397 203.7 102.53C203.493 102.927 203.191 103.323 202.907 103.682C202.7 103.927 202.511 104.154 202.265 104.343C202.114 104.532 201.944 104.683 201.756 104.834C201.642 104.947 201.491 105.079 201.321 105.174C201.208 105.306 201.057 105.4 200.887 105.495C200.774 105.608 200.623 105.702 200.453 105.778C200.339 105.872 200.188 105.967 200.018 106.042C199.886 106.137 199.754 106.193 199.622 106.25C199.471 106.344 199.358 106.401 199.207 106.477C199.037 106.533 198.886 106.609 198.753 106.665C197.998 106.967 197.224 107.213 196.374 107.364C196.374 107.364 196.318 107.402 196.28 107.402H196.204C196.204 107.402 196.091 107.439 196.015 107.439C195.902 107.458 195.808 107.477 195.676 107.496C195.543 107.496 195.43 107.534 195.279 107.534C195.147 107.572 194.996 107.591 194.845 107.591C194.675 107.591 194.524 107.628 194.335 107.628C194.165 107.647 193.976 107.666 193.768 107.647C193.655 107.647 193.523 107.647 193.372 107.647H193.183C192.333 107.647 191.503 107.553 190.71 107.421C189.879 107.288 189.105 107.1 188.387 106.835C187.688 106.628 187.084 106.363 186.499 106.042C185.857 105.74 185.271 105.362 184.781 104.947C184.724 104.89 184.648 104.834 184.592 104.777L186.291 99.0747H186.348C186.48 99.4524 186.612 99.83 186.763 100.189C188.066 103.323 190.313 105.627 192.862 106.495C193.145 106.609 193.372 106.684 193.655 106.722C193.863 106.797 194.089 106.835 194.297 106.854C194.505 106.892 194.675 106.911 194.883 106.911C195.015 106.93 195.147 106.93 195.26 106.93H195.411C195.411 106.93 195.581 106.93 195.657 106.911H195.694C195.694 106.911 195.808 106.911 195.864 106.873V106.911C195.978 106.911 196.091 106.873 196.223 106.854C196.374 106.835 196.488 106.798 196.601 106.76C196.695 106.741 196.809 106.722 196.884 106.703C196.884 106.703 196.997 106.665 197.035 106.628H197.073C197.847 106.363 198.47 105.929 198.999 105.362C199.244 105.117 199.414 104.834 199.603 104.532C199.981 103.814 200.226 102.983 200.226 102.077V102.039C200.226 101.926 200.226 101.794 200.207 101.68C200.207 101.492 200.207 101.322 200.151 101.133C200.151 101.076 200.151 101.02 200.132 100.963C199.792 98.9803 198.451 97.4886 196.431 95.6948C196.374 95.657 195.543 94.9584 195.147 94.6186L193.41 93.2024C192.805 92.7492 192.239 92.2583 191.691 91.7107C191.654 91.6918 191.635 91.654 191.616 91.6351C191.446 91.4652 191.276 91.2764 191.106 91.0687C190.936 90.861 190.766 90.6533 190.634 90.4267C190.483 90.219 190.351 89.9924 190.219 89.7469C190.086 89.5015 189.954 89.2371 189.86 88.9728C189.765 88.7651 189.69 88.5385 189.633 88.293C189.52 87.9531 189.426 87.5944 189.369 87.2167C189.369 87.2167 189.363 87.2042 189.35 87.179C189.237 86.7447 189.18 86.2537 189.18 85.7439C189.18 85.6495 189.18 85.5551 189.199 85.4796V85.2908C189.199 84.8187 189.218 84.3466 189.293 83.9124C189.293 83.8368 189.293 83.7802 189.331 83.7235C189.407 82.9305 189.596 82.1752 189.879 81.4577C189.917 81.3255 189.954 81.1933 190.011 81.0611C190.086 80.9101 190.162 80.7591 190.238 80.6269C190.294 80.4758 190.351 80.3437 190.426 80.2115C190.502 80.0604 190.615 79.9282 190.691 79.7961C190.766 79.6639 190.861 79.5317 190.917 79.3996C190.936 79.3996 190.936 79.3996 190.936 79.3996C191.068 79.2296 191.182 79.0786 191.295 78.9275C191.408 78.7765 191.521 78.6254 191.654 78.4932H191.673C191.805 78.3044 191.975 78.1155 192.182 77.9456C192.39 77.719 192.636 77.5113 192.862 77.3414C193.259 77.0204 193.655 76.7372 194.089 76.4917C195.147 75.8686 196.336 75.4154 197.62 75.1699C197.79 75.1699 197.941 75.1322 198.111 75.1133C198.697 75.0189 199.282 74.9811 199.867 74.9811C200.17 74.9811 200.453 75 200.774 75.0189C201.076 75.0189 201.378 75.0566 201.699 75.1133C201.982 75.151 202.284 75.1888 202.568 75.2455C202.794 75.2832 203.021 75.3399 203.247 75.3965C203.455 75.4343 203.663 75.4909 203.87 75.5476C204.871 75.8119 205.929 76.1707 207.043 76.6239C207.326 76.7372 207.609 76.8693 207.911 77.0015L207.855 77.247L206.741 82.3263H206.703C206.627 82.1752 206.552 82.043 206.476 81.892C206.401 81.7031 206.306 81.4954 206.193 81.3066C206.08 81.1178 206.004 80.9478 205.891 80.759C205.796 80.608 205.683 80.438 205.57 80.287C205.324 79.8716 205.022 79.4562 204.72 79.0785C204.701 79.0408 204.663 79.003 204.626 78.9652C204.626 78.9652 204.607 78.9275 204.588 78.9086C204.21 78.4932 203.852 78.1155 203.455 77.7568H203.436C202.926 77.2847 202.341 76.8882 201.756 76.5672C200.774 76.0197 199.716 75.6986 198.583 75.6986C197.753 75.6986 196.96 75.9063 196.299 76.284C196.015 76.435 195.732 76.6427 195.506 76.8693C195.355 77.0204 195.166 77.1903 195.034 77.398C194.92 77.5491 194.788 77.719 194.694 77.9079C194.599 78.0778 194.543 78.2477 194.467 78.4176C194.429 78.5121 194.392 78.6065 194.354 78.7009C194.335 78.7386 194.335 78.7576 194.316 78.7953C194.316 78.8331 194.316 78.8708 194.316 78.8897C194.278 79.003 194.259 79.0785 194.241 79.1729C194.222 79.2485 194.222 79.324 194.222 79.4184C194.184 79.4562 194.184 79.5128 194.184 79.5695C194.184 79.6828 194.146 79.8149 194.146 79.9471H194.184C194.184 79.9471 194.146 79.966 194.146 79.9849C194.146 80.0038 194.184 80.0226 194.184 80.0226H194.146V80.4947C194.146 80.6835 194.146 80.8535 194.184 81.0234V81.0611C194.184 81.2877 194.222 81.4954 194.278 81.7031C194.335 81.9675 194.429 82.213 194.524 82.4585C194.656 82.8172 194.788 83.1382 194.977 83.4403C195.487 84.3278 196.185 85.0642 196.903 85.7062C197.281 86.0461 197.658 86.3482 197.998 86.6503L198.942 87.4245L199.735 88.0665C199.924 88.2364 200.151 88.4063 200.358 88.5762C200.415 88.6329 200.491 88.7084 200.585 88.7651C200.642 88.8028 200.679 88.8406 200.717 88.8784C203.398 91.1065 205.192 93.2402 205.192 97.1488C205.192 97.6775 205.154 98.2061 205.079 98.716H205.06ZM229.777 82.3452C229.701 82.1941 229.626 82.0619 229.569 81.9109C229.475 81.722 229.38 81.5143 229.248 81.3255C229.154 81.1367 229.059 80.9667 228.965 80.7779C228.87 80.6269 228.757 80.4569 228.663 80.3059C228.342 79.8338 228.021 79.3618 227.643 78.9275C227.284 78.5121 226.907 78.1344 226.529 77.7757C226.019 77.3036 225.434 76.9071 224.867 76.5861C223.885 76.0385 222.809 75.7175 221.676 75.7175C220.845 75.7175 220.052 75.9252 219.41 76.3029C219.108 76.4539 218.825 76.6616 218.617 76.8882C218.429 77.0393 218.296 77.2281 218.145 77.4169C218.032 77.568 217.9 77.7379 217.824 77.9267C217.711 78.0966 217.447 78.7575 217.447 78.7764C217.333 79.1163 217.239 79.8338 217.239 79.966V80.5136C217.239 80.7024 217.314 81.5143 217.371 81.722C217.522 82.4207 218.202 83.9501 219.845 85.6117C220.26 86.0083 220.694 86.3481 221.091 86.6691L223.81 88.8973C226.472 91.1254 228.266 93.259 228.266 97.1676C228.266 99.8489 227.511 101.416 226.793 102.549C226.586 102.946 225.604 104.173 225.377 104.362C225.207 104.551 225.018 104.702 224.867 104.853C224.735 104.966 224.565 105.098 224.433 105.193C224.301 105.325 224.15 105.419 223.98 105.514C223.848 105.627 223.716 105.721 223.546 105.797C223.413 105.891 223.281 105.986 223.111 106.061C222.979 106.156 222.866 106.212 222.696 106.269C222.564 106.363 222.432 106.42 222.299 106.495C222.129 106.552 221.997 106.628 221.846 106.684C221.091 106.986 220.298 107.232 219.467 107.383L219.297 107.421C219.297 107.421 218.882 107.496 218.768 107.515C218.655 107.515 218.089 107.609 217.919 107.609C217.749 107.609 217.617 107.647 217.428 107.647C217.239 107.666 217.069 107.685 216.88 107.666C216.748 107.666 216.616 107.666 216.465 107.666H216.276C215.426 107.666 214.595 107.572 213.802 107.439C212.99 107.307 212.197 107.118 211.48 106.854C210.781 106.646 210.158 106.382 209.592 106.061C208.95 105.759 208.383 105.381 207.873 104.966C207.798 104.909 207.76 104.853 207.685 104.796L209.384 99.0936H209.422C209.573 99.4713 209.686 99.8489 209.856 100.208C211.178 103.342 213.425 105.646 215.955 106.514C216.238 106.628 216.465 106.703 216.748 106.741C216.956 106.816 217.182 106.854 217.39 106.873C217.598 106.911 217.787 106.93 217.956 106.93C218.108 106.949 218.221 106.949 218.353 106.949H218.504C218.504 106.949 218.919 106.93 218.957 106.93C219.089 106.93 219.203 106.892 219.316 106.873C219.467 106.854 219.58 106.816 219.713 106.779C219.788 106.76 219.864 106.741 219.977 106.722C220.034 106.722 220.071 106.684 220.147 106.665H220.185C220.94 106.382 221.601 105.948 222.092 105.381C222.337 105.136 222.507 104.872 222.677 104.588C223.036 103.927 223.281 103.172 223.319 102.341C223.319 101.869 223.3 101.416 223.243 100.982C223.243 100.944 223.243 100.925 223.243 100.887C222.885 98.9425 221.544 97.4886 219.543 95.7137C219.486 95.6759 219.448 95.6382 219.373 95.5815C219.033 95.2794 215.351 92.2772 214.803 91.7296C214.765 91.7107 214.747 91.6729 214.728 91.654C213.595 90.4834 212.688 89.0294 212.424 86.8957C212.405 86.8579 212.405 86.8391 212.405 86.8202C212.367 86.5748 212.33 86.3481 212.311 86.0838C212.311 85.9516 212.292 85.8194 212.292 85.6684V85.3096C212.292 84.8376 212.311 84.3655 212.405 83.9313C212.405 83.8557 212.707 82.1941 212.99 81.4765C212.99 81.4765 213.481 80.3625 213.557 80.2303C213.614 80.0793 214.293 79.0786 214.407 78.9275C214.539 78.7765 214.633 78.6254 214.765 78.4932H214.784C214.935 78.3044 215.086 78.1155 215.294 77.9456C215.483 77.7379 215.728 77.5302 215.955 77.3414C216.352 77.0204 216.767 76.7372 217.201 76.4917C218.24 75.8686 219.448 75.4154 220.732 75.1699C220.902 75.1699 221.072 75.1322 221.223 75.1133C221.808 75.0189 222.394 74.9811 222.998 74.9811C225.358 74.9811 227.983 75.642 231.023 77.0015L229.871 82.3263H229.814L229.777 82.3452ZM211.499 101.85C212.972 103.078 214.142 104.135 214.973 105.249C213.614 104.513 212.443 103.361 211.499 101.85Z" fill="black"/>
<path d="M71.0923 19.3163C71.0923 20.7514 70.3559 24.3578 65.6354 24.3578H65.5598C62.1044 24.3578 60.5749 22.5451 60.1595 20.2982C59.6497 14.5958 64.6346 14.1992 65.5787 14.1992C68.8453 14.1992 71.0923 16.2952 71.0923 19.3163Z" fill="#FFC403"/>
<path d="M119.902 19.3163C119.902 20.7136 119.165 24.3578 114.426 24.3578H114.35C110.895 24.3578 108.855 21.6011 108.855 19.3163C108.855 19.3163 109.044 14.1992 114.35 14.1992C117.617 14.1992 119.902 16.2952 119.902 19.3163Z" fill="#FFC403"/>
<path d="M183.968 98.4892C183.968 98.4892 181.721 102.247 181.664 102.303C181.249 102.927 180.815 103.474 180.399 103.984C180.154 104.229 179.965 104.475 179.739 104.701C178.303 106.25 177.737 106.401 177.643 106.476C177.548 106.552 177.095 106.816 176.963 106.854C175.056 107.987 173.47 107.666 172.847 107.534C172.299 107.477 171.506 106.967 171.317 106.627C170.392 105.476 170.222 103.323 170.883 100.396L172.96 90.8797L172.053 90.5965C171.808 91.2385 168.277 100.453 164.293 103.871C164.217 103.927 161.045 106.911 157.741 107.572C156.627 107.798 154.323 107.685 153.341 106.382C152.114 104.777 151.661 101.567 153.02 97.0731C157.25 83.0625 157.174 79.7393 155.626 79.7393C154.418 79.7393 152.794 82.2884 152.189 83.1381L151.963 82.987C152.378 81.2687 155.966 74.981 161.083 74.981C162.254 74.981 163.009 75.3775 163.632 76.0006C165.992 78.3609 162.442 86.7634 160.044 100.377C160.044 100.377 159.78 102.303 161.158 103.059C162.688 103.72 164.689 101.435 164.859 101.227C166.597 99.6033 169.712 93.8065 169.731 93.7876C173.205 86.9523 174.848 80.4757 176.038 76.3783L183.647 75.6041C183.647 75.6041 182.571 80.3057 181.438 85.6872C178.36 100.151 177.454 102.02 178.87 102.7C179.908 103.266 181.174 101.775 181.343 101.567C181.513 101.397 183.704 98.4326 183.779 98.3571L183.968 98.4892Z" fill="#FFC403"/>
<path d="M147.943 84.8192C146.961 78.7581 142.618 75.0005 136.312 75.0005C135.556 75.0005 134.801 75.0571 134.102 75.1704H134.084C132.252 75.4537 130.496 76.1901 129.061 76.9453C123.963 79.6833 119.355 86.4242 119.355 95.1478C119.355 97.6968 119.884 99.9438 120.866 101.813C123.906 107.308 129.816 107.629 129.892 107.629C130.269 107.704 131.195 107.685 131.213 107.685C134.14 107.685 136.897 106.76 139.314 105.136C141.92 103.55 145.413 98.3766 145.432 98.3577C145.469 98.2822 145.507 98.2255 145.507 98.15C146.716 95.9408 147.528 93.4483 147.905 90.8237C147.943 90.786 148.321 87.6893 147.943 84.8192ZM140.428 87.3494C139.427 94.8645 136.538 105.608 131.893 106.722C131.421 106.836 130.817 106.987 129.967 106.911C128.343 106.685 126.266 105.401 126.247 100.189C126.229 97.508 126.946 93.2784 127.022 92.8819C127.626 89.4453 128.589 85.7633 129.854 82.6855C129.948 82.5156 131.629 78.7392 132.686 77.7762C132.686 77.7762 133.763 76.5299 134.688 76.1712H134.707C135.254 75.8691 135.802 75.718 136.387 75.718C137.256 75.718 138.37 75.9446 139.276 77.002C141.75 79.4756 140.485 86.934 140.428 87.3494Z" fill="#FFC403"/>
<path d="M122.243 63.1987C120.449 63.4631 119.543 64.7471 119.203 65.238C117.862 67.1829 111.952 96.9411 111.952 96.9411C111.235 100.321 110.253 103.059 109.007 105.344C106.854 109.007 104.815 110.612 102.908 112.085C100.585 113.765 97.7907 115.162 94.4675 116.579L94.373 116.182C99.7167 111.801 101.227 109.215 102.757 101.983C102.757 101.983 109.554 69.8452 109.668 69.2221C109.989 67.5039 109.913 66.3143 109.894 65.9744C109.838 64.6715 108.837 63.7841 108.818 63.7652C108.402 63.3686 107.742 63.2176 107.704 63.1987H122.243Z" fill="#FFC403"/>
<path d="M56.8722 34.441C55.1162 22.1298 44.41 17.5981 36.3662 17.5981H20.2031V58.4402H36.3662C42.7673 58.4402 57.1177 54.7582 57.1177 38.0475C57.1177 36.7824 57.0233 35.5739 56.8722 34.441ZM38.1412 49.6222C37.0271 49.8111 36.2529 49.7544 36.2341 49.7544H30.1162V26.2839H36.2341C42.6918 26.2839 46.7136 30.7967 46.7136 38.0475C46.7136 39.7469 46.5248 41.2008 46.1661 42.447C44.7121 47.8096 40.5958 49.2446 38.1412 49.6222Z" fill="#FFC403"/>
<path d="M70.2601 28.3047H60.9512V58.4217H70.2601V28.3047Z" fill="#FFC403"/>
<path d="M96.1664 28.3048V31.9302L95.1656 32.1757C92.3144 29.3056 90.0486 27.3985 85.177 27.7384C83.3454 27.9272 81.7027 28.4747 80.2487 29.3055C77.4353 30.7406 75.3583 34.3849 75.3016 34.5359C74.0743 36.8773 73.3945 39.7474 73.3945 42.9951C73.3945 51.8697 78.606 58.0442 86.0644 58.0442C90.0108 58.0442 93.7117 56.8546 95.1656 53.0593L96.2986 53.3803C96.2986 61.8961 94.6558 64.5208 88.8968 64.5208C83.1377 64.5208 82.3258 60.9142 82.2503 60.7632L73.8477 63.6522C73.8477 63.6522 74.5275 67.1453 79.7767 70.2609C82.5713 71.9225 85.1203 72.3568 88.9912 72.3568C92.5033 72.3568 95.5433 71.6393 97.998 70.2798C98.149 70.2232 105.343 65.9936 105.343 56.7413V28.3048H96.1664ZM89.1611 50.5291C85.2903 50.3969 82.6468 47.4513 82.6468 43.2595C82.6468 37.4815 86.5931 35.9143 89.4255 35.8576C93.9761 35.7821 96.1664 39.4075 96.1664 43.2595C96.1664 46.5638 94.0138 50.5291 89.1611 50.5291Z" fill="#FFC403"/>
<path d="M119.034 28.3047H109.725V58.4217H119.034V28.3047Z" fill="#FFC403"/>
<path d="M141.994 28.304V36.4423H135.725V58.4211H126.435V36.4423H122.111V28.304H126.435V20.0337H135.725V28.304H141.994Z" fill="#FFC403"/>
<path d="M165.086 28.3044V31.8542L164.16 32.2885C161.536 28.8331 158.458 27.6436 155.72 27.6436C155.267 27.6436 154.04 27.738 154.002 27.7568C150.433 28.3233 146.562 30.7024 144.278 34.5733C142.88 36.9524 142.238 39.9735 142.238 43.2968C142.238 52.4924 147.79 59.1578 155.418 59.1578C159.043 59.1578 161.895 57.6472 163.915 54.7016L164.123 54.3995L165.086 54.9094V58.4214H174.262V28.3044H165.086ZM158.062 50.8686C154.21 50.7364 151.566 47.6775 151.566 43.3724C151.566 38.0476 155.324 35.8572 158.722 35.8572C162.858 35.8572 165.086 39.577 165.086 43.3724C165.086 46.7334 164.047 50.8686 158.062 50.8686Z" fill="#FFC403"/>
<path d="M188.123 14.6909H178.758V58.422H188.123V14.6909Z" fill="#FFC403"/>
<path d="M207.911 77.0016L207.855 77.2471L206.741 82.3264H206.703C206.627 82.1754 206.552 82.0432 206.476 81.8921C206.401 81.7033 206.306 81.4956 206.193 81.3068C206.08 81.118 206.004 80.948 205.891 80.7592C205.796 80.6081 205.683 80.4382 205.57 80.2871C205.287 79.8151 204.947 79.3431 204.588 78.9088C204.21 78.4934 203.852 78.1157 203.455 77.7569H203.436C202.926 77.2849 202.341 76.8884 201.756 76.5674C200.774 76.0198 199.716 75.6988 198.583 75.6988C197.753 75.6988 196.96 75.9065 196.299 76.2841C196.015 76.4352 195.732 76.6429 195.506 76.8695C195.355 77.0205 195.166 77.1905 195.034 77.3982C194.92 77.5492 194.788 77.7192 194.694 77.908C194.599 78.078 194.543 78.2479 194.467 78.4178C194.429 78.5122 194.392 78.6066 194.354 78.701C194.335 78.7388 194.335 78.7577 194.316 78.7955C194.316 78.8332 194.297 78.871 194.297 78.8899C194.259 79.0032 194.241 79.0787 194.222 79.1731C194.203 79.2486 194.203 79.3241 194.203 79.4186C194.165 79.4563 194.165 79.513 194.165 79.5696C194.165 79.6829 194.127 79.8151 194.127 79.9473H194.165C194.165 79.9473 194.127 79.9662 194.127 79.9851C194.127 80.0039 194.165 80.0228 194.165 80.0228H194.127V80.4949C194.127 80.6837 194.127 80.8536 194.165 81.0236V81.0613C194.165 81.2879 194.203 81.4956 194.259 81.7033C194.316 81.9676 194.411 82.2131 194.505 82.4586C194.637 82.8174 194.769 83.1383 194.958 83.4405C195.732 84.7811 196.96 85.7819 197.979 86.6505L198.923 87.4246L199.716 88.0666C199.905 88.2366 200.132 88.4065 200.339 88.5764C200.396 88.6331 200.472 88.7086 200.566 88.7652C200.623 88.803 200.66 88.8408 200.698 88.8785C203.38 91.1066 205.173 93.2403 205.173 97.1489C205.173 97.6776 205.136 98.2063 205.06 98.7161C204.89 100.113 204.418 101.397 203.701 102.53C203.493 102.927 203.191 103.323 202.907 103.682C202.7 103.928 202.511 104.154 202.265 104.343C202.114 104.532 201.944 104.683 201.756 104.834C201.642 104.947 201.491 105.079 201.321 105.174C201.208 105.306 201.057 105.4 200.887 105.495C200.774 105.608 200.623 105.702 200.453 105.778C200.34 105.872 200.188 105.967 200.019 106.042C199.886 106.137 199.754 106.193 199.622 106.25C199.471 106.344 199.358 106.401 199.207 106.477C199.037 106.533 198.886 106.609 198.753 106.665C197.998 106.968 197.224 107.213 196.374 107.364C196.374 107.364 196.318 107.402 196.28 107.402H196.204C196.204 107.402 196.091 107.44 196.015 107.44C195.902 107.459 195.808 107.477 195.676 107.496C195.543 107.515 195.43 107.534 195.279 107.534C195.147 107.572 194.996 107.591 194.845 107.591C194.675 107.591 194.524 107.628 194.335 107.628C194.165 107.628 193.976 107.666 193.769 107.628C193.655 107.647 193.523 107.647 193.372 107.647H193.183C192.333 107.628 191.503 107.553 190.71 107.421C189.879 107.289 189.105 107.1 188.387 106.835C187.688 106.628 187.084 106.363 186.499 106.042C185.857 105.74 185.272 105.363 184.781 104.947C184.724 104.891 184.648 104.834 184.592 104.777L186.291 99.0749H186.348C186.48 99.4525 186.612 99.8302 186.763 100.189C188.066 103.323 190.313 105.627 192.862 106.496C193.145 106.609 193.372 106.684 193.655 106.722C193.863 106.798 194.09 106.835 194.297 106.854C194.505 106.892 194.675 106.911 194.883 106.911C195.015 106.911 195.147 106.911 195.26 106.911H195.411C195.506 106.911 195.581 106.911 195.657 106.911H195.694C195.694 106.911 195.808 106.911 195.864 106.873V106.911C195.978 106.911 196.091 106.873 196.223 106.854C196.374 106.835 196.488 106.798 196.601 106.76C196.695 106.76 196.809 106.722 196.884 106.703C196.884 106.703 196.997 106.665 197.035 106.628H197.073C197.847 106.363 198.47 105.929 198.999 105.363C199.244 105.117 199.414 104.834 199.603 104.532C199.981 103.814 200.226 102.983 200.226 102.077V102.039C200.226 101.926 200.226 101.794 200.207 101.681C200.207 101.492 200.207 101.322 200.151 101.133C200.151 101.076 200.151 101.02 200.132 100.963C199.792 98.9805 198.451 97.4888 196.431 95.695C196.374 95.6572 195.543 94.9586 195.147 94.6187L193.41 93.2026C192.806 92.7494 192.239 92.2584 191.691 91.7108C191.654 91.692 191.635 91.6542 191.616 91.6353C190.54 90.5401 189.69 89.1618 189.369 87.2169C189.369 87.2169 189.363 87.2043 189.35 87.1791C189.237 86.7449 189.18 86.2539 189.18 85.7441C189.18 85.6497 189.18 85.5552 189.199 85.4797V85.2909C189.199 84.8189 189.218 84.3468 189.293 83.9125C189.293 83.837 189.293 83.7803 189.331 83.7237C189.407 82.9306 189.596 82.1754 189.879 81.4579C189.917 81.3257 189.954 81.1935 190.011 81.0613C190.087 80.9102 190.162 80.7592 190.238 80.627C190.294 80.476 190.351 80.3438 190.426 80.2116C190.502 80.0606 190.615 79.9284 190.691 79.7962C190.766 79.6641 190.861 79.5319 190.917 79.3997C190.936 79.3997 190.936 79.3808 190.936 79.3808C191.068 79.2109 191.182 79.0598 191.295 78.9088C191.408 78.7577 191.522 78.6066 191.654 78.4745H191.673C191.805 78.2856 191.975 78.0968 192.182 77.9269C192.39 77.7003 192.636 77.4926 192.862 77.3227C193.259 77.0017 193.655 76.7184 194.09 76.473C195.147 75.8498 196.336 75.3967 197.62 75.1512C197.79 75.1324 197.941 75.1134 198.111 75.0945C198.697 75.0001 199.282 74.9624 199.867 74.9624C202.228 74.9624 204.871 75.6232 207.911 76.9827V77.0016Z" fill="#FFC403"/>
<path d="M230.985 77.0016L229.834 82.3264H229.777C229.701 82.1754 229.626 82.0432 229.569 81.8921C229.475 81.7033 229.38 81.4956 229.248 81.3068C229.154 81.118 229.059 80.948 228.965 80.7592C228.871 80.6081 228.757 80.4382 228.663 80.2871C228.342 79.8151 228.021 79.3431 227.643 78.9088C227.285 78.4934 226.907 78.1157 226.529 77.7569H226.51C226.001 77.2849 225.415 76.8884 224.849 76.5674C223.867 76.0198 222.791 75.6988 221.658 75.6988C220.827 75.6988 220.034 75.9065 219.392 76.2841C219.09 76.4352 218.806 76.6429 218.599 76.8695C218.41 77.0205 218.278 77.2093 218.127 77.3982C218.013 77.5492 217.881 77.7192 217.806 77.908C217.692 78.078 217.428 78.7388 217.428 78.7577C217.315 79.0976 217.22 79.8151 217.22 79.9473V80.4949C217.22 80.6837 217.296 81.4956 217.353 81.7033C217.504 82.4019 218.183 83.9314 219.826 85.5931C220.242 85.9896 220.676 86.3295 221.072 86.6505L223.791 88.8785C226.454 91.1066 228.248 93.2403 228.248 97.1489C228.248 99.8302 227.492 101.397 226.775 102.53C226.567 102.927 225.585 104.154 225.359 104.343C225.189 104.532 225 104.683 224.849 104.834C224.717 104.947 224.547 105.079 224.414 105.174C224.282 105.306 224.131 105.4 223.961 105.495C223.829 105.608 223.697 105.702 223.527 105.778C223.395 105.872 223.263 105.967 223.093 106.042C222.961 106.137 222.847 106.193 222.677 106.25C222.545 106.344 222.413 106.401 222.281 106.477C222.111 106.533 221.979 106.609 221.828 106.665C221.072 106.968 220.279 107.213 219.448 107.364L219.279 107.402C219.279 107.402 218.863 107.477 218.75 107.496C218.637 107.515 218.07 107.591 217.9 107.591C217.73 107.591 217.598 107.628 217.409 107.628C217.22 107.628 217.05 107.666 216.862 107.628C216.729 107.647 216.597 107.647 216.446 107.647H216.257C215.408 107.628 214.577 107.553 213.784 107.421C212.972 107.289 212.179 107.1 211.461 106.835C210.763 106.628 210.14 106.363 209.573 106.042C208.931 105.74 208.365 105.363 207.855 104.947C207.779 104.891 207.742 104.834 207.666 104.777L209.365 99.0749H209.403C209.554 99.4525 209.668 99.8302 209.837 100.189C211.159 103.323 213.406 105.627 215.936 106.496C216.22 106.609 216.446 106.684 216.729 106.722C216.937 106.798 217.164 106.835 217.371 106.854C217.579 106.892 217.768 106.911 217.938 106.911C218.089 106.911 218.202 106.911 218.334 106.911H218.485C218.58 106.911 218.901 106.911 218.939 106.911C219.071 106.911 219.184 106.873 219.297 106.854C219.448 106.835 219.562 106.798 219.694 106.76C219.769 106.76 219.845 106.722 219.958 106.703C220.015 106.684 220.053 106.666 220.128 106.647H220.166C220.921 106.363 221.582 105.929 222.073 105.363C222.319 105.117 222.488 104.853 222.658 104.57C223.017 103.909 223.263 103.153 223.3 102.323C223.3 101.851 223.282 101.397 223.225 100.963C223.225 100.925 223.225 100.906 223.206 100.869C222.847 98.9238 221.507 97.4699 219.505 95.695C219.448 95.6572 219.411 95.6195 219.335 95.5628C218.995 95.2607 215.313 92.2584 214.766 91.7108C214.728 91.692 214.709 91.6542 214.69 91.6353C213.557 90.4646 212.651 89.0107 212.387 86.877C212.368 86.8393 212.368 86.8204 212.368 86.8015C212.33 86.556 212.292 86.3295 212.273 86.0651C212.273 85.9329 212.254 85.8008 212.254 85.6497V85.2909C212.254 84.8189 212.273 84.3468 212.368 83.9125C212.368 83.837 212.67 82.1754 212.953 81.4579C212.953 81.4579 213.444 80.3438 213.519 80.2116C213.576 80.0606 214.256 79.0598 214.369 78.9088C214.501 78.7577 214.596 78.6066 214.728 78.4745H214.747C214.898 78.2856 215.049 78.0968 215.257 77.9269C215.445 77.7192 215.691 77.5115 215.918 77.3227C216.314 77.0017 216.729 76.7184 217.164 76.473C218.202 75.8498 219.411 75.3967 220.695 75.1512C220.865 75.1324 221.035 75.1134 221.186 75.0945C221.771 75.0001 222.356 74.9624 222.961 74.9624C225.321 74.9624 227.945 75.6232 230.985 76.9827V77.0016Z" fill="#FFC403"/>
<path d="M158.723 35.8574C155.324 35.8574 151.566 38.0478 151.566 43.3725C151.566 47.6777 154.21 50.7366 158.062 50.8687C164.047 50.8687 165.086 46.7336 165.086 43.3725C165.086 39.5772 162.858 35.8574 158.723 35.8574ZM158.119 49.9246C154.814 49.8113 152.511 47.149 152.511 43.3725C152.511 43.2026 152.511 43.0138 152.511 42.8438C155.909 43.1648 158.1 46.0727 158.1 49.868V49.9246H158.119Z" fill="black"/>
<path d="M139.273 77.0017C138.367 75.9443 137.253 75.7178 136.384 75.7178C135.799 75.7178 135.251 75.8688 134.704 76.1709H134.685C133.76 76.5297 132.683 77.7759 132.683 77.7759C131.626 78.7389 129.945 82.5153 129.851 82.6853C128.586 85.7631 127.623 89.4451 127.019 92.8816C126.943 93.2782 126.226 97.5077 126.245 100.189C126.263 105.4 128.34 106.684 129.964 106.911C130.814 106.987 131.418 106.836 131.89 106.722C136.535 105.608 139.424 94.8643 140.425 87.3492C140.482 86.9338 141.747 79.4753 139.273 77.0017ZM130.342 105.986C127.736 105.835 127.189 102.757 127.189 100.17C127.189 95.4874 128.605 88.0478 130.833 82.7797C132.853 83.3084 133.835 85.5742 133.835 88.9919C133.835 93.297 132.532 100.586 130.342 105.986Z" fill="black"/>
<path d="M249.81 68.8075V68.8641C249.81 69.2229 249.791 69.5628 249.753 69.8838C249.734 70.167 249.696 70.4503 249.64 70.7146C249.621 70.8846 249.583 71.0734 249.545 71.2433C249.432 71.7531 249.3 72.1685 249.187 72.4706C249.149 72.5651 249.111 72.6594 249.073 72.735C248.884 73.2448 248.639 73.7358 248.375 74.1889C248.242 74.4155 248.091 74.6232 247.94 74.8498C247.903 74.9253 247.846 75.0009 247.77 75.0764C247.657 75.2463 247.525 75.4162 247.374 75.5673C246.958 76.0771 246.467 76.5303 245.939 76.9268C245.693 77.1345 245.429 77.3234 245.165 77.4933C245.127 77.5122 245.108 77.5311 245.07 77.5499C240.293 80.6655 235.875 82.6104 233.647 82.9314L233.42 81.9117H233.439C233.439 81.9117 238.858 78.6451 238.877 78.6451H238.896C239.198 78.5696 239.462 78.4752 239.783 78.3619C239.953 78.1353 240.104 77.8898 240.199 77.6255C240.274 77.4933 240.331 77.3611 240.369 77.2289C240.463 76.9835 240.538 76.7191 240.538 76.4547C240.727 74.5477 239.217 73.8301 237.31 73.2259C234.912 72.5084 233.892 70.7146 233.892 69.0341C233.892 67.7123 234.534 66.485 235.629 65.7675C235.629 65.7675 241.048 62.5009 241.067 62.5009C241.18 62.4253 241.313 62.3498 241.445 62.2931C241.596 62.2176 241.766 62.1421 241.936 62.0855C242.011 62.0477 242.106 62.01 242.2 61.9911C242.408 61.9156 242.634 61.8778 242.861 61.8589C243.05 61.8211 243.239 61.8022 243.446 61.8022H243.522C243.711 61.8022 243.881 61.8022 244.069 61.84C244.277 61.8589 244.466 61.8778 244.655 61.9155C244.844 61.9533 245.051 62.0099 245.24 62.0666C245.429 62.1232 245.618 62.1988 245.807 62.2743C246.562 62.5953 247.261 63.0673 247.884 63.7093C248.072 63.8981 248.242 64.1059 248.393 64.2947C248.545 64.5024 248.677 64.6912 248.809 64.8989C248.903 65.0311 248.979 65.1822 249.035 65.3521C249.13 65.5032 249.205 65.6731 249.262 65.843C249.356 66.0507 249.432 66.2773 249.489 66.5039C249.564 66.7493 249.621 66.9759 249.659 67.2214C249.753 67.7123 249.81 68.241 249.81 68.8075Z" fill="#150A05" stroke="#150A05" stroke-width="2.1363" stroke-miterlimit="10"/>
<path d="M249.657 67.2019C249.62 66.9564 249.563 66.7298 249.487 66.4843C249.431 66.2578 249.355 66.0312 249.261 65.8235C249.204 65.6536 249.129 65.4836 249.034 65.3326C248.978 65.1626 248.902 65.0116 248.808 64.8794C248.675 64.6717 248.543 64.4829 248.392 64.2752C248.241 64.0863 248.071 63.8787 247.882 63.6898C247.769 63.5765 247.637 63.4821 247.524 63.3877C247.354 63.2367 247.184 63.0667 246.995 62.9346C246.617 62.6702 246.221 62.4247 245.805 62.2548C245.617 62.1792 245.428 62.1037 245.239 62.0471C245.05 61.9904 244.842 61.9338 244.654 61.896C244.465 61.8582 244.276 61.8393 244.068 61.8205C243.936 61.8205 243.785 61.7827 243.653 61.7827H243.445C243.237 61.7827 243.049 61.7827 242.86 61.8394C242.633 61.8582 242.407 61.896 242.199 61.9715C242.104 61.9904 242.01 62.0282 241.935 62.0659C241.765 62.1226 241.595 62.1981 241.444 62.2737C240.141 62.9723 239.385 64.294 239.385 65.7291C239.385 67.4096 240.405 69.2034 242.784 69.9209C243.577 70.1664 244.276 70.4307 244.842 70.8084C245.654 71.3182 246.126 72.0357 246.032 73.1686L240.197 77.606L238.895 78.6067L239.14 79.6264C241.33 79.3242 243.37 78.6067 245.069 77.5304C245.107 77.5304 245.126 77.4927 245.163 77.4738C245.428 77.3038 245.692 77.115 245.938 76.9073C246.466 76.5108 246.957 76.0576 247.373 75.5478C247.524 75.3968 247.656 75.2268 247.769 75.0569C247.845 74.9813 247.901 74.9058 247.939 74.8303C248.09 74.6037 248.241 74.396 248.373 74.1694C248.487 73.9617 248.619 73.754 248.732 73.5274C248.732 73.5274 248.751 73.4896 248.751 73.4708C248.864 73.2253 248.978 72.9798 249.072 72.7155C249.129 72.6211 249.148 72.5455 249.185 72.4511C249.299 72.149 249.431 71.7336 249.544 71.2238C249.582 71.0538 249.62 70.865 249.638 70.6951C249.695 70.4307 249.733 70.1475 249.752 69.8643C249.79 69.5433 249.808 69.2034 249.808 68.8446V68.788C249.808 68.2215 249.752 67.6928 249.657 67.2019Z" fill="#FFC403"/>
<path d="M243.807 61.8013H243.675C241.145 61.8013 239.54 63.6517 239.54 65.7476C239.54 67.4281 240.559 69.2219 242.939 69.9395C243.732 70.1849 244.43 70.4493 244.997 70.8269C245.809 71.3367 246.281 72.0543 246.186 73.1872L239.049 78.6253L239.294 79.6449C245.223 78.814 249.963 75.1509 249.963 68.8065C249.963 64.3315 246.809 61.8768 243.807 61.8013Z" fill="#ED91FA"/>
<path d="M71.0923 19.3163C71.0923 20.7514 70.3559 24.3578 65.6354 24.3578H65.5598C62.1044 24.3578 60.5749 22.5451 60.1595 20.2982C59.6497 14.5958 64.6346 14.1992 65.5787 14.1992C68.8453 14.1992 71.0923 16.2952 71.0923 19.3163Z" fill="#ED91FA"/>
<path d="M119.903 19.3163C119.903 20.7136 119.167 24.3578 114.428 24.3578H114.352C110.897 24.3578 108.857 21.6011 108.857 19.3163C108.857 19.3163 109.046 14.1992 114.352 14.1992C117.619 14.1992 119.903 16.2952 119.903 19.3163Z" fill="#ED91FA"/>
<path d="M183.968 98.4892C183.968 98.4892 181.721 102.247 181.664 102.303C181.249 102.927 180.815 103.474 180.399 103.984C180.154 104.229 179.965 104.475 179.739 104.701C178.303 106.25 177.737 106.401 177.643 106.476C177.548 106.552 177.095 106.816 176.963 106.854C175.056 107.987 173.47 107.666 172.847 107.534C172.299 107.477 171.506 106.967 171.317 106.627C170.392 105.476 170.222 103.323 170.883 100.396L172.96 90.8797L172.053 90.5965C171.808 91.2385 168.277 100.453 164.293 103.871C164.217 103.927 161.045 106.911 157.741 107.572C156.627 107.798 154.323 107.685 153.341 106.382C152.114 104.777 151.661 101.567 153.02 97.0731C157.25 83.0625 157.174 79.7393 155.626 79.7393C154.418 79.7393 152.794 82.2884 152.189 83.1381L151.963 82.987C152.378 81.2687 155.966 74.981 161.083 74.981C162.254 74.981 163.009 75.3775 163.632 76.0006C165.992 78.3609 162.442 86.7634 160.044 100.377C160.044 100.377 159.78 102.303 161.158 103.059C162.688 103.72 164.689 101.435 164.859 101.227C166.597 99.6033 169.712 93.8065 169.731 93.7876C173.205 86.9523 174.848 80.4757 176.038 76.3783L183.647 75.6041C183.647 75.6041 182.571 80.3057 181.438 85.6872C178.36 100.151 177.454 102.02 178.87 102.7C179.908 103.266 181.174 101.775 181.343 101.567C181.513 101.397 183.704 98.4326 183.779 98.3571L183.968 98.4892Z" fill="#ED91FA"/>
<path d="M147.941 84.7997C146.959 78.7385 142.616 74.981 136.31 74.981C135.554 74.981 134.799 75.0377 134.1 75.1509H134.082C132.25 75.4342 130.494 76.1705 129.059 76.9258C123.961 79.6637 119.354 86.4047 119.354 95.1282C119.354 97.6773 119.882 99.9243 120.864 101.794C123.904 107.288 129.814 107.609 129.89 107.609C130.267 107.685 131.193 107.666 131.212 107.666C134.138 107.666 136.895 106.741 139.312 105.117C141.918 103.531 145.411 98.3571 145.43 98.3382C145.468 98.2627 145.505 98.206 145.505 98.1305C146.714 95.9213 147.526 93.4288 147.903 90.8042C147.941 90.7664 148.319 87.6698 147.941 84.7997ZM140.426 87.3299C139.425 94.845 136.536 105.589 131.891 106.703C131.419 106.816 130.815 106.967 129.965 106.892C128.341 106.665 126.264 105.381 126.245 100.17C126.227 97.4885 126.944 93.2589 127.02 92.8623C127.624 89.4258 128.587 85.7438 129.852 82.666C129.946 82.4961 131.627 78.7196 132.684 77.7566C132.684 77.7566 133.761 76.5105 134.686 76.1517H134.705C135.252 75.8496 135.8 75.6985 136.385 75.6985C137.254 75.6985 138.368 75.9251 139.274 76.9825C141.748 79.456 140.483 86.9145 140.426 87.3299Z" fill="#ED91FA"/>
<path d="M122.243 63.1987C120.449 63.4631 119.543 64.7471 119.203 65.238C117.862 67.1829 111.952 96.9411 111.952 96.9411C111.235 100.321 110.253 103.059 109.007 105.344C106.854 109.007 104.815 110.612 102.908 112.085C100.585 113.765 97.7907 115.162 94.4675 116.579L94.373 116.182C99.7167 111.801 101.227 109.215 102.757 101.983C102.757 101.983 109.554 69.8452 109.668 69.2221C109.989 67.5039 109.913 66.3143 109.894 65.9744C109.838 64.6715 108.837 63.7841 108.818 63.7652C108.402 63.3686 107.742 63.2176 107.704 63.1987H122.243Z" fill="#ED91FA"/>
<path d="M36.3682 17.5791H20.2051V58.4212H36.3682C42.7692 58.4212 57.1197 54.7392 57.1197 38.0285C57.1197 22.9794 45.1484 17.5791 36.3682 17.5791ZM36.236 49.7354H30.1182V26.2649H36.236C42.6937 26.2649 46.7156 30.7777 46.7156 38.0285C46.7156 50.3963 36.2927 49.7354 36.236 49.7354Z" fill="#ED91FA"/>
<path d="M70.262 28.3047H60.9531V58.4217H70.262V28.3047Z" fill="#ED91FA"/>
<path d="M96.1683 28.3043V31.9297L95.1676 32.1752C92.3164 29.3051 90.0505 27.398 85.1789 27.7379C83.3474 27.9267 81.7046 28.4742 80.2507 29.3051C77.4373 30.7401 75.3602 34.3844 75.3036 34.5354C74.0762 36.8768 73.3965 39.7469 73.3965 42.9946C73.3965 51.8692 78.608 58.0437 86.0664 58.0437C90.0128 58.0437 93.7137 56.8541 95.1676 53.0588L96.3005 53.3798C96.3005 61.8956 94.6578 64.5203 88.8987 64.5203C83.1397 64.5203 82.3277 60.9138 82.2522 60.7627L73.8497 63.6517C73.8497 63.6517 74.5294 67.1449 79.7786 70.2604C82.5732 71.922 85.1223 72.3564 88.9931 72.3564C92.5052 72.3564 95.5452 71.6388 97.9999 70.2793C98.151 70.2227 105.345 65.9931 105.345 56.7409V28.3043H96.1683ZM89.1631 50.5097C85.2922 50.3775 82.6487 47.4319 82.6487 43.2401C82.6487 37.4621 86.5951 35.895 89.4274 35.8383C93.978 35.7628 96.1683 39.3881 96.1683 43.2401C96.1683 46.5445 94.0158 50.5097 89.1631 50.5097Z" fill="#ED91FA"/>
<path d="M119.034 28.3047H109.725V58.4217H119.034V28.3047Z" fill="#ED91FA"/>
<path d="M141.994 28.3035V36.4418H135.725V58.4206H126.435V36.4418H122.111V28.3035H126.435V20.0332H135.725V28.3035H141.994Z" fill="#ED91FA"/>
<path d="M165.086 28.3044V31.8542L164.16 32.2885C161.536 28.8331 158.458 27.6436 155.72 27.6436C155.267 27.6436 154.04 27.738 154.002 27.7568C150.433 28.3233 146.562 30.7024 144.278 34.5733C142.88 36.9524 142.238 39.9735 142.238 43.2968C142.238 52.4924 147.79 59.1578 155.418 59.1578C159.043 59.1578 161.895 57.6472 163.915 54.7016L164.123 54.3995L165.086 54.9094V58.4214H174.262V28.3044H165.086ZM158.062 50.8686C154.21 50.7364 151.566 47.6775 151.566 43.3724C151.566 38.0476 155.324 35.8572 158.722 35.8572C162.858 35.8572 165.086 39.577 165.086 43.3724C165.086 46.7334 164.047 50.8686 158.062 50.8686Z" fill="#ED91FA"/>
<path d="M188.123 14.6904H178.758V58.4215H188.123V14.6904Z" fill="#ED91FA"/>
<path d="M207.911 77.0016L207.855 77.2471L206.741 82.3264H206.703C206.627 82.1754 206.552 82.0432 206.476 81.8921C206.401 81.7033 206.306 81.4956 206.193 81.3068C206.08 81.118 206.004 80.948 205.891 80.7592C205.796 80.6081 205.683 80.4382 205.57 80.2871C205.287 79.8151 204.947 79.3431 204.588 78.9088C204.21 78.4934 203.852 78.1157 203.455 77.7569H203.436C202.926 77.2849 202.341 76.8884 201.756 76.5674C200.774 76.0198 199.716 75.6988 198.583 75.6988C197.753 75.6988 196.96 75.9065 196.299 76.2841C196.015 76.4352 195.732 76.6429 195.506 76.8695C195.355 77.0205 195.166 77.1905 195.034 77.3982C194.92 77.5492 194.788 77.7192 194.694 77.908C194.599 78.078 194.543 78.2479 194.467 78.4178C194.429 78.5122 194.392 78.6066 194.354 78.701C194.335 78.7388 194.335 78.7577 194.316 78.7955C194.316 78.8332 194.297 78.871 194.297 78.8899C194.259 79.0032 194.241 79.0787 194.222 79.1731C194.203 79.2486 194.203 79.3241 194.203 79.4186C194.165 79.4563 194.165 79.513 194.165 79.5696C194.165 79.6829 194.127 79.8151 194.127 79.9473H194.165C194.165 79.9473 194.127 79.9662 194.127 79.9851C194.127 80.0039 194.165 80.0228 194.165 80.0228H194.127V80.4949C194.127 80.6837 194.127 80.8536 194.165 81.0236V81.0613C194.165 81.2879 194.203 81.4956 194.259 81.7033C194.316 81.9676 194.411 82.2131 194.505 82.4586C194.637 82.8174 194.769 83.1383 194.958 83.4405C195.732 84.7811 196.96 85.7819 197.979 86.6505L198.923 87.4246L199.716 88.0666C199.905 88.2366 200.132 88.4065 200.339 88.5764C200.396 88.6331 200.472 88.7086 200.566 88.7652C200.623 88.803 200.66 88.8408 200.698 88.8785C203.38 91.1066 205.173 93.2403 205.173 97.1489C205.173 97.6776 205.136 98.2063 205.06 98.7161C204.89 100.113 204.418 101.397 203.701 102.53C203.493 102.927 203.191 103.323 202.907 103.682C202.7 103.928 202.511 104.154 202.265 104.343C202.114 104.532 201.944 104.683 201.756 104.834C201.642 104.947 201.491 105.079 201.321 105.174C201.208 105.306 201.057 105.4 200.887 105.495C200.774 105.608 200.623 105.702 200.453 105.778C200.34 105.872 200.188 105.967 200.019 106.042C199.886 106.137 199.754 106.193 199.622 106.25C199.471 106.344 199.358 106.401 199.207 106.477C199.037 106.533 198.886 106.609 198.753 106.665C197.998 106.968 197.224 107.213 196.374 107.364C196.374 107.364 196.318 107.402 196.28 107.402H196.204C196.204 107.402 196.091 107.44 196.015 107.44C195.902 107.459 195.808 107.477 195.676 107.496C195.543 107.515 195.43 107.534 195.279 107.534C195.147 107.572 194.996 107.591 194.845 107.591C194.675 107.591 194.524 107.628 194.335 107.628C194.165 107.628 193.976 107.666 193.769 107.628C193.655 107.647 193.523 107.647 193.372 107.647H193.183C192.333 107.628 191.503 107.553 190.71 107.421C189.879 107.289 189.105 107.1 188.387 106.835C187.688 106.628 187.084 106.363 186.499 106.042C185.857 105.74 185.272 105.363 184.781 104.947C184.724 104.891 184.648 104.834 184.592 104.777L186.291 99.0749H186.348C186.48 99.4525 186.612 99.8302 186.763 100.189C188.066 103.323 190.313 105.627 192.862 106.496C193.145 106.609 193.372 106.684 193.655 106.722C193.863 106.798 194.09 106.835 194.297 106.854C194.505 106.892 194.675 106.911 194.883 106.911C195.015 106.911 195.147 106.911 195.26 106.911H195.411C195.506 106.911 195.581 106.911 195.657 106.911H195.694C195.694 106.911 195.808 106.911 195.864 106.873V106.911C195.978 106.911 196.091 106.873 196.223 106.854C196.374 106.835 196.488 106.798 196.601 106.76C196.695 106.76 196.809 106.722 196.884 106.703C196.884 106.703 196.997 106.665 197.035 106.628H197.073C197.847 106.363 198.47 105.929 198.999 105.363C199.244 105.117 199.414 104.834 199.603 104.532C199.981 103.814 200.226 102.983 200.226 102.077V102.039C200.226 101.926 200.226 101.794 200.207 101.681C200.207 101.492 200.207 101.322 200.151 101.133C200.151 101.076 200.151 101.02 200.132 100.963C199.792 98.9805 198.451 97.4888 196.431 95.695C196.374 95.6572 195.543 94.9586 195.147 94.6187L193.41 93.2026C192.806 92.7494 192.239 92.2584 191.691 91.7108C191.654 91.692 191.635 91.6542 191.616 91.6353C190.54 90.5401 189.69 89.1618 189.369 87.2169C189.369 87.2169 189.363 87.2043 189.35 87.1791C189.237 86.7449 189.18 86.2539 189.18 85.7441C189.18 85.6497 189.18 85.5552 189.199 85.4797V85.2909C189.199 84.8189 189.218 84.3468 189.293 83.9125C189.293 83.837 189.293 83.7803 189.331 83.7237C189.407 82.9306 189.596 82.1754 189.879 81.4579C189.917 81.3257 189.954 81.1935 190.011 81.0613C190.087 80.9102 190.162 80.7592 190.238 80.627C190.294 80.476 190.351 80.3438 190.426 80.2116C190.502 80.0606 190.615 79.9284 190.691 79.7962C190.766 79.6641 190.861 79.5319 190.917 79.3997C190.936 79.3997 190.936 79.3808 190.936 79.3808C191.068 79.2109 191.182 79.0598 191.295 78.9088C191.408 78.7577 191.522 78.6066 191.654 78.4745H191.673C191.805 78.2856 191.975 78.0968 192.182 77.9269C192.39 77.7003 192.636 77.4926 192.862 77.3227C193.259 77.0017 193.655 76.7184 194.09 76.473C195.147 75.8498 196.336 75.3967 197.62 75.1512C197.79 75.1324 197.941 75.1134 198.111 75.0945C198.697 75.0001 199.282 74.9624 199.867 74.9624C202.228 74.9624 204.871 75.6232 207.911 76.9827V77.0016Z" fill="#ED91FA"/>
<path d="M230.985 77.0016L229.834 82.3264H229.777C229.701 82.1754 229.626 82.0432 229.569 81.8921C229.475 81.7033 229.38 81.4956 229.248 81.3068C229.154 81.118 229.059 80.948 228.965 80.7592C228.871 80.6081 228.757 80.4382 228.663 80.2871C228.342 79.8151 228.021 79.3431 227.643 78.9088C227.285 78.4934 226.907 78.1157 226.529 77.7569H226.51C226.001 77.2849 225.415 76.8884 224.849 76.5674C223.867 76.0198 222.791 75.6988 221.658 75.6988C220.827 75.6988 220.034 75.9065 219.392 76.2841C219.09 76.4352 218.806 76.6429 218.599 76.8695C218.41 77.0205 218.278 77.2093 218.127 77.3982C218.013 77.5492 217.881 77.7192 217.806 77.908C217.692 78.078 217.428 78.7388 217.428 78.7577C217.315 79.0976 217.22 79.8151 217.22 79.9473V80.4949C217.22 80.6837 217.296 81.4956 217.353 81.7033C217.504 82.4019 218.183 83.9314 219.826 85.5931C220.242 85.9896 220.676 86.3295 221.072 86.6505L223.791 88.8785C226.454 91.1066 228.248 93.2403 228.248 97.1489C228.248 99.8302 227.492 101.397 226.775 102.53C226.567 102.927 225.585 104.154 225.359 104.343C225.189 104.532 225 104.683 224.849 104.834C224.717 104.947 224.547 105.079 224.414 105.174C224.282 105.306 224.131 105.4 223.961 105.495C223.829 105.608 223.697 105.702 223.527 105.778C223.395 105.872 223.263 105.967 223.093 106.042C222.961 106.137 222.847 106.193 222.677 106.25C222.545 106.344 222.413 106.401 222.281 106.477C222.111 106.533 221.979 106.609 221.828 106.665C221.072 106.968 220.279 107.213 219.448 107.364L219.279 107.402C219.279 107.402 218.863 107.477 218.75 107.496C218.637 107.515 218.07 107.591 217.9 107.591C217.73 107.591 217.598 107.628 217.409 107.628C217.22 107.628 217.05 107.666 216.862 107.628C216.729 107.647 216.597 107.647 216.446 107.647H216.257C215.408 107.628 214.577 107.553 213.784 107.421C212.972 107.289 212.179 107.1 211.461 106.835C210.763 106.628 210.14 106.363 209.573 106.042C208.931 105.74 208.365 105.363 207.855 104.947C207.779 104.891 207.742 104.834 207.666 104.777L209.365 99.0749H209.403C209.554 99.4525 209.668 99.8302 209.837 100.189C211.159 103.323 213.406 105.627 215.936 106.496C216.22 106.609 216.446 106.684 216.729 106.722C216.937 106.798 217.164 106.835 217.371 106.854C217.579 106.892 217.768 106.911 217.938 106.911C218.089 106.911 218.202 106.911 218.334 106.911H218.485C218.58 106.911 218.901 106.911 218.939 106.911C219.071 106.911 219.184 106.873 219.297 106.854C219.448 106.835 219.562 106.798 219.694 106.76C219.769 106.76 219.845 106.722 219.958 106.703C220.015 106.684 220.053 106.666 220.128 106.647H220.166C220.921 106.363 221.582 105.929 222.073 105.363C222.319 105.117 222.488 104.853 222.658 104.57C223.017 103.909 223.263 103.153 223.3 102.323C223.3 101.851 223.282 101.397 223.225 100.963C223.225 100.925 223.225 100.906 223.206 100.869C222.847 98.9238 221.507 97.4699 219.505 95.695C219.448 95.6572 219.411 95.6195 219.335 95.5628C218.995 95.2607 215.313 92.2584 214.766 91.7108C214.728 91.692 214.709 91.6542 214.69 91.6353C213.557 90.4646 212.651 89.0107 212.387 86.877C212.368 86.8393 212.368 86.8204 212.368 86.8015C212.33 86.556 212.292 86.3295 212.273 86.0651C212.273 85.9329 212.254 85.8008 212.254 85.6497V85.2909C212.254 84.8189 212.273 84.3468 212.368 83.9125C212.368 83.837 212.67 82.1754 212.953 81.4579C212.953 81.4579 213.444 80.3438 213.519 80.2116C213.576 80.0606 214.256 79.0598 214.369 78.9088C214.501 78.7577 214.596 78.6066 214.728 78.4745H214.747C214.898 78.2856 215.049 78.0968 215.257 77.9269C215.445 77.7192 215.691 77.5115 215.918 77.3227C216.314 77.0017 216.729 76.7184 217.164 76.473C218.202 75.8498 219.411 75.3967 220.695 75.1512C220.865 75.1324 221.035 75.1134 221.186 75.0945C221.771 75.0001 222.356 74.9624 222.961 74.9624C225.321 74.9624 227.945 75.6232 230.985 76.9827V77.0016Z" fill="#ED91FA"/>
</svg>
