<svg width="106" height="106" viewBox="0 0 106 106" fill="none" xmlns="http://www.w3.org/2000/svg">
<g clip-path="url(#clip0_1146_53733)">
<path d="M44.5415 106C42.5094 106 40.4773 105.528 38.6104 104.617C36.3801 103.511 34.5462 101.835 33.2741 99.7848C31.655 99.98 30.069 100.061 28.516 100.061C20.2223 100.061 13.1017 97.3605 7.91406 92.2517C-0.577838 83.8726 -2.31256 70.7426 3.07335 55.9368V25.0072C3.07335 21.8833 4.21331 18.8571 6.29498 16.4979L11.5652 10.4942C14.0765 7.6307 17.7276 5.98741 21.5606 5.98741H36.5288C40.2295 5.98741 43.6494 6.45925 46.871 7.43546C56.0073 2.55441 64.9617 0 73.0737 0C81.1856 0 88.4879 2.70084 93.6756 7.80967C97.3433 11.4216 99.7719 15.961 100.895 21.2C101.771 22.1437 102.564 23.1687 103.241 24.2913C103.39 24.5354 103.572 24.8771 103.737 25.1699C104.183 25.9997 104.58 26.8783 104.893 27.7731C105.059 28.2287 105.174 28.6192 105.273 29.0097C105.422 29.514 105.62 30.3113 105.769 31.2875C105.852 31.7919 105.885 32.2312 105.918 32.6867C105.967 33.126 106.017 33.6955 106.017 34.3625C106.017 42.0909 102.234 48.8755 95.6086 52.9593C95.0799 53.2847 94.5677 53.6101 94.039 53.9193C90.2887 60.7527 85.2993 67.4886 79.3517 73.6875C79.3517 73.6875 79.2691 74.0617 79.2526 74.1268C77.1214 82.9127 72.958 89.2906 66.2339 94.074C64.78 95.5058 64.2018 96.0752 63.8713 96.3843C59.3776 100.663 53.9091 103.234 49.6466 104.991C48.011 105.675 46.2598 106 44.525 106H44.5415Z" fill="#FFF6E7"/>
<path d="M92.7835 34.3461C92.7835 34.1509 92.7505 33.9882 92.734 33.8092C92.734 33.6139 92.7174 33.4187 92.6844 33.2235C92.6348 32.9469 92.5687 32.6865 92.5027 32.4425C92.4696 32.3123 92.4366 32.1822 92.387 32.052C92.2714 31.7429 92.1392 31.4663 91.9905 31.1897C91.9575 31.1083 91.9244 31.0433 91.8749 30.9619C91.0488 29.5952 89.7436 28.7166 88.3558 28.4238C88.4219 23.7542 87.1333 19.7843 84.3081 17.0021C77.204 10.006 62.4836 12.5116 47.7137 22.0784C44.6242 20.0609 41.1217 18.9871 36.5123 18.9871H21.5441L16.2739 24.9908V58.312C12.0114 68.6436 12.0114 77.8687 17.2486 83.0264C24.0223 89.6971 37.7184 87.7284 51.7944 79.2354L51.6953 79.7235C51.1005 82.4244 50.5388 84.3443 49.7128 85.9713C49.6467 86.0689 49.5971 86.1665 49.531 86.2641C47.2676 90.2829 44.4425 91.7634 44.2773 91.8936L44.5416 92.9512C48.9858 91.1126 52.3066 89.2904 54.8013 86.8824C55.0821 86.6383 57.7255 84.0026 57.7255 84.0026H57.7421C62.0706 81.1553 64.8462 77.4294 66.3992 71.0515L67.0105 68.3344L67.2418 67.2118C67.407 67.0491 67.5887 66.8864 67.7539 66.7237C75.0067 59.5811 80.5413 51.8202 84.0438 44.4661C85.4316 43.7665 86.935 42.9205 88.5045 41.928C91.0818 40.3498 92.767 37.8116 92.767 34.3136L92.7835 34.3461ZM31.8864 35.2735V33.3699C32.4316 33.435 32.9603 33.5326 33.4559 33.679C32.9272 34.2159 32.3985 34.7366 31.8864 35.2735ZM22.3867 19.8169H36.5288C39.8166 19.8169 43.5999 20.6792 46.8546 22.6641C43.5999 20.6792 39.8166 19.8331 36.5288 19.8331H22.3867V47.0531V19.8169Z" fill="#FFF6E7"/>
<path d="M67.7716 66.7472C86.2886 48.5115 93.7 26.2444 84.3253 17.0122C74.9507 7.78003 52.34 15.0788 33.823 33.3144C15.3059 51.5501 7.89458 73.8172 17.2692 83.0494C26.6439 92.2816 49.2546 84.9828 67.7716 66.7472Z" fill="#05AA82" stroke="#140A05" stroke-width="2" stroke-miterlimit="10"/>
<path d="M49.2988 51.3491V51.382C49.2988 51.382 49.3154 51.3656 49.3154 51.3491H49.2988Z" fill="#140A05"/>
<path d="M36.4115 27.3018H31.0586V47.5255H36.4115C36.4115 47.5255 45.5807 48.095 45.5807 37.4381C45.5807 31.1903 42.0617 27.3018 36.4115 27.3018ZM39.0879 46.3704C38.2618 46.5981 37.3697 46.712 36.4115 46.712H31.8847V33.3705C36.6428 33.8749 39.4679 37.5357 39.4679 43.035C39.4679 44.239 39.3522 45.3616 39.0879 46.3704Z" fill="#140A05"/>
<path d="M44.8046 55.807C44.8046 55.807 47.5306 53.1224 47.6463 53.0085C47.6463 53.0085 47.6573 53.0031 47.6793 52.9922C49.3645 51.9672 50.7688 50.6819 51.9253 49.1362C51.9253 49.1362 55.593 44.7433 55.5434 37.7308C55.5104 32.9149 54.007 27.6271 51.4792 25.1377C47.3985 21.119 43.0699 19.0039 36.5275 19.0039H21.5593L16.2891 25.0076V61.0134H30.8277C36.7093 61.0134 41.5335 59.1749 44.8046 55.807ZM22.3854 19.8174H36.5275C44.2099 19.8174 54.6843 24.4707 54.6843 37.438C54.6843 51.8371 42.1282 55.0097 36.5275 55.0097H22.3854V19.8174Z" fill="#140A05"/>
<path d="M47.4473 53.1544C47.4473 53.1544 47.4804 53.1221 47.4804 53.106C47.4969 53.0898 47.5135 53.0898 47.5135 53.0898C47.5135 53.1221 47.4804 53.1383 47.4473 53.1544Z" fill="#140A05"/>
<path d="M49.2988 51.382V51.3491H49.3154C49.3154 51.3491 49.2988 51.3491 49.2988 51.382Z" fill="#140A05"/>
<path d="M60.9453 40.0083C61.1435 40.0083 55.1794 46.9882 55.5594 46.6953C58.5497 46.9882 58.1697 49.5263 57.3932 53.2197L51.6934 79.7563C51.0986 82.4571 50.5369 84.377 49.7109 86.004C49.6448 86.1016 49.5952 86.1992 49.5291 86.2969C47.2657 90.3156 44.4406 91.7962 44.2754 91.9263L44.5397 92.9839C48.9839 91.1454 52.3047 89.3231 54.7994 86.9151C55.0803 86.6711 57.7236 84.0353 57.7236 84.0353H57.7402C62.0687 81.188 64.8443 77.4622 66.3973 71.0843L67.0086 68.3672L71.4032 47.6878C71.6014 46.793 72.1301 44.8893 72.1632 44.808C72.8405 42.7254 74.4761 42.7091 74.4761 42.7091L76.5909 40.0083H60.9453ZM74.2944 40.952C74.1622 40.9845 74.0466 41.0333 73.9309 41.0821C73.8318 41.1147 73.7327 41.1635 73.6336 41.2286C73.6005 41.2448 73.5675 41.2448 73.551 41.2611C73.4188 41.3425 73.3031 41.4075 73.204 41.5052C72.791 41.798 72.4936 42.1397 72.3119 42.3837C72.2458 42.4651 72.1962 42.5302 72.1632 42.579C70.9902 44.2548 65.819 69.8966 65.819 69.8966C65.1912 72.8089 64.3321 75.1681 63.2417 77.1368C63.0104 77.5273 62.7791 77.9015 62.5478 78.2431C62.0852 78.9265 61.6392 79.5122 61.1766 80.0329C60.9453 80.2932 60.714 80.5372 60.4992 80.7487C59.6071 81.6599 58.748 82.3107 57.9219 82.9452C55.8898 84.3933 53.4447 85.5973 50.5369 86.8175H50.5204L50.4378 86.4758H50.4543C50.6691 86.2969 50.8839 86.1342 51.0821 85.9552C51.2969 85.7762 51.4952 85.6135 51.6769 85.4508C51.8751 85.2718 52.0569 85.1091 52.2386 84.9464C52.4203 84.8 52.5856 84.6373 52.7508 84.4746C53.1142 84.1329 53.4447 83.7913 53.742 83.4496C53.8907 83.2706 54.0394 83.1079 54.1881 82.9289C56.0054 80.7162 56.8811 78.357 57.7732 74.2407C57.7732 74.2407 63.7208 46.5489 63.82 46.012C64.1008 44.5314 64.0347 43.5064 64.0182 43.2135C64.0017 42.9695 63.9521 42.7417 63.886 42.5302C63.8034 42.3349 63.7208 42.1397 63.6217 41.977C63.5721 41.8956 63.5226 41.8306 63.473 41.7492C63.3243 41.554 63.1922 41.4075 63.1261 41.3425C63.1261 41.3262 63.093 41.3099 63.093 41.3099C62.7296 40.9682 62.1513 40.8381 62.1183 40.8218H74.8231C74.6248 40.8543 74.4596 40.8869 74.2944 40.952Z" fill="#140A05"/>
<path d="M74.8247 40.8218C74.6265 40.8543 74.4613 40.8869 74.2961 40.9519C74.1639 40.9845 74.0482 41.0333 73.9326 41.0821C73.8335 41.1146 73.7343 41.1635 73.6352 41.2285C73.6022 41.2448 73.5691 41.2448 73.5526 41.2611C73.4204 41.3424 73.3048 41.4075 73.2057 41.5051C72.7926 41.798 72.4953 42.1397 72.3135 42.3837C72.2474 42.4651 72.1979 42.5301 72.1648 42.579C70.9918 44.2548 65.8207 69.8965 65.8207 69.8965C65.1929 72.8089 64.3338 75.1681 63.2434 77.1367C63.0121 77.5272 62.7808 77.9014 62.5495 78.2431C62.0869 78.9265 61.6408 79.5122 61.1782 80.0328C60.9469 80.2932 60.7156 80.5372 60.5009 80.7487C59.6087 81.6598 58.7496 82.3106 57.9236 82.9452C55.8914 84.3932 53.4463 85.5972 50.5386 86.8175H50.5221L50.4395 86.4758H50.456C50.6708 86.2968 50.8855 86.1341 51.0838 85.9552C51.2986 85.7762 51.4968 85.6135 51.6785 85.4508C51.8768 85.2718 52.0585 85.1091 52.2403 84.9464C52.422 84.8 52.5872 84.6373 52.7524 84.4746C53.1159 84.1329 53.4463 83.7912 53.7437 83.4496C53.8924 83.2706 54.0411 83.1079 54.1898 82.9289C56.0071 80.7162 56.8827 78.357 57.7749 74.2407C57.7749 74.2407 63.7225 46.5489 63.8216 46.012C64.1025 44.5314 64.0364 43.5064 64.0199 43.2135C64.0034 42.9694 63.9538 42.7417 63.8877 42.5301C63.8051 42.3349 63.7225 42.1397 63.6234 41.977C63.5738 41.8956 63.5242 41.8305 63.4747 41.7492C63.326 41.5539 63.1938 41.4075 63.1277 41.3424C63.1277 41.3262 63.0947 41.3099 63.0947 41.3099C62.7312 40.9682 62.153 40.838 62.1199 40.8218H74.8247Z" fill="#ED91FA"/>
<path d="M36.5445 19.8174H22.4023V55.0097H36.5445C42.1452 55.0097 54.6848 51.837 54.6848 37.4379C54.6848 24.4706 44.2268 19.8174 36.5445 19.8174ZM36.4288 47.5254H31.076V27.3016H36.4288C42.0626 27.3016 45.5981 31.1902 45.5981 37.4379C45.5981 48.0949 36.4784 47.5254 36.4288 47.5254Z" fill="#ED91FA"/>
<path d="M92.1375 37.7305C91.4601 39.4876 90.221 40.8706 88.635 41.8794C84.4551 44.5477 80.5892 46.2398 78.6397 46.5164L78.4414 45.6378H78.4579C78.4579 45.6378 83.1995 42.823 83.216 42.823C83.4804 42.7579 83.7282 42.6766 84.009 42.579C84.2403 42.2861 84.4056 41.9444 84.5212 41.6028C84.6038 41.3913 84.6699 41.1635 84.6699 40.9357C84.8351 39.2924 83.5134 38.6741 81.8448 38.1535C79.7466 37.5352 78.8544 35.9896 78.8544 34.5415C78.8544 33.4026 79.4162 32.3451 80.3744 31.7268C80.3744 31.7268 85.116 28.9121 85.1325 28.9121C85.6942 28.5378 86.4211 28.3101 87.2472 28.3101C88.6185 28.3101 90.0062 28.847 91.0966 29.9533C93.74 32.6379 92.5836 36.738 92.1375 37.7305Z" fill="#140A05" stroke="#140A05" stroke-miterlimit="10"/>
<path d="M87.3958 28.3101H87.2801C85.0663 28.3101 83.662 29.9045 83.662 31.7105C83.662 33.1586 84.5541 34.7042 86.6358 35.3225C87.3297 35.534 87.941 35.7618 88.4366 36.0872C89.147 36.5265 89.56 37.1447 89.4774 38.121L83.2324 42.8068L83.4472 43.6853C88.6348 42.9695 92.7817 39.8131 92.7817 34.3463C92.7817 30.4903 90.0226 28.3751 87.3958 28.3101Z" fill="#ED91FA"/>
</g>
<defs>
<clipPath id="clip0_1146_53733">
<rect width="106" height="106" fill="white"/>
</clipPath>
</defs>
</svg>
