<svg width="588" height="342" viewBox="0 0 588 342" fill="none" xmlns="http://www.w3.org/2000/svg">
<path d="M29.4528 204.19H32.3182C27.9361 223.193 28.6523 241.69 34.5935 259.05C52.164 310.54 113.134 341.257 197.743 341.257C243.544 341.257 293.812 332.366 343.111 315.554C347.788 313.953 352.381 312.31 356.889 310.624C361.819 312.899 367.423 314.121 373.491 314.121C378.8 314.121 385.626 313.152 392.915 309.613C400.289 312.52 408.463 314.121 416.932 314.121C426.076 314.121 434.714 312.267 442.382 308.812C450.22 312.267 459.152 314.121 468.422 314.121C485.108 314.121 500.108 308.054 510.642 296.972C512.033 295.624 513.971 293.686 516.878 290.778C532.005 280.75 540.854 264.233 540.854 245.567C540.854 243.123 540.685 240.805 540.39 238.572C547.427 235.665 554.042 231.957 558.635 229.176C576.542 219.822 587.203 202.42 587.203 182.279C587.203 161.085 573.424 143.514 554.463 138.584C559.225 119.16 558.719 100.157 552.609 82.2489C535.039 30.7591 474.068 0 389.502 0C343.658 0 293.433 8.89065 244.134 25.7028C223.361 32.8237 203.431 41.0402 184.512 50.3522C177.012 37.3744 162.854 28.8208 146.295 28.8208C133.654 28.8208 122.067 33.9193 113.977 42.4728C104.117 38.4699 92.9934 36.3631 81.1112 36.3631H42.9363C34.3827 36.3631 26.2084 40.0711 20.6044 46.56L7.16311 62.1081C2.52819 67.4593 0 74.3273 0 81.4061V174.652C0 190.959 13.1885 204.147 29.495 204.147L29.4528 204.19Z" fill="#FFF6E7"/>
<path d="M484.643 198.08C484.137 198.628 483.59 199.176 483.042 199.723C481.314 201.493 479.503 203.221 477.649 204.948C472.255 210.047 466.483 215.061 460.373 219.991C455.906 223.572 451.272 227.111 446.426 230.567C440.906 234.527 435.176 238.446 429.193 242.238C426.749 243.797 424.22 245.356 421.692 246.873C421.018 247.252 420.386 247.632 419.712 248.053C413.813 251.55 407.746 254.963 401.509 258.292C396.832 260.778 392.029 263.222 387.141 265.581C385.245 266.508 383.349 267.393 381.411 268.32C370.919 273.208 359.964 277.843 348.671 282.099C343.699 283.995 338.643 285.806 333.502 287.576C205.874 331.102 84.5228 314.037 62.4858 249.443C54.6065 226.395 60.4211 200.482 76.9383 174.61C80.267 169.428 84.0173 164.203 88.1466 159.062C93.4978 152.405 99.523 145.832 106.138 139.385C111.7 133.95 117.641 128.64 124.046 123.373C131.462 117.264 139.468 111.281 147.937 105.508C150.929 103.485 153.962 101.463 157.038 99.5247C161.083 96.9123 165.213 94.3842 169.468 91.856C170.648 91.1819 171.87 90.4655 173.092 89.7492C197.151 75.8866 224.287 63.583 253.613 53.5547C381.242 9.98645 502.593 27.0513 524.63 91.6875C535.711 124.132 519.616 162.433 484.643 198.038V198.08Z" fill="#05AA82" stroke="#140A05" stroke-width="2.1363" stroke-miterlimit="10"/>
<path d="M557.369 182.278V182.405C557.369 183.205 557.327 183.964 557.243 184.68C557.2 185.312 557.116 185.944 556.99 186.534C556.948 186.913 556.863 187.335 556.779 187.714C556.526 188.851 556.231 189.778 555.979 190.453C555.515 191.843 554.925 193.107 554.167 194.287C553.872 194.793 553.535 195.256 553.198 195.762C553.113 195.93 552.987 196.099 552.818 196.267C552.566 196.647 552.271 197.026 551.933 197.363C551.006 198.5 549.911 199.512 548.731 200.397C548.184 200.86 547.594 201.282 547.004 201.661C546.919 201.703 546.877 201.745 546.793 201.787C536.133 208.74 526.273 213.08 521.301 213.796L520.795 211.52H520.838C520.838 211.52 532.93 204.231 532.972 204.231H533.015L535.922 201.956C536.091 201.661 536.217 201.366 536.301 201.071C536.512 200.523 536.68 199.933 536.68 199.343C537.102 195.087 533.731 193.486 529.475 192.138C524.124 190.537 521.849 186.534 521.849 182.784C521.849 179.834 523.281 177.096 525.725 175.495C525.725 175.495 537.818 168.205 537.86 168.205C538.113 168.036 538.408 167.868 538.703 167.741C539.04 167.573 539.419 167.404 539.799 167.278C539.967 167.194 540.178 167.11 540.388 167.067C540.852 166.899 541.358 166.815 541.863 166.772C542.285 166.688 542.706 166.646 543.169 166.646H543.633C543.928 166.646 544.265 166.646 544.56 166.73C545.023 166.772 545.445 166.815 545.866 166.899C546.287 166.983 546.751 167.109 547.172 167.236C547.594 167.362 548.015 167.531 548.436 167.699C549.363 168.079 550.248 168.626 551.091 169.216C551.512 169.511 551.891 169.848 552.271 170.228C552.523 170.48 552.818 170.649 553.071 170.902C553.493 171.323 553.872 171.787 554.209 172.208C554.546 172.671 554.841 173.093 555.136 173.556C555.347 173.851 555.515 174.188 555.641 174.568C555.852 174.905 556.021 175.284 556.147 175.663C556.358 176.126 556.526 176.632 556.653 177.138C556.821 177.685 556.948 178.191 557.032 178.739C557.243 179.834 557.369 181.014 557.369 182.278Z" fill="#FFF6E7"/>
<path d="M517.806 199.344L517.047 198.964C509.631 195.593 503.227 193.95 497.454 193.95C487.004 193.95 478.577 199.049 474.364 207.012C474.364 207.012 465.515 215.903 465.473 215.945C460.712 220.285 458.015 226.521 458.015 233.642C458.015 234.569 458.057 235.454 458.142 236.297C456.119 231.662 452.748 228.417 449.251 225.594L462.945 214.555L466.358 199.344L465.557 198.964C464.883 198.669 464.209 198.374 463.535 198.079C456.962 195.299 451.189 193.95 445.922 193.95C435.472 193.95 427.045 199.049 422.874 207.012C422.832 207.012 414.025 215.903 413.983 215.945C409.222 220.285 406.525 226.521 406.525 233.642C406.525 237.097 407.115 239.878 408.084 242.238C408.59 243.502 409.222 244.639 409.938 245.693L409.306 245.314L408.801 246.198C407.368 248.474 401.975 256.775 400.079 255.932C399.236 255.384 399.573 251.929 400.584 246.915C401.343 242.87 402.438 237.856 403.66 232.504C405.64 223.487 412.298 195.341 412.298 195.341L390.977 197.195L377.367 212.658C373.617 229.26 367.129 245.482 360.682 256.817C360.092 256.817 359.755 256.564 359.628 256.395C358.406 254.878 359.544 249.822 360.302 246.451L367.971 212.743C369.657 205.243 369.193 200.06 366.749 196.984C365.106 194.961 362.62 193.95 359.376 193.95C352.592 193.95 345.766 198.88 340.12 207.729H340.077C339.445 208.318 332.156 215.65 331.819 215.987C328.996 202.377 318.715 193.95 304.094 193.95C290.526 193.95 279.486 201.83 272.408 212.743C272.365 212.785 265.792 219.316 265.624 219.527C259.683 225.131 255.174 232.757 252.772 241.1L263.98 187.546C264.486 185.228 265.834 180.298 265.919 180.088C267.646 174.694 271.818 174.652 271.818 174.652H289.346L304.894 161.211V156.702C309.613 168.374 319.262 176.295 332.198 176.295C338.771 176.295 344.923 174.104 349.811 168.795C349.895 168.711 349.979 168.627 350.064 168.458L350.19 168.332C350.443 168.121 350.653 167.91 350.864 167.7C351.033 167.573 351.117 167.447 351.285 167.278L352.002 166.562C352.002 166.562 352.339 166.267 352.55 166.056L353.139 166.309C352.887 169.343 352.76 171.534 352.76 174.652H375.345L382.634 166.183H383.309V174.652H406.315L421.821 161.211V59.411H396.708L383.309 74.9591V89.7908H366.202L363.589 94.4679C359.249 90.2965 353.898 88.3161 347.409 88.3161C336.117 88.3161 326.72 94.0044 321.116 103.316L318.883 105.592V89.7908H304.894V71.3355H279.95L266.508 86.8835V89.7908H255.722L261.494 84.0182C266.466 82.0378 269.584 77.5715 269.584 71.8411C269.584 64.0038 263.517 58.3154 255.09 58.3154C248.769 58.3154 243.755 61.602 241.775 66.6162C241.775 66.6583 241.733 66.6584 241.733 66.7005C241.48 66.8691 231.367 77.0659 231.367 77.0659C228.839 79.2148 227.322 82.4593 227.322 86.3357C227.322 87.5577 227.491 88.7374 227.786 89.7908H212.406L210.005 94.4679C205.749 90.3386 200.229 88.3161 193.614 88.3161C181.689 88.3161 172.209 93.9622 166.773 103.485C166.689 103.527 158.936 111.449 158.81 111.617V89.7908H146.843C146.843 89.7908 152.447 84.1868 152.658 84.0182C157.546 82.0378 160.664 77.5715 160.664 71.8411C160.664 64.0038 154.638 58.3154 146.253 58.3154C139.933 58.3154 134.919 61.602 132.896 66.6162C132.686 66.8268 122.531 77.0659 122.531 77.0659C121.056 78.2878 119.919 79.889 119.202 81.743C110.944 71.5883 97.755 65.8577 81.0693 65.8577H42.8944L29.4531 81.4058V174.652H66.5327C81.533 174.652 93.8365 169.891 102.179 161.169C102.264 161.042 109.132 154.216 109.427 153.921C109.427 153.921 109.455 153.921 109.511 153.921C113.809 151.267 117.39 147.938 120.34 143.935V174.694H143.262L155.186 162.601C157.124 165.34 159.484 167.657 162.265 169.469C162.265 169.469 162.56 171.028 162.602 171.239L162.139 171.408C162.139 171.745 148.866 184.722 148.866 184.722C153.332 196.9 164.582 205.79 184.049 205.79C196.015 205.79 206.17 201.998 212.87 194.667C213.038 194.54 220.328 187.251 220.539 186.998C221.592 186.408 222.603 185.776 223.572 185.017C231.199 185.776 230.23 192.349 228.249 201.914L213.713 270.637C212.196 277.632 210.763 282.604 208.656 286.817C208.488 287.07 208.361 287.323 208.193 287.576C202.42 297.983 195.215 301.818 194.794 302.155L195.468 304.893C206.802 300.132 215.272 295.413 221.634 289.177C222.35 288.545 229.092 281.719 229.092 281.719H229.134C240.216 274.303 247.295 264.612 251.255 247.968C250.876 250.496 250.708 253.024 250.708 255.595C250.708 273.502 261.747 284.626 278.18 284.626C287.745 284.626 296.341 280.455 302.956 273.797C303.335 273.502 311.13 265.623 311.172 265.581C320.611 259.64 327.942 249.316 331.06 237.055L325.835 259.682C323.518 269.921 323.392 278.306 327.563 282.182C329.206 283.783 331.482 284.626 334.6 284.626C341.384 284.626 347.409 281.424 352.76 275.988C352.76 275.988 358.238 270.384 358.406 270.3C358.448 270.216 359.586 269.078 360.302 268.404C360.597 268.109 360.808 267.898 360.85 267.856C362.746 266.803 364.642 265.412 366.454 263.769L366.033 265.665L365.696 267.098C363.884 275.146 363.884 284.626 373.491 284.626C378.337 284.626 382.803 282.224 387.017 277.8C387.101 277.758 395.823 269.078 395.823 269.078C397.045 268.488 398.225 267.688 399.32 266.761L396.118 277.505C401.048 282.14 409.096 284.626 416.933 284.626C425.739 284.626 433.029 281.634 437.916 276.536L446.891 267.519L446.976 267.477C448.661 266.592 450.136 265.539 451.568 264.317L447.608 277.505C452.495 282.14 460.585 284.626 468.423 284.626C477.229 284.626 484.561 281.634 489.364 276.536C489.49 276.452 498.423 267.519 498.423 267.519C506.471 263.179 511.359 255.342 511.359 245.566C511.359 235.791 506.134 230.018 500.741 225.636L514.435 214.597L517.806 199.386V199.344ZM80.7746 137.615H69.2292V103.064C81.3643 104.37 88.5696 113.85 88.5696 128.092C88.5696 131.21 88.2747 134.118 87.6005 136.73C85.4938 137.32 83.2185 137.615 80.7746 137.615ZM199.26 163.149C199.26 166.056 199.133 167.573 199.091 170.565C198.839 170.565 198.501 170.565 198.291 170.565C195.973 170.565 193.909 170.186 192.055 169.512C193.235 168.669 198.754 163.191 198.965 163.023H199.007L199.26 163.107V163.149ZM186.493 124.342C194.077 125.016 198.797 131.126 198.965 139.342C191.465 139.132 186.451 133.485 186.451 125.227C186.451 124.932 186.451 124.637 186.451 124.342H186.493ZM340.288 124.342C347.872 125.058 352.76 131.547 352.76 140.017V140.143C345.387 139.89 340.246 133.949 340.246 125.522C340.246 125.143 340.246 124.721 340.246 124.342H340.288ZM266.508 167.7H258.166V167.447L264.191 161.253H266.508V167.7ZM298.574 227.322C298.574 236.929 295.666 253.193 290.779 265.244C284.964 264.907 283.742 258.039 283.742 252.266C283.742 241.816 286.902 225.215 291.874 213.459C296.383 214.639 298.574 219.695 298.574 227.322ZM428.604 263.39C425.613 261.746 422.916 259.176 420.809 255.805C424.096 258.544 426.793 260.904 428.604 263.39ZM479.631 263.6C476.597 261.957 473.984 259.387 471.878 256.016C475.164 258.755 477.777 261.114 479.631 263.6Z" fill="#FFF6E7"/>
<path d="M517.806 199.344L517.047 198.964C509.631 195.593 503.227 193.95 497.454 193.95C487.004 193.95 478.577 199.049 474.364 207.012C474.364 207.012 465.515 215.903 465.473 215.945C460.712 220.285 458.015 226.521 458.015 233.642C458.015 234.569 458.057 235.454 458.142 236.297C456.119 231.662 452.748 228.417 449.251 225.594L462.945 214.555L466.358 199.344L465.557 198.964C464.883 198.669 464.209 198.374 463.535 198.079C456.962 195.299 451.189 193.95 445.922 193.95C435.472 193.95 427.045 199.049 422.874 207.012C422.832 207.012 414.025 215.903 413.983 215.945C409.222 220.285 406.525 226.521 406.525 233.642C406.525 237.097 407.115 239.878 408.084 242.238C408.59 243.502 409.222 244.639 409.938 245.693L409.306 245.314L408.801 246.198C407.368 248.474 401.975 256.775 400.079 255.932C399.236 255.384 399.573 251.929 400.584 246.915C401.343 242.87 402.438 237.856 403.66 232.504C405.64 223.487 412.298 195.341 412.298 195.341L390.977 197.195L377.367 212.658C373.617 229.26 367.129 245.482 360.682 256.817C360.092 256.817 359.755 256.564 359.628 256.395C358.406 254.878 359.544 249.822 360.302 246.451L367.971 212.743C369.657 205.243 369.193 200.06 366.749 196.984C365.106 194.961 362.62 193.95 359.376 193.95C352.592 193.95 345.766 198.88 340.12 207.729H340.077C339.445 208.318 332.156 215.65 331.819 215.987C328.996 202.377 318.715 193.95 304.094 193.95C290.526 193.95 279.486 201.83 272.408 212.743C272.365 212.785 265.792 219.316 265.624 219.527C259.683 225.131 255.174 232.757 252.772 241.1L263.98 187.546C264.486 185.228 265.834 180.298 265.919 180.088C267.646 174.694 271.818 174.652 271.818 174.652H289.346L304.894 161.211V156.702C309.613 168.374 319.262 176.295 332.198 176.295C338.771 176.295 344.923 174.104 349.811 168.795C349.895 168.711 349.979 168.627 350.064 168.458L350.19 168.332C350.443 168.121 350.653 167.91 350.864 167.7C351.033 167.573 351.117 167.447 351.285 167.278L352.002 166.562C352.002 166.562 352.339 166.267 352.55 166.056L353.139 166.309C352.887 169.343 352.76 171.534 352.76 174.652H375.345L382.634 166.183H383.309V174.652H406.315L421.821 161.211V59.411H396.708L383.309 74.9591V89.7908H366.202L363.589 94.4679C359.249 90.2965 353.898 88.3161 347.409 88.3161C336.117 88.3161 326.72 94.0044 321.116 103.316L318.883 105.592V89.7908H304.894V71.3355H279.95L266.508 86.8835V89.7908H255.722L261.494 84.0182C266.466 82.0378 269.584 77.5715 269.584 71.8411C269.584 64.0038 263.517 58.3154 255.09 58.3154C248.769 58.3154 243.755 61.602 241.775 66.6162C241.775 66.6583 241.733 66.6584 241.733 66.7005C241.48 66.8691 231.367 77.0659 231.367 77.0659C228.839 79.2148 227.322 82.4593 227.322 86.3357C227.322 87.5577 227.491 88.7374 227.786 89.7908H212.406L210.005 94.4679C205.749 90.3386 200.229 88.3161 193.614 88.3161C181.689 88.3161 172.209 93.9622 166.773 103.485C166.689 103.527 158.936 111.449 158.81 111.617V89.7908H146.843C146.843 89.7908 152.447 84.1868 152.658 84.0182C157.546 82.0378 160.664 77.5715 160.664 71.8411C160.664 64.0038 154.638 58.3154 146.253 58.3154C139.933 58.3154 134.919 61.602 132.896 66.6162C132.686 66.8268 122.531 77.0659 122.531 77.0659C121.056 78.2878 119.919 79.889 119.202 81.743C110.944 71.5883 97.755 65.8577 81.0693 65.8577H42.8944L29.4531 81.4058V174.652H66.5327C81.533 174.652 93.8365 169.891 102.179 161.169C102.264 161.042 109.132 154.216 109.427 153.921C109.427 153.921 109.455 153.921 109.511 153.921C113.809 151.267 117.39 147.938 120.34 143.935V174.694H143.262L155.186 162.601C157.124 165.34 159.484 167.657 162.265 169.469C162.265 169.469 162.56 171.028 162.602 171.239L162.139 171.408C162.139 171.745 148.866 184.722 148.866 184.722C153.332 196.9 164.582 205.79 184.049 205.79C196.015 205.79 206.17 201.998 212.87 194.667C213.038 194.54 220.328 187.251 220.539 186.998C221.592 186.408 222.603 185.776 223.572 185.017C231.199 185.776 230.23 192.349 228.249 201.914L213.713 270.637C212.196 277.632 210.763 282.604 208.656 286.817C208.488 287.07 208.361 287.323 208.193 287.576C202.42 297.983 195.215 301.818 194.794 302.155L195.468 304.893C206.802 300.132 215.272 295.413 221.634 289.177C222.35 288.545 229.092 281.719 229.092 281.719H229.134C240.216 274.303 247.295 264.612 251.255 247.968C250.876 250.496 250.708 253.024 250.708 255.595C250.708 273.502 261.747 284.626 278.18 284.626C287.745 284.626 296.341 280.455 302.956 273.797C303.335 273.502 311.13 265.623 311.172 265.581C320.611 259.64 327.942 249.316 331.06 237.055L325.835 259.682C323.518 269.921 323.392 278.306 327.563 282.182C329.206 283.783 331.482 284.626 334.6 284.626C341.384 284.626 347.409 281.424 352.76 275.988C352.76 275.988 358.238 270.384 358.406 270.3C358.448 270.216 359.586 269.078 360.302 268.404C360.597 268.109 360.808 267.898 360.85 267.856C362.746 266.803 364.642 265.412 366.454 263.769L366.033 265.665L365.696 267.098C363.884 275.146 363.884 284.626 373.491 284.626C378.337 284.626 382.803 282.224 387.017 277.8C387.101 277.758 395.823 269.078 395.823 269.078C397.045 268.488 398.225 267.688 399.32 266.761L396.118 277.505C401.048 282.14 409.096 284.626 416.933 284.626C425.739 284.626 433.029 281.634 437.916 276.536L446.891 267.519L446.976 267.477C448.661 266.592 450.136 265.539 451.568 264.317L447.608 277.505C452.495 282.14 460.585 284.626 468.423 284.626C477.229 284.626 484.561 281.634 489.364 276.536C489.49 276.452 498.423 267.519 498.423 267.519C506.471 263.179 511.359 255.342 511.359 245.566C511.359 235.791 506.134 230.018 500.741 225.636L514.435 214.597L517.806 199.386V199.344ZM80.7746 137.615H69.2292V103.064C81.3643 104.37 88.5696 113.85 88.5696 128.092C88.5696 131.21 88.2747 134.118 87.6005 136.73C85.4938 137.32 83.2185 137.615 80.7746 137.615ZM199.26 163.149C199.26 166.056 199.133 167.573 199.091 170.565C198.839 170.565 198.501 170.565 198.291 170.565C195.973 170.565 193.909 170.186 192.055 169.512C193.235 168.669 198.754 163.191 198.965 163.023H199.007L199.26 163.107V163.149ZM186.493 124.342C194.077 125.016 198.797 131.126 198.965 139.342C191.465 139.132 186.451 133.485 186.451 125.227C186.451 124.932 186.451 124.637 186.451 124.342H186.493ZM340.288 124.342C347.872 125.058 352.76 131.547 352.76 140.017V140.143C345.387 139.89 340.246 133.949 340.246 125.522C340.246 125.143 340.246 124.721 340.246 124.342H340.288ZM266.508 167.7H258.166V167.447L264.191 161.253H266.508V167.7ZM298.574 227.322C298.574 236.929 295.666 253.193 290.779 265.244C284.964 264.907 283.742 258.039 283.742 252.266C283.742 241.816 286.902 225.215 291.874 213.459C296.383 214.639 298.574 219.695 298.574 227.322ZM428.604 263.39C425.613 261.746 422.916 259.176 420.809 255.805C424.096 258.544 426.793 260.904 428.604 263.39ZM479.631 263.6C476.597 261.957 473.984 259.387 471.878 256.016C475.164 258.755 477.777 261.114 479.631 263.6Z" fill="#FFF6E7"/>
<path d="M113.64 149.623V149.713C113.64 149.713 113.684 149.713 113.684 149.623H113.64Z" fill="#140A05"/>
<path d="M80.7757 87.3887H67.1235V139.763H80.7757C80.7757 139.763 82.5452 139.89 85.0312 139.468C90.5088 138.626 99.6944 135.423 102.939 123.457C103.739 120.676 104.161 117.431 104.161 113.639C104.161 97.459 95.1861 87.3887 80.7757 87.3887ZM80.7757 137.614H69.2303V103.063C81.3654 104.369 88.5707 113.85 88.5707 128.092C88.5707 131.21 88.2758 134.117 87.6017 136.729C85.4949 137.319 83.2196 137.614 80.7757 137.614Z" fill="#140A05"/>
<path d="M144.313 91.8988H144.483C144.483 91.8988 144.568 91.7714 144.568 91.6865C144.483 91.7714 144.398 91.8138 144.313 91.8988Z" fill="#140A05"/>
<path d="M226.354 179.585H226.487V179.497C226.442 179.497 226.398 179.541 226.354 179.585Z" fill="#140A05"/>
<path d="M223.783 182.028H224.037C224.037 182.028 224.207 181.773 224.292 181.603C224.122 181.773 223.995 181.943 223.783 182.028Z" fill="#140A05"/>
<path d="M226.354 179.585H226.487V179.497C226.442 179.497 226.398 179.541 226.354 179.585Z" fill="#140A05"/>
<path d="M223.783 182.028H224.037C224.037 182.028 224.207 181.773 224.292 181.603C224.122 181.773 223.995 181.943 223.783 182.028Z" fill="#140A05"/>
<path d="M226.354 179.585H226.487V179.497C226.442 179.497 226.398 179.541 226.354 179.585Z" fill="#140A05"/>
<path d="M223.783 182.028H224.037C224.037 182.028 224.207 181.773 224.292 181.603C224.122 181.773 223.995 181.943 223.783 182.028Z" fill="#140A05"/>
<path d="M223.783 182.028H224.037C224.037 182.028 224.207 181.773 224.292 181.603C224.122 181.773 223.995 181.943 223.783 182.028Z" fill="#140A05"/>
<path d="M226.354 179.585H226.487V179.497C226.442 179.497 226.398 179.541 226.354 179.585Z" fill="#140A05"/>
<path d="M199.47 108.751C193.15 108.878 184.343 112.375 184.343 125.268C184.343 134.622 190.242 141.196 198.88 141.491C209.709 141.491 214.513 132.642 214.513 125.268C214.513 116.673 209.625 108.583 199.47 108.751ZM186.45 125.226C186.45 124.931 186.45 124.636 186.45 124.341C194.034 125.016 198.754 131.125 198.922 139.342C191.422 139.131 186.408 133.485 186.408 125.226H186.45Z" fill="#140A05"/>
<path d="M255.512 89.7915C255.512 89.7915 255.512 89.8353 255.512 89.8791C255.512 89.8791 255.6 89.8352 255.687 89.7915H255.556H255.512Z" fill="#140A05"/>
<path d="M226.394 179.624H226.52V179.539C226.52 179.539 226.436 179.581 226.394 179.624ZM223.823 182.025H224.076C224.076 182.025 224.245 181.773 224.329 181.604C224.161 181.773 224.034 181.941 223.823 182.025ZM144.313 91.8972H144.482C144.482 91.8972 144.566 91.7708 144.566 91.6865C144.482 91.7708 144.398 91.8129 144.313 91.8972Z" fill="#140A05"/>
<path d="M517.806 199.344L517.047 198.964C509.631 195.593 503.227 193.95 497.454 193.95C487.004 193.95 478.577 199.049 474.364 207.012C474.364 207.012 465.515 215.903 465.473 215.945C460.712 220.285 458.015 226.521 458.015 233.642C458.015 234.569 458.057 235.454 458.142 236.297C456.119 231.662 452.748 228.417 449.251 225.594L462.945 214.555L466.358 199.344L465.557 198.964C464.883 198.669 464.209 198.374 463.535 198.079C456.962 195.299 451.189 193.95 445.922 193.95C435.472 193.95 427.045 199.049 422.874 207.012C422.832 207.012 414.025 215.903 413.983 215.945C409.222 220.285 406.525 226.521 406.525 233.642C406.525 237.097 407.115 239.878 408.084 242.238C408.59 243.502 409.222 244.639 409.938 245.693L409.306 245.314L408.801 246.198C407.368 248.474 401.975 256.775 400.079 255.932C399.236 255.384 399.573 251.929 400.584 246.915C401.343 242.87 402.438 237.856 403.66 232.504C405.64 223.487 412.298 195.341 412.298 195.341L390.977 197.195L377.367 212.658C373.617 229.26 367.129 245.482 360.682 256.817C360.092 256.817 359.755 256.564 359.628 256.395C358.406 254.878 359.544 249.822 360.302 246.451L367.971 212.743C369.657 205.243 369.193 200.06 366.749 196.984C365.106 194.961 362.62 193.95 359.376 193.95C352.592 193.95 345.766 198.88 340.12 207.729H340.077C339.445 208.318 332.156 215.65 331.819 215.987C328.996 202.377 318.715 193.95 304.094 193.95C290.526 193.95 279.486 201.83 272.408 212.743C272.365 212.785 265.792 219.316 265.624 219.527C259.683 225.131 255.174 232.757 252.772 241.1L263.98 187.546C264.486 185.228 265.834 180.298 265.919 180.088C267.646 174.694 271.818 174.652 271.818 174.652H289.346L304.894 161.211V156.702C309.613 168.374 319.262 176.295 332.198 176.295C338.771 176.295 344.923 174.104 349.811 168.795C349.895 168.711 349.979 168.627 350.064 168.458L350.19 168.332C350.443 168.121 350.653 167.91 350.864 167.7C351.033 167.573 351.117 167.447 351.285 167.278L352.002 166.562C352.002 166.562 352.339 166.267 352.55 166.056L353.139 166.309C352.887 169.343 352.76 171.534 352.76 174.652H375.345L382.634 166.183H383.309V174.652H406.315L421.821 161.211V59.411H396.708L383.309 74.9591V89.7908H366.202L363.589 94.4679C359.249 90.2965 353.898 88.3161 347.409 88.3161C336.117 88.3161 326.72 94.0044 321.116 103.316L318.883 105.592V89.7908H304.894V71.3355H279.95L266.508 86.8835V89.7908H255.722L261.494 84.0182C266.466 82.0378 269.584 77.5715 269.584 71.8411C269.584 64.0038 263.517 58.3154 255.09 58.3154C248.769 58.3154 243.755 61.602 241.775 66.6162C241.775 66.6583 241.733 66.6584 241.733 66.7005C241.48 66.8691 231.367 77.0659 231.367 77.0659C228.839 79.2148 227.322 82.4593 227.322 86.3357C227.322 87.5577 227.491 88.7374 227.786 89.7908H212.406L210.005 94.4679C205.749 90.3386 200.229 88.3161 193.614 88.3161C181.689 88.3161 172.209 93.9622 166.773 103.485C166.689 103.527 158.936 111.449 158.81 111.617V89.7908H146.843C146.843 89.7908 152.447 84.1868 152.658 84.0182C157.546 82.0378 160.664 77.5715 160.664 71.8411C160.664 64.0038 154.638 58.3154 146.253 58.3154C139.933 58.3154 134.919 61.602 132.896 66.6162C132.686 66.8268 122.531 77.0659 122.531 77.0659C121.056 78.2878 119.919 79.889 119.202 81.743C110.944 71.5883 97.755 65.8577 81.0693 65.8577H42.8944L29.4531 81.4058V174.652H66.5327C81.533 174.652 93.8365 169.891 102.179 161.169C102.264 161.042 109.132 154.216 109.427 153.921C109.427 153.921 109.455 153.921 109.511 153.921C113.809 151.267 117.39 147.938 120.34 143.935V174.694H143.262L155.186 162.601C157.124 165.34 159.484 167.657 162.265 169.469C162.265 169.469 162.56 171.028 162.602 171.239L162.139 171.408C162.139 171.745 148.866 184.722 148.866 184.722C153.332 196.9 164.582 205.79 184.049 205.79C196.015 205.79 206.17 201.998 212.87 194.667C213.038 194.54 220.328 187.251 220.539 186.998C221.592 186.408 222.603 185.776 223.572 185.017C231.199 185.776 230.23 192.349 228.249 201.914L213.713 270.637C212.196 277.632 210.763 282.604 208.656 286.817C208.488 287.07 208.361 287.323 208.193 287.576C202.42 297.983 195.215 301.818 194.794 302.155L195.468 304.893C206.802 300.132 215.272 295.413 221.634 289.177C222.35 288.545 229.092 281.719 229.092 281.719H229.134C240.216 274.303 247.295 264.612 251.255 247.968C250.876 250.496 250.708 253.024 250.708 255.595C250.708 273.502 261.747 284.626 278.18 284.626C287.745 284.626 296.341 280.455 302.956 273.797C303.335 273.502 311.13 265.623 311.172 265.581C320.611 259.64 327.942 249.316 331.06 237.055L325.835 259.682C323.518 269.921 323.392 278.306 327.563 282.182C329.206 283.783 331.482 284.626 334.6 284.626C341.384 284.626 347.409 281.424 352.76 275.988C352.76 275.988 358.238 270.384 358.406 270.3C358.448 270.216 359.586 269.078 360.302 268.404C360.597 268.109 360.808 267.898 360.85 267.856C362.746 266.803 364.642 265.412 366.454 263.769L366.033 265.665L365.696 267.098C363.884 275.146 363.884 284.626 373.491 284.626C378.337 284.626 382.803 282.224 387.017 277.8C387.101 277.758 395.823 269.078 395.823 269.078C397.045 268.488 398.225 267.688 399.32 266.761L396.118 277.505C401.048 282.14 409.096 284.626 416.933 284.626C425.739 284.626 433.029 281.634 437.916 276.536L446.891 267.519L446.976 267.477C448.661 266.592 450.136 265.539 451.568 264.317L447.608 277.505C452.495 282.14 460.585 284.626 468.423 284.626C477.229 284.626 484.561 281.634 489.364 276.536C489.49 276.452 498.423 267.519 498.423 267.519C506.471 263.179 511.359 255.342 511.359 245.566C511.359 235.791 506.134 230.018 500.741 225.636L514.435 214.597L517.806 199.386V199.344ZM398.814 61.5178H419.714V159.104H398.814V61.5178ZM146.253 60.4644C153.543 60.4644 158.557 65.1414 158.557 71.8831C158.557 75.0854 156.914 83.1334 146.38 83.1334H146.211C138.5 83.1334 135.087 79.0884 134.16 74.0743C133.023 61.3493 144.147 60.4644 146.253 60.4644ZM108.921 154.343C108.921 154.343 109.005 154.258 109.005 154.216C109.047 154.216 109.09 154.216 109.09 154.216C109.09 154.301 109.005 154.343 108.921 154.385V154.343ZM113.64 149.708V149.623H113.683C113.683 149.623 113.64 149.666 113.64 149.708ZM81.0693 159.104H45.0012V67.9645H81.0693C99.0191 67.9645 122.91 78.0771 126.829 105.55C127.166 108.078 127.377 110.774 127.377 113.598C127.377 150.888 95.3533 159.104 81.0693 159.104ZM156.703 159.104H135.93V91.8976H144.315C144.315 91.8976 144.484 91.7712 144.568 91.6869C144.568 91.7712 144.484 91.8133 144.484 91.8976H156.703V159.104ZM321.875 105.929C326.973 97.291 335.611 91.9818 343.575 90.7178C343.659 90.6756 346.398 90.465 347.409 90.465C353.519 90.465 360.387 93.1196 366.244 100.83L368.308 99.8613V91.9397H388.786V159.146H368.308V151.309L366.159 150.171L365.696 150.845C361.187 157.419 354.825 160.789 346.735 160.789C329.712 160.789 317.324 145.916 317.324 125.395C317.324 117.98 318.757 111.238 321.875 105.929ZM272.408 91.8976H282.056V73.4422H302.787V91.8976H316.776V110.058H302.787V159.104H282.056V110.058H272.408V91.8976ZM265.539 91.8976V159.104H244.767V91.8976H265.539ZM266.508 161.211V167.658H258.166V167.405L264.191 161.211H266.508ZM255.469 89.9172V89.833H255.595C255.595 89.833 255.469 89.9172 255.427 89.9172H255.469ZM255.09 60.4644C262.379 60.4644 267.478 65.1414 267.478 71.8831C267.478 75.0012 265.834 83.1334 255.258 83.1334H255.09C247.379 83.1334 242.828 76.9815 242.828 71.8831C242.828 71.8831 243.25 60.4644 255.09 60.4644ZM224.078 182.026H223.825C223.825 182.026 224.162 181.773 224.331 181.604C224.246 181.773 224.162 181.899 224.078 182.026ZM226.522 179.624H226.395C226.395 179.624 226.48 179.54 226.522 179.54C226.522 179.54 226.564 179.582 226.522 179.624ZM218.6 185.607C213.123 188.641 206.339 190.242 198.502 190.242C189.864 190.242 184.175 189.273 177.939 185.565C166.226 178.613 164.709 170.86 164.709 170.818L183.459 164.371C183.628 164.708 185.524 172.756 198.291 172.756C211.058 172.756 214.808 166.899 214.808 147.896L212.28 147.18C209.035 155.649 200.777 158.303 191.97 158.303C175.327 158.303 163.698 144.525 163.698 124.721C163.698 117.474 165.214 111.069 167.953 105.845C168.08 105.507 172.715 97.3752 178.993 94.1729C182.237 92.319 185.903 91.0971 189.99 90.6757C200.861 89.9173 205.917 94.173 212.28 100.578L214.471 100.03V91.9397H234.991V155.396C234.991 176.043 218.937 185.481 218.6 185.607ZM192.055 169.554C193.235 168.711 198.754 163.233 198.965 163.065H199.007L199.26 163.149C199.26 166.056 199.133 167.573 199.091 170.565C198.839 170.565 198.501 170.565 198.291 170.565C195.973 170.565 193.909 170.186 192.055 169.512V169.554ZM249.738 245.061C248.137 252.603 245.946 258.713 243.165 263.811C238.362 271.985 233.811 275.567 229.556 278.854C224.373 282.604 218.137 285.722 210.721 288.882L210.51 287.997C222.435 278.221 225.805 272.449 229.218 256.311C229.218 256.311 244.387 184.596 244.64 183.206C245.356 179.371 245.188 176.717 245.146 175.958C245.019 173.051 242.786 171.07 242.744 171.028C241.817 170.143 240.342 169.806 240.258 169.764H272.702C268.7 170.354 266.677 173.22 265.919 174.315C262.927 178.655 249.738 245.061 249.738 245.061ZM329.965 231.367C329.122 237.223 327.31 242.785 324.614 247.715C324.614 247.884 324.529 248.01 324.445 248.179C324.403 248.179 316.608 259.766 310.793 263.306C305.4 266.929 299.248 268.994 292.717 268.994C292.675 268.994 290.61 268.994 289.767 268.867C289.599 268.867 276.41 268.151 269.626 255.89C267.435 251.718 266.256 246.704 266.256 241.016C266.256 221.549 276.537 206.507 287.913 200.397C291.116 198.711 295.034 197.068 299.121 196.436H299.164C300.723 196.183 302.408 196.057 304.094 196.057C318.167 196.057 327.858 204.442 330.049 217.925C330.892 224.372 330.049 231.282 329.965 231.367ZM428.604 263.39C425.613 261.746 422.916 259.176 420.809 255.805C424.096 258.544 426.793 260.904 428.604 263.39ZM338.729 216.198V216.24H338.687C338.687 216.24 338.729 216.198 338.771 216.198H338.729ZM332.661 224.077C332.661 223.698 332.661 223.319 332.661 222.939C332.788 222.729 332.914 222.56 332.999 222.392C334.431 222.687 333.673 225.594 333.251 227.785L331.229 236.465C332.198 232.504 332.704 228.333 332.704 224.077H332.661ZM405.303 257.069C404.376 258.46 403.407 259.682 402.48 260.82C401.932 261.367 401.511 261.915 401.006 262.421C397.803 265.876 396.539 266.213 396.328 266.381C396.118 266.55 395.107 267.14 394.812 267.224C390.556 269.752 387.016 269.036 385.626 268.741C384.404 268.615 382.634 267.477 382.213 266.719C380.78 264.949 380.148 262.084 380.401 258.376V258.291C380.486 257.533 380.528 256.775 380.654 255.932C380.823 254.963 380.991 253.909 381.244 252.814L385.879 231.577L383.856 230.945C383.309 232.378 375.429 252.94 366.538 260.567C366.37 260.693 359.291 267.351 351.917 268.825C349.431 269.331 344.291 269.078 342.1 266.171C339.361 262.589 338.35 255.426 341.384 245.398C350.822 214.133 350.653 206.717 347.198 206.717C344.502 206.717 340.878 212.406 339.53 214.302L339.024 213.965C339.951 210.13 347.957 196.099 359.376 196.099C361.988 196.099 363.673 196.984 365.064 198.374C370.331 203.641 362.409 222.392 357.058 252.772C357.058 252.772 356.468 257.069 359.544 258.755C362.957 260.23 367.423 255.131 367.803 254.668C371.679 251.044 378.631 238.108 378.674 238.066C386.426 222.813 390.092 208.361 392.747 199.217L409.727 197.49C409.727 197.49 407.326 207.981 404.798 219.99C403.491 226.015 402.396 231.072 401.469 235.327C401.301 236.086 401.132 236.802 400.963 237.519C400.711 238.614 400.5 239.667 400.247 240.679C400.036 241.69 399.826 242.617 399.615 243.502C399.236 245.271 398.899 246.788 398.604 248.137C398.52 248.727 398.393 249.232 398.309 249.696C398.225 250.201 398.14 250.665 398.056 251.086C397.972 251.507 397.93 251.887 397.845 252.266C397.803 252.687 397.761 253.024 397.719 253.361C397.382 256.353 397.803 257.364 399.067 257.954C401.385 259.218 404.208 255.89 404.587 255.426C404.966 255.047 409.854 248.432 410.022 248.263L410.444 248.558C410.444 248.558 405.43 256.943 405.303 257.069ZM457.509 249.021C457.13 252.14 456.077 255.005 454.476 257.533C454.012 258.418 453.338 259.303 452.706 260.103C452.242 260.651 451.821 261.157 451.273 261.578C450.936 261.999 450.557 262.336 450.136 262.673C449.883 262.926 449.546 263.221 449.167 263.432C448.914 263.727 448.577 263.937 448.197 264.148C447.945 264.401 447.608 264.612 447.228 264.78C446.976 264.991 446.639 265.202 446.259 265.37C445.964 265.581 445.669 265.707 445.374 265.834C445.037 266.044 444.785 266.171 444.447 266.339C444.068 266.466 443.731 266.634 443.436 266.761C441.751 267.435 440.023 267.983 438.127 268.32C438.127 268.32 438.001 268.404 437.916 268.404H437.748C437.748 268.404 437.495 268.488 437.327 268.488C437.074 268.53 436.863 268.572 436.568 268.615C436.273 268.615 436.02 268.699 435.683 268.699C435.388 268.783 435.051 268.825 434.714 268.825C434.335 268.825 433.998 268.91 433.576 268.91C433.197 268.952 432.776 268.994 432.312 268.952C432.06 268.952 431.765 268.952 431.427 268.952H431.006C429.11 268.952 427.256 268.741 425.486 268.446C423.632 268.151 421.905 267.73 420.304 267.14C418.745 266.676 417.396 266.086 416.09 265.37C414.657 264.696 413.351 263.853 412.256 262.926C412.129 262.8 411.961 262.673 411.834 262.547L415.627 249.822H415.753C416.048 250.665 416.343 251.507 416.68 252.308C419.587 259.303 424.601 264.443 430.29 266.381C430.922 266.634 431.428 266.803 432.06 266.887C432.523 267.056 433.029 267.14 433.492 267.182C433.956 267.266 434.335 267.308 434.798 267.308C435.093 267.35 435.388 267.351 435.641 267.351H435.978C435.978 267.351 436.357 267.35 436.526 267.308H436.61C436.61 267.308 436.863 267.308 436.989 267.224V267.308C437.242 267.308 437.495 267.224 437.79 267.182C438.127 267.14 438.38 267.056 438.633 266.971C438.843 266.929 439.096 266.887 439.265 266.845C439.265 266.845 439.518 266.761 439.602 266.676H439.686C441.414 266.086 442.804 265.117 443.984 263.853C444.532 263.306 444.911 262.674 445.332 261.999C446.175 260.398 446.723 258.544 446.723 256.522V256.437C446.723 256.185 446.723 255.89 446.681 255.637C446.681 255.215 446.681 254.836 446.554 254.415C446.554 254.288 446.554 254.162 446.512 254.036C445.754 249.611 442.762 246.283 438.253 242.28C438.127 242.195 436.273 240.637 435.388 239.878L431.512 236.718C430.163 235.707 428.899 234.611 427.677 233.389C427.593 233.347 427.551 233.263 427.509 233.221C427.13 232.841 426.75 232.42 426.371 231.957C425.992 231.493 425.613 231.03 425.318 230.524C424.981 230.061 424.686 229.555 424.391 229.007C424.096 228.459 423.801 227.869 423.59 227.279C423.38 226.816 423.211 226.31 423.085 225.763C422.832 225.004 422.621 224.204 422.495 223.361C422.495 223.361 422.481 223.333 422.453 223.277C422.2 222.308 422.073 221.212 422.073 220.074C422.073 219.864 422.073 219.653 422.115 219.484V219.063C422.115 218.01 422.158 216.956 422.326 215.987C422.326 215.819 422.326 215.692 422.41 215.566C422.579 213.796 423 212.111 423.632 210.51C423.717 210.215 423.801 209.92 423.927 209.625C424.096 209.288 424.264 208.951 424.433 208.656C424.559 208.318 424.686 208.024 424.854 207.729C425.023 207.391 425.276 207.097 425.444 206.802C425.613 206.507 425.823 206.212 425.95 205.917C425.992 205.917 425.992 205.917 425.992 205.917C426.287 205.538 426.54 205.2 426.793 204.863C427.045 204.526 427.298 204.189 427.593 203.894H427.635C427.93 203.473 428.309 203.051 428.773 202.672C429.236 202.167 429.784 201.703 430.29 201.324C431.175 200.608 432.06 199.976 433.029 199.428C435.388 198.037 438.043 197.026 440.908 196.478C441.287 196.478 441.624 196.394 442.004 196.352C443.31 196.141 444.616 196.057 445.922 196.057C446.596 196.057 447.228 196.099 447.945 196.141C448.619 196.141 449.293 196.225 450.009 196.352C450.641 196.436 451.315 196.52 451.948 196.647C452.453 196.731 452.959 196.857 453.464 196.984C453.928 197.068 454.391 197.195 454.855 197.321C457.088 197.911 459.448 198.712 461.934 199.723C462.566 199.976 463.198 200.271 463.872 200.565L463.745 201.113L461.26 212.448H461.175C461.007 212.111 460.838 211.816 460.67 211.479C460.501 211.057 460.29 210.594 460.037 210.172C459.785 209.751 459.616 209.372 459.363 208.95C459.153 208.613 458.9 208.234 458.647 207.897C458.099 206.97 457.425 206.043 456.751 205.2C456.709 205.116 456.625 205.032 456.54 204.948C456.54 204.948 456.498 204.863 456.456 204.821C455.613 203.894 454.813 203.051 453.928 202.251H453.886C452.748 201.197 451.442 200.313 450.136 199.596C447.945 198.374 445.585 197.658 443.057 197.658C441.203 197.658 439.433 198.122 437.958 198.964C437.326 199.301 436.694 199.765 436.189 200.27C435.852 200.608 435.43 200.987 435.135 201.45C434.883 201.787 434.588 202.167 434.377 202.588C434.166 202.967 434.04 203.346 433.871 203.726C433.787 203.936 433.703 204.147 433.619 204.358C433.576 204.442 433.576 204.484 433.534 204.568C433.534 204.653 433.534 204.737 433.534 204.779C433.45 205.032 433.408 205.2 433.366 205.411C433.324 205.58 433.324 205.748 433.324 205.959C433.239 206.043 433.239 206.17 433.239 206.296C433.239 206.549 433.155 206.844 433.155 207.139H433.239C433.239 207.139 433.155 207.181 433.155 207.223C433.155 207.265 433.239 207.307 433.239 207.307H433.155V208.361C433.155 208.782 433.155 209.161 433.239 209.54V209.625C433.239 210.13 433.323 210.594 433.45 211.057C433.576 211.647 433.787 212.195 433.998 212.743C434.293 213.543 434.588 214.26 435.009 214.934C436.147 216.914 437.706 218.557 439.307 219.99C440.15 220.749 440.992 221.423 441.751 222.097L443.858 223.824L445.627 225.257C446.049 225.636 446.554 226.015 447.018 226.395C447.144 226.521 447.313 226.69 447.523 226.816C447.65 226.9 447.734 226.985 447.818 227.069C453.802 232.041 457.804 236.802 457.804 245.524C457.804 246.704 457.72 247.884 457.552 249.021H457.509ZM512.665 212.49C512.497 212.153 512.328 211.858 512.201 211.521C511.991 211.099 511.78 210.636 511.485 210.215C511.275 209.793 511.064 209.414 510.853 208.993C510.642 208.656 510.39 208.276 510.179 207.939C509.463 206.886 508.746 205.833 507.904 204.863C507.103 203.936 506.26 203.094 505.418 202.293C504.28 201.24 502.974 200.355 501.71 199.638C499.519 198.417 497.117 197.7 494.589 197.7C492.735 197.7 490.965 198.164 489.532 199.006C488.858 199.344 488.226 199.807 487.763 200.313C487.341 200.65 487.047 201.071 486.709 201.492C486.457 201.83 486.162 202.209 485.993 202.63C485.74 203.009 485.15 204.484 485.15 204.526C484.898 205.285 484.687 206.886 484.687 207.181V208.403C484.687 208.824 484.856 210.636 484.982 211.099C485.319 212.658 486.836 216.071 490.502 219.779C491.429 220.664 492.398 221.423 493.283 222.139L499.35 227.111C505.291 232.083 509.294 236.844 509.294 245.566C509.294 251.55 507.609 255.047 506.008 257.575C505.544 258.46 503.353 261.199 502.847 261.62C502.468 262.041 502.047 262.378 501.71 262.716C501.415 262.968 501.036 263.263 500.741 263.474C500.446 263.769 500.109 263.98 499.729 264.19C499.435 264.443 499.139 264.654 498.76 264.822C498.465 265.033 498.17 265.244 497.791 265.412C497.496 265.623 497.243 265.749 496.864 265.876C496.569 266.086 496.274 266.213 495.979 266.381C495.6 266.508 495.305 266.676 494.968 266.803C493.283 267.477 491.513 268.025 489.659 268.362L489.28 268.446C489.28 268.446 488.353 268.615 488.1 268.657C487.847 268.657 486.583 268.867 486.204 268.867C485.825 268.867 485.53 268.952 485.108 268.952C484.687 268.994 484.308 269.036 483.886 268.994C483.591 268.994 483.296 268.994 482.959 268.994H482.538C480.642 268.994 478.788 268.783 477.018 268.488C475.206 268.193 473.437 267.772 471.836 267.182C470.277 266.718 468.886 266.129 467.622 265.412C466.189 264.738 464.925 263.895 463.788 262.968C463.619 262.842 463.535 262.716 463.366 262.589L467.158 249.864H467.243C467.58 250.707 467.833 251.55 468.212 252.35C471.161 259.345 476.176 264.485 481.822 266.424C482.454 266.676 482.959 266.845 483.591 266.929C484.055 267.098 484.561 267.182 485.024 267.224C485.488 267.308 485.909 267.351 486.288 267.351C486.625 267.393 486.878 267.393 487.173 267.393H487.51C487.51 267.393 488.437 267.351 488.521 267.351C488.816 267.351 489.069 267.266 489.322 267.224C489.659 267.182 489.912 267.098 490.207 267.013C490.375 266.971 490.544 266.929 490.797 266.887C490.923 266.887 491.007 266.803 491.176 266.761H491.26C492.946 266.129 494.42 265.159 495.516 263.895C496.064 263.348 496.443 262.758 496.822 262.126C497.623 260.651 498.17 258.966 498.255 257.112C498.255 256.058 498.213 255.047 498.086 254.078C498.086 253.994 498.086 253.951 498.086 253.867C497.286 249.527 494.294 246.283 489.827 242.322C489.701 242.238 489.617 242.153 489.448 242.027C488.69 241.353 480.473 234.653 479.251 233.431C479.167 233.389 479.125 233.305 479.083 233.263C476.555 230.65 474.532 227.406 473.942 222.645C473.9 222.56 473.9 222.518 473.9 222.476C473.816 221.928 473.732 221.423 473.69 220.833C473.69 220.538 473.647 220.243 473.647 219.906V219.105C473.647 218.052 473.69 216.998 473.9 216.029C473.9 215.861 474.574 212.153 475.206 210.552C475.206 210.552 476.302 208.066 476.47 207.771C476.597 207.434 478.114 205.2 478.367 204.863C478.662 204.526 478.872 204.189 479.167 203.894H479.209C479.547 203.473 479.883 203.051 480.347 202.672C480.768 202.209 481.316 201.745 481.822 201.324C482.707 200.608 483.634 199.976 484.603 199.428C486.92 198.037 489.617 197.026 492.482 196.478C492.861 196.478 493.24 196.394 493.578 196.352C494.884 196.141 496.19 196.057 497.538 196.057C502.805 196.057 508.662 197.532 515.446 200.565L512.876 212.448H512.749L512.665 212.49ZM471.878 256.016C475.164 258.755 477.777 261.114 479.631 263.6C476.597 261.957 473.984 259.387 471.878 256.016Z" fill="#140A05"/>
<path d="M158.516 71.8412C158.516 75.0435 156.873 83.0914 146.339 83.0914H146.171C138.46 83.0914 135.047 79.0464 134.12 74.0322C132.982 61.3073 144.106 60.4224 146.213 60.4224C153.502 60.4224 158.516 65.0995 158.516 71.8412Z" fill="#FFBD14"/>
<path d="M267.436 71.8412C267.436 74.9593 265.793 83.0914 255.217 83.0914H255.048C247.337 83.0914 242.787 76.9396 242.787 71.8412C242.787 71.8412 243.208 60.4224 255.048 60.4224C262.338 60.4224 267.436 65.0995 267.436 71.8412Z" fill="#FFBD14"/>
<path d="M410.401 248.516C410.401 248.516 405.387 256.901 405.261 257.027C404.334 258.417 403.365 259.639 402.438 260.777C401.89 261.325 401.469 261.873 400.963 262.378C397.761 265.833 396.497 266.17 396.286 266.339C396.075 266.508 395.064 267.097 394.769 267.182C390.513 269.71 386.974 268.994 385.583 268.699C384.362 268.572 382.592 267.434 382.171 266.676C380.106 264.106 379.727 259.302 381.201 252.771L385.836 231.535L383.814 230.903C383.266 232.336 375.387 252.898 366.496 260.524C366.328 260.651 359.249 267.308 351.875 268.783C349.389 269.288 344.248 269.036 342.057 266.128C339.318 262.547 338.307 255.384 341.341 245.355C350.779 214.091 350.611 206.675 347.156 206.675C344.459 206.675 340.835 212.363 339.487 214.259L338.981 213.922C339.908 210.088 347.914 196.057 359.333 196.057C361.945 196.057 363.631 196.942 365.021 198.332C370.288 203.599 362.367 222.349 357.016 252.729C357.016 252.729 356.426 257.027 359.501 258.712C362.914 260.187 367.381 255.089 367.76 254.625C371.637 251.002 378.589 238.066 378.631 238.024C386.384 222.771 390.05 208.318 392.704 199.175L409.685 197.447C409.685 197.447 407.283 207.939 404.755 219.948C397.887 252.224 395.865 256.395 399.025 257.912C401.342 259.176 404.165 255.847 404.545 255.384C404.924 255.005 409.811 248.389 409.98 248.221L410.401 248.516Z" fill="#FFBD14"/>
<path d="M330.049 218.01C327.858 204.485 318.167 196.1 304.094 196.1C302.408 196.1 300.723 196.226 299.164 196.479H299.122C295.034 197.111 291.116 198.754 287.914 200.44C276.537 206.549 266.256 221.592 266.256 241.058C266.256 246.747 267.436 251.761 269.627 255.932C276.411 268.194 289.599 268.91 289.768 268.91C290.61 269.079 292.675 269.036 292.717 269.036C299.248 269.036 305.4 266.972 310.793 263.348C316.608 259.809 324.403 248.264 324.445 248.221C324.529 248.053 324.614 247.927 324.614 247.758C327.311 242.828 329.122 237.266 329.965 231.409C330.049 231.325 330.892 224.415 330.049 218.01ZM313.279 223.656C311.046 240.426 304.599 264.401 294.234 266.887C293.181 267.14 291.832 267.477 289.936 267.309C286.312 266.803 281.678 263.938 281.635 252.309C281.593 246.325 283.194 236.887 283.363 236.002C284.711 228.333 286.86 220.117 289.683 213.249C289.894 212.87 293.644 204.442 296.004 202.294C296.004 202.294 298.405 199.513 300.47 198.712H300.512C301.734 198.038 302.956 197.701 304.262 197.701C306.201 197.701 308.686 198.206 310.709 200.566C316.229 206.086 313.406 222.729 313.279 223.656Z" fill="#FFBD14"/>
<path d="M272.66 169.765C268.657 170.355 266.634 173.22 265.876 174.315C262.884 178.655 249.696 245.061 249.696 245.061C248.094 252.603 245.903 258.713 243.122 263.811C238.319 271.986 233.768 275.567 229.513 278.854C224.33 282.604 218.094 285.722 210.678 288.882L210.467 287.997C222.392 278.222 225.763 272.449 229.176 256.311C229.176 256.311 244.344 184.596 244.597 183.206C245.313 179.372 245.145 176.717 245.103 175.959C244.977 173.051 242.743 171.071 242.701 171.029C241.774 170.144 240.299 169.807 240.215 169.765H272.66Z" fill="#FFBD14"/>
<path d="M126.829 105.591C122.91 78.1183 99.0194 68.0059 81.0696 68.0059H45.0015V159.145H81.0696C95.3536 159.145 127.377 150.929 127.377 113.639C127.377 110.816 127.166 108.119 126.829 105.591ZM85.0303 139.468C82.5443 139.889 80.817 139.763 80.7749 139.763H67.1227V87.3883H80.7749C95.1852 87.3883 104.16 97.4586 104.16 113.639C104.16 117.431 103.739 120.675 102.938 123.456C99.6936 135.423 90.508 138.625 85.0303 139.468Z" fill="#FFBD14"/>
<path d="M156.661 91.8984H135.888V159.105H156.661V91.8984Z" fill="#FFBD14"/>
<path d="M214.512 91.8977V99.9878L212.279 100.536C205.917 94.131 200.86 89.8753 189.989 90.6337C185.902 91.0551 182.236 92.2769 178.992 94.1309C172.714 97.3332 168.079 105.465 167.953 105.803C165.214 111.027 163.697 117.432 163.697 124.679C163.697 144.483 175.326 158.261 191.97 158.261C200.776 158.261 209.035 155.607 212.279 147.138L214.807 147.854C214.807 166.857 211.141 172.714 198.29 172.714C185.439 172.714 183.627 164.666 183.458 164.329L164.708 170.776C164.708 170.776 166.225 178.571 177.939 185.523C184.175 189.231 189.863 190.2 198.501 190.2C206.338 190.2 213.122 188.599 218.599 185.565C218.936 185.439 234.99 176.001 234.99 155.354V91.8977H214.512ZM198.88 141.491C190.242 141.197 184.343 134.623 184.343 125.269C184.343 112.376 193.15 108.878 199.47 108.752C209.625 108.583 214.512 116.674 214.512 125.269C214.512 132.643 209.709 141.491 198.88 141.491Z" fill="#FFBD14"/>
<path d="M265.496 91.8984H244.724V159.105H265.496V91.8984Z" fill="#FFBD14"/>
<path d="M316.735 91.8962V110.057H302.746V159.103H282.015V110.057H272.366V91.8962H282.015V73.4409H302.746V91.8962H316.735Z" fill="#FFBD14"/>
<path d="M368.309 91.8975V99.819L366.244 100.788C360.388 93.0774 353.519 90.4229 347.41 90.4229C346.398 90.4229 343.66 90.6335 343.575 90.6757C335.612 91.9397 326.974 97.2488 321.875 105.887C318.757 111.196 317.325 117.937 317.325 125.353C317.325 145.873 329.713 160.747 346.736 160.747C354.826 160.747 361.188 157.376 365.697 150.803L366.16 150.129L368.309 151.267V159.104H388.787V91.8975H368.309ZM352.634 142.25C344.039 141.955 338.14 135.129 338.14 125.522C338.14 113.64 346.525 108.752 354.109 108.752C363.337 108.752 368.309 117.053 368.309 125.522C368.309 133.022 365.991 142.25 352.634 142.25Z" fill="#FFBD14"/>
<path d="M419.672 61.5186H398.773V159.105H419.672V61.5186Z" fill="#FFBD14"/>
<path d="M463.831 200.566L463.704 201.114L461.219 212.448H461.134C460.966 212.111 460.797 211.816 460.629 211.479C460.46 211.057 460.249 210.594 459.997 210.173C459.744 209.751 459.575 209.372 459.322 208.951C459.112 208.614 458.859 208.234 458.606 207.897C457.974 206.844 457.216 205.791 456.415 204.821C455.572 203.894 454.772 203.052 453.887 202.251H453.845C452.707 201.198 451.401 200.313 450.095 199.597C447.904 198.375 445.544 197.658 443.016 197.658C441.162 197.658 439.392 198.122 437.917 198.965C437.285 199.302 436.653 199.765 436.148 200.271C435.811 200.608 435.389 200.987 435.094 201.451C434.842 201.788 434.547 202.167 434.336 202.588C434.125 202.968 433.999 203.347 433.83 203.726C433.746 203.937 433.662 204.147 433.578 204.358C433.535 204.442 433.535 204.484 433.493 204.569C433.493 204.653 433.451 204.737 433.451 204.779C433.367 205.032 433.325 205.201 433.283 205.411C433.24 205.58 433.24 205.748 433.24 205.959C433.156 206.043 433.156 206.17 433.156 206.296C433.156 206.549 433.072 206.844 433.072 207.139H433.156C433.156 207.139 433.072 207.181 433.072 207.223C433.072 207.265 433.156 207.307 433.156 207.307H433.072V208.361C433.072 208.782 433.072 209.161 433.156 209.541V209.625C433.156 210.131 433.24 210.594 433.367 211.057C433.493 211.647 433.704 212.195 433.915 212.743C434.21 213.544 434.505 214.26 434.926 214.934C436.653 217.926 439.392 220.159 441.667 222.097L443.774 223.825L445.544 225.257C445.965 225.637 446.471 226.016 446.934 226.395C447.061 226.521 447.229 226.69 447.44 226.816C447.566 226.901 447.651 226.985 447.735 227.069C453.718 232.041 457.721 236.802 457.721 245.525C457.721 246.704 457.637 247.884 457.468 249.022C457.089 252.14 456.036 255.005 454.435 257.533C453.971 258.418 453.297 259.303 452.665 260.103C452.201 260.651 451.78 261.157 451.232 261.578C450.895 262 450.516 262.337 450.095 262.674C449.842 262.926 449.505 263.222 449.126 263.432C448.873 263.727 448.536 263.938 448.157 264.148C447.904 264.401 447.566 264.612 447.187 264.78C446.934 264.991 446.597 265.202 446.218 265.37C445.923 265.581 445.628 265.707 445.333 265.834C444.996 266.045 444.743 266.171 444.406 266.34C444.027 266.466 443.69 266.634 443.395 266.761C441.71 267.435 439.982 267.983 438.086 268.32C438.086 268.32 437.96 268.404 437.875 268.404H437.707C437.707 268.404 437.454 268.488 437.285 268.488C437.033 268.531 436.822 268.573 436.527 268.615C436.232 268.657 435.979 268.699 435.642 268.699C435.347 268.783 435.01 268.826 434.673 268.826C434.294 268.826 433.957 268.91 433.535 268.91C433.156 268.91 432.735 268.994 432.271 268.91C432.019 268.952 431.723 268.952 431.386 268.952H430.965C429.069 268.91 427.215 268.741 425.445 268.446C423.591 268.151 421.864 267.73 420.263 267.14C418.703 266.677 417.355 266.087 416.049 265.37C414.616 264.696 413.31 263.854 412.215 262.927C412.088 262.8 411.92 262.674 411.793 262.547L415.586 249.822H415.712C416.007 250.665 416.302 251.508 416.639 252.308C419.546 259.303 424.561 264.443 430.249 266.382C430.881 266.634 431.386 266.803 432.019 266.887C432.482 267.056 432.987 267.14 433.451 267.182C433.914 267.266 434.294 267.309 434.757 267.309C435.052 267.309 435.347 267.309 435.6 267.309H435.937C436.148 267.309 436.316 267.309 436.485 267.309H436.569C436.569 267.309 436.822 267.309 436.948 267.224V267.309C437.201 267.309 437.454 267.224 437.749 267.182C438.086 267.14 438.339 267.056 438.592 266.972C438.802 266.972 439.055 266.887 439.224 266.845C439.224 266.845 439.476 266.761 439.561 266.677H439.645C441.373 266.087 442.763 265.118 443.943 263.854C444.491 263.306 444.87 262.674 445.291 262C446.134 260.398 446.682 258.544 446.682 256.522V256.438C446.682 256.185 446.682 255.89 446.639 255.637C446.639 255.216 446.64 254.836 446.513 254.415C446.513 254.289 446.513 254.162 446.471 254.036C445.713 249.612 442.721 246.283 438.212 242.28C438.086 242.196 436.232 240.637 435.347 239.878L431.471 236.718C430.122 235.707 428.858 234.611 427.636 233.389C427.552 233.347 427.51 233.263 427.468 233.221C425.066 230.777 423.17 227.701 422.454 223.361C422.454 223.361 422.44 223.333 422.411 223.277C422.159 222.308 422.032 221.212 422.032 220.075C422.032 219.864 422.032 219.653 422.075 219.485V219.063C422.075 218.01 422.117 216.957 422.285 215.987C422.285 215.819 422.285 215.692 422.369 215.566C422.538 213.796 422.959 212.111 423.591 210.51C423.676 210.215 423.76 209.92 423.886 209.625C424.055 209.288 424.223 208.951 424.392 208.656C424.518 208.319 424.645 208.024 424.813 207.729C424.982 207.392 425.235 207.097 425.403 206.802C425.572 206.507 425.782 206.212 425.909 205.917C425.951 205.917 425.951 205.875 425.951 205.875C426.246 205.496 426.499 205.159 426.752 204.821C427.004 204.484 427.257 204.147 427.552 203.852H427.594C427.889 203.431 428.268 203.01 428.732 202.63C429.195 202.125 429.743 201.661 430.249 201.282C431.134 200.566 432.018 199.934 432.988 199.386C435.347 197.995 438.002 196.984 440.867 196.437C441.246 196.394 441.583 196.352 441.962 196.31C443.269 196.099 444.575 196.015 445.881 196.015C451.148 196.015 457.047 197.49 463.831 200.524V200.566Z" fill="#FFBD14"/>
<path d="M515.319 200.566L512.748 212.448H512.622C512.454 212.111 512.285 211.816 512.159 211.479C511.948 211.057 511.737 210.594 511.442 210.173C511.232 209.751 511.021 209.372 510.81 208.951C510.6 208.614 510.347 208.234 510.136 207.897C509.42 206.844 508.704 205.791 507.861 204.821C507.06 203.894 506.217 203.052 505.375 202.251H505.333C504.195 201.198 502.889 200.313 501.625 199.597C499.434 198.375 497.032 197.658 494.504 197.658C492.65 197.658 490.88 198.122 489.448 198.965C488.773 199.302 488.141 199.765 487.678 200.271C487.256 200.608 486.961 201.029 486.624 201.451C486.371 201.788 486.077 202.167 485.908 202.588C485.655 202.968 485.065 204.442 485.065 204.484C484.812 205.243 484.602 206.844 484.602 207.139V208.361C484.602 208.782 484.77 210.594 484.897 211.057C485.234 212.616 486.751 216.03 490.417 219.738C491.344 220.622 492.313 221.381 493.197 222.097L499.265 227.069C505.206 232.041 509.209 236.802 509.209 245.525C509.209 251.508 507.524 255.005 505.923 257.533C505.459 258.418 503.268 261.157 502.762 261.578C502.383 262 501.962 262.337 501.625 262.674C501.33 262.926 500.951 263.222 500.656 263.432C500.361 263.727 500.024 263.938 499.644 264.148C499.349 264.401 499.055 264.612 498.675 264.78C498.38 264.991 498.085 265.202 497.706 265.37C497.411 265.581 497.158 265.707 496.779 265.834C496.484 266.045 496.189 266.171 495.894 266.34C495.515 266.466 495.22 266.634 494.883 266.761C493.198 267.435 491.428 267.983 489.574 268.32L489.195 268.404C489.195 268.404 488.268 268.573 488.015 268.615C487.762 268.657 486.498 268.826 486.119 268.826C485.739 268.826 485.445 268.91 485.023 268.91C484.602 268.91 484.223 268.994 483.801 268.91C483.506 268.952 483.212 268.952 482.874 268.952H482.453C480.557 268.91 478.703 268.741 476.933 268.446C475.121 268.151 473.352 267.73 471.751 267.14C470.192 266.677 468.801 266.087 467.537 265.37C466.104 264.696 464.84 263.854 463.703 262.927C463.534 262.8 463.45 262.674 463.281 262.547L467.074 249.822H467.158C467.495 250.665 467.748 251.508 468.127 252.308C471.076 259.303 476.091 264.443 481.737 266.382C482.369 266.634 482.874 266.803 483.506 266.887C483.97 267.056 484.476 267.14 484.939 267.182C485.403 267.266 485.824 267.309 486.203 267.309C486.54 267.309 486.793 267.309 487.088 267.309H487.425C487.636 267.309 488.352 267.309 488.436 267.309C488.731 267.309 488.984 267.224 489.237 267.182C489.574 267.14 489.827 267.056 490.122 266.972C490.29 266.972 490.459 266.887 490.712 266.845C490.838 266.803 490.922 266.761 491.091 266.719H491.175C492.86 266.087 494.335 265.118 495.431 263.854C495.979 263.306 496.358 262.716 496.737 262.084C497.538 260.609 498.085 258.924 498.17 257.07C498.17 256.016 498.127 255.005 498.001 254.036C498.001 253.952 498.001 253.91 497.959 253.825C497.158 249.485 494.167 246.241 489.7 242.28C489.574 242.196 489.49 242.112 489.321 241.985C488.563 241.311 480.346 234.611 479.124 233.389C479.04 233.347 478.998 233.263 478.956 233.221C476.428 230.608 474.405 227.364 473.815 222.603C473.773 222.518 473.773 222.476 473.773 222.434C473.689 221.886 473.604 221.381 473.562 220.791C473.562 220.496 473.52 220.201 473.52 219.864V219.063C473.52 218.01 473.562 216.957 473.773 215.987C473.773 215.819 474.447 212.111 475.079 210.51C475.079 210.51 476.175 208.024 476.343 207.729C476.47 207.392 477.987 205.159 478.239 204.821C478.534 204.484 478.745 204.147 479.04 203.852H479.082C479.419 203.431 479.756 203.01 480.22 202.63C480.641 202.167 481.189 201.703 481.695 201.282C482.579 200.566 483.506 199.934 484.476 199.386C486.793 197.995 489.49 196.984 492.355 196.437C492.734 196.394 493.113 196.352 493.451 196.31C494.757 196.099 496.063 196.015 497.411 196.015C502.678 196.015 508.535 197.49 515.319 200.524V200.566Z" fill="#FFBD14"/>
<path d="M354.108 108.752C346.523 108.752 338.138 113.64 338.138 125.522C338.138 135.129 344.037 141.955 352.633 142.25C365.99 142.25 368.307 133.023 368.307 125.522C368.307 117.053 363.335 108.752 354.108 108.752ZM352.759 140.144C345.386 139.891 340.245 133.95 340.245 125.522C340.245 125.143 340.245 124.722 340.245 124.343C347.829 125.059 352.717 131.548 352.717 140.017V140.144H352.759Z" fill="#140A05"/>
<path d="M310.709 200.565C308.687 198.206 306.201 197.7 304.262 197.7C302.956 197.7 301.734 198.037 300.512 198.711H300.47C298.405 199.512 296.004 202.293 296.004 202.293C293.644 204.442 289.894 212.869 289.683 213.248C286.86 220.116 284.711 228.333 283.363 236.001C283.194 236.886 281.593 246.325 281.636 252.308C281.678 263.937 286.313 266.803 289.936 267.308C291.832 267.477 293.181 267.14 294.234 266.887C304.599 264.401 311.046 240.426 313.28 223.656C313.406 222.729 316.229 206.085 310.709 200.565ZM290.779 265.244C284.964 264.907 283.742 258.039 283.742 252.266C283.742 241.816 286.903 225.215 291.875 213.459C296.383 214.639 298.574 219.695 298.574 227.322C298.574 236.928 295.667 253.193 290.779 265.244Z" fill="#140A05"/>
<path d="M557.369 182.282V182.409C557.369 183.209 557.327 183.968 557.243 184.684C557.2 185.316 557.116 185.948 556.99 186.538C556.948 186.917 556.863 187.339 556.779 187.718C556.526 188.855 556.231 189.782 555.979 190.457C555.894 190.667 555.81 190.878 555.726 191.046C555.304 192.184 554.757 193.28 554.167 194.291C553.872 194.797 553.535 195.26 553.198 195.766C553.113 195.934 552.987 196.103 552.818 196.271C552.566 196.65 552.271 197.03 551.933 197.367C551.006 198.504 549.911 199.516 548.731 200.4C548.184 200.864 547.594 201.285 547.004 201.665C546.919 201.707 546.877 201.749 546.793 201.791C536.133 208.743 526.273 213.083 521.301 213.8L520.795 211.524H520.838C520.838 211.524 532.93 204.235 532.972 204.235H533.015C533.689 204.066 534.279 203.856 534.995 203.603C535.374 203.097 535.711 202.55 535.922 201.96C536.091 201.665 536.217 201.37 536.301 201.075C536.512 200.527 536.68 199.937 536.68 199.347C537.102 195.091 533.731 193.49 529.475 192.142C524.124 190.541 521.849 186.538 521.849 182.788C521.849 179.838 523.281 177.1 525.725 175.498C525.725 175.498 537.818 168.209 537.86 168.209C538.113 168.04 538.408 167.872 538.703 167.745C539.04 167.577 539.419 167.408 539.799 167.282C539.967 167.198 540.178 167.113 540.388 167.071C540.852 166.903 541.358 166.818 541.863 166.776C542.285 166.692 542.706 166.65 543.169 166.65H543.338C543.759 166.65 544.138 166.65 544.56 166.734C545.023 166.776 545.445 166.818 545.866 166.903C546.287 166.987 546.751 167.113 547.172 167.24C547.594 167.366 548.015 167.535 548.436 167.703C550.122 168.42 551.681 169.473 553.071 170.906C553.493 171.327 553.872 171.79 554.209 172.212C554.546 172.675 554.841 173.097 555.136 173.56C555.347 173.855 555.515 174.192 555.641 174.571C555.852 174.909 556.021 175.288 556.147 175.667C556.358 176.13 556.526 176.636 556.653 177.142C556.821 177.689 556.948 178.195 557.032 178.743C557.243 179.838 557.369 181.018 557.369 182.282Z" fill="#140A05" stroke="#140A05" stroke-width="2.1363" stroke-miterlimit="10"/>
<path d="M557.033 178.698C556.949 178.15 556.823 177.644 556.654 177.097C556.528 176.591 556.359 176.086 556.149 175.622C556.022 175.243 555.854 174.864 555.643 174.527C555.517 174.147 555.348 173.81 555.137 173.515C554.842 173.052 554.548 172.63 554.21 172.167C553.873 171.746 553.494 171.282 553.073 170.861C552.82 170.608 552.525 170.397 552.272 170.187C551.893 169.849 551.514 169.47 551.092 169.175C550.25 168.585 549.365 168.038 548.438 167.658C548.017 167.49 547.595 167.321 547.174 167.195C546.753 167.069 546.289 166.942 545.867 166.858C545.446 166.774 545.025 166.731 544.561 166.689C544.266 166.689 543.929 166.605 543.634 166.605H543.171C542.707 166.605 542.286 166.605 541.865 166.731C541.359 166.774 540.853 166.858 540.39 167.026C540.179 167.068 539.969 167.153 539.8 167.237C539.421 167.363 539.042 167.532 538.705 167.701C535.797 169.26 534.112 172.209 534.112 175.411C534.112 179.161 536.387 183.164 541.696 184.765C543.466 185.313 545.025 185.903 546.289 186.746C548.101 187.883 549.154 189.485 548.944 192.013L535.923 201.915L533.016 204.148L533.564 206.423C538.452 205.749 543.002 204.148 546.795 201.746C546.879 201.746 546.921 201.662 547.005 201.62C547.595 201.24 548.185 200.819 548.733 200.356C549.913 199.471 551.008 198.46 551.935 197.322C552.272 196.985 552.567 196.606 552.82 196.226C552.988 196.058 553.115 195.889 553.199 195.721C553.536 195.215 553.873 194.752 554.168 194.246C554.421 193.782 554.716 193.319 554.969 192.813C554.969 192.813 555.011 192.729 555.011 192.687C555.264 192.139 555.517 191.591 555.727 191.002C555.854 190.791 555.896 190.622 555.98 190.412C556.233 189.737 556.528 188.81 556.781 187.673C556.865 187.294 556.949 186.872 556.991 186.493C557.118 185.903 557.202 185.271 557.244 184.639C557.328 183.923 557.371 183.164 557.371 182.364V182.237C557.371 180.973 557.244 179.793 557.033 178.698Z" fill="#FFBD14"/>
<path d="M543.941 166.146L544.269 166.159C551.133 166.501 558.165 172.177 558.165 182.278C558.165 189.493 555.465 195.209 551.065 199.349C546.676 203.481 540.62 206.022 533.928 206.959L533.479 207.022L533.372 206.582L532.824 204.306L532.748 203.989L533.008 203.792L548.751 191.795C548.809 190.714 548.615 189.849 548.229 189.136C547.817 188.373 547.171 187.747 546.317 187.21L546.306 187.203C545.105 186.402 543.604 185.829 541.846 185.285C536.324 183.619 533.906 179.42 533.906 175.453C533.906 170.504 537.707 166.146 543.634 166.146H543.941Z" fill="#ED91FA" stroke="#140A05"/>
<path d="M158.513 71.8407C158.513 75.043 156.87 83.0909 146.336 83.0909H146.167C138.456 83.0909 135.044 79.0459 134.117 74.0317C132.979 61.3068 144.103 60.4219 146.21 60.4219C153.499 60.4219 158.513 65.099 158.513 71.8407Z" fill="#ED91FA"/>
<path d="M267.436 71.8407C267.436 74.9588 265.793 83.0909 255.217 83.0909H255.048C247.337 83.0909 242.787 76.9391 242.787 71.8407C242.787 71.8407 243.208 60.4219 255.048 60.4219C262.338 60.4219 267.436 65.099 267.436 71.8407Z" fill="#ED91FA"/>
<path d="M410.401 248.516C410.401 248.516 405.387 256.901 405.261 257.027C404.334 258.417 403.365 259.639 402.438 260.777C401.89 261.325 401.469 261.873 400.963 262.378C397.761 265.833 396.497 266.17 396.286 266.339C396.075 266.508 395.064 267.097 394.769 267.182C390.513 269.71 386.974 268.994 385.583 268.699C384.362 268.572 382.592 267.434 382.171 266.676C380.106 264.106 379.727 259.302 381.201 252.771L385.836 231.535L383.814 230.903C383.266 232.336 375.387 252.898 366.496 260.524C366.328 260.651 359.249 267.308 351.875 268.783C349.389 269.288 344.248 269.036 342.057 266.128C339.318 262.547 338.307 255.384 341.341 245.355C350.779 214.091 350.611 206.675 347.156 206.675C344.459 206.675 340.835 212.363 339.487 214.259L338.981 213.922C339.908 210.088 347.914 196.057 359.333 196.057C361.945 196.057 363.631 196.942 365.021 198.332C370.288 203.599 362.367 222.349 357.016 252.729C357.016 252.729 356.426 257.027 359.501 258.712C362.914 260.187 367.381 255.089 367.76 254.625C371.637 251.002 378.589 238.066 378.631 238.024C386.384 222.771 390.05 208.318 392.704 199.175L409.685 197.447C409.685 197.447 407.283 207.939 404.755 219.948C397.887 252.224 395.865 256.395 399.025 257.912C401.342 259.176 404.165 255.847 404.545 255.384C404.924 255.005 409.811 248.389 409.98 248.221L410.401 248.516Z" fill="#ED91FA"/>
<path d="M330.049 217.967C327.858 204.442 318.167 196.057 304.093 196.057C302.408 196.057 300.722 196.183 299.163 196.436H299.121C295.034 197.068 291.115 198.711 287.913 200.397C276.537 206.506 266.255 221.549 266.255 241.015C266.255 246.704 267.435 251.718 269.626 255.889C276.41 268.151 289.599 268.867 289.767 268.867C290.61 269.036 292.675 268.993 292.717 268.993C299.248 268.993 305.399 266.929 310.793 263.305C316.608 259.766 324.403 248.221 324.445 248.179C324.529 248.01 324.613 247.884 324.613 247.715C327.31 242.785 329.122 237.223 329.964 231.366C330.049 231.282 330.892 224.372 330.049 217.967ZM313.279 223.613C311.046 240.383 304.599 264.359 294.234 266.845C293.18 267.097 291.832 267.435 289.936 267.266C286.312 266.76 281.677 263.895 281.635 252.266C281.593 246.282 283.194 236.844 283.362 235.959C284.711 228.29 286.86 220.074 289.683 213.206C289.893 212.827 293.644 204.4 296.003 202.251C296.003 202.251 298.405 199.47 300.47 198.669H300.512C301.734 197.995 302.956 197.658 304.262 197.658C306.2 197.658 308.686 198.163 310.708 200.523C316.228 206.043 313.405 222.686 313.279 223.613Z" fill="#ED91FA"/>
<path d="M272.659 169.765C268.656 170.355 266.634 173.22 265.875 174.316C262.884 178.656 249.695 245.062 249.695 245.062C248.094 252.604 245.903 258.714 243.122 263.812C238.318 271.986 233.768 275.568 229.512 278.854C224.33 282.605 218.093 285.722 210.677 288.883L210.467 287.998C222.391 278.222 225.762 272.45 229.175 256.312C229.175 256.312 244.344 184.597 244.597 183.206C245.313 179.372 245.145 176.718 245.102 175.959C244.976 173.052 242.743 171.071 242.701 171.029C241.774 170.144 240.299 169.807 240.215 169.765H272.659Z" fill="#ED91FA"/>
<path d="M81.0691 67.9644H45.001V159.104H81.0691C95.3531 159.104 127.376 150.887 127.376 113.597C127.376 80.0152 100.662 67.9644 81.0691 67.9644ZM80.7744 139.721H67.1222V87.3468H80.7744C95.1848 87.3468 104.16 97.4173 104.16 113.597C104.16 141.196 80.9008 139.721 80.7744 139.721Z" fill="#ED91FA"/>
<path d="M156.661 91.8984H135.888V159.105H156.661V91.8984Z" fill="#ED91FA"/>
<path d="M214.512 91.8977V99.9878L212.279 100.536C205.916 94.131 200.86 89.8753 189.989 90.6337C185.902 91.0551 182.236 92.2769 178.992 94.1309C172.713 97.3332 168.078 105.465 167.952 105.803C165.213 111.027 163.696 117.432 163.696 124.679C163.696 144.483 175.326 158.261 191.969 158.261C200.776 158.261 209.034 155.607 212.279 147.138L214.807 147.854C214.807 166.857 211.141 172.714 198.29 172.714C185.438 172.714 183.626 164.666 183.458 164.329L164.708 170.776C164.708 170.776 166.224 178.571 177.938 185.523C184.174 189.231 189.863 190.2 198.5 190.2C206.338 190.2 213.121 188.599 218.599 185.565C218.936 185.439 234.99 176.001 234.99 155.354V91.8977H214.512ZM198.879 141.449C190.242 141.154 184.343 134.581 184.343 125.227C184.343 112.334 193.149 108.836 199.469 108.71C209.624 108.541 214.512 116.631 214.512 125.227C214.512 132.601 209.708 141.449 198.879 141.449Z" fill="#ED91FA"/>
<path d="M265.496 91.8984H244.723V159.105H265.496V91.8984Z" fill="#ED91FA"/>
<path d="M316.735 91.8987V110.059H302.746V159.105H282.015V110.059H272.366V91.8987H282.015V73.4434H302.746V91.8987H316.735Z" fill="#ED91FA"/>
<path d="M368.309 91.8975V99.819L366.244 100.788C360.387 93.0774 353.519 90.4229 347.409 90.4229C346.398 90.4229 343.659 90.6335 343.575 90.6757C335.611 91.9397 326.973 97.2488 321.875 105.887C318.757 111.196 317.324 117.937 317.324 125.353C317.324 145.873 329.712 160.747 346.735 160.747C354.825 160.747 361.188 157.376 365.696 150.803L366.16 150.129L368.309 151.267V159.104H388.786V91.8975H368.309ZM352.634 142.25C344.038 141.955 338.139 135.129 338.139 125.522C338.139 113.64 346.524 108.752 354.109 108.752C363.337 108.752 368.309 117.053 368.309 125.522C368.309 133.022 365.991 142.25 352.634 142.25Z" fill="#ED91FA"/>
<path d="M419.672 61.5186H398.772V159.105H419.672V61.5186Z" fill="#ED91FA"/>
<path d="M463.828 200.566L463.702 201.114L461.216 212.448H461.132C460.963 212.111 460.795 211.816 460.626 211.479C460.458 211.057 460.247 210.594 459.994 210.173C459.741 209.751 459.573 209.372 459.32 208.951C459.109 208.614 458.856 208.234 458.604 207.897C457.972 206.844 457.213 205.791 456.413 204.821C455.57 203.894 454.769 203.052 453.884 202.251H453.842C452.705 201.198 451.398 200.313 450.092 199.597C447.901 198.375 445.542 197.658 443.013 197.658C441.159 197.658 439.39 198.122 437.915 198.965C437.283 199.302 436.651 199.765 436.145 200.271C435.808 200.608 435.387 200.987 435.092 201.451C434.839 201.788 434.544 202.167 434.333 202.588C434.123 202.968 433.996 203.347 433.828 203.726C433.744 203.937 433.659 204.147 433.575 204.358C433.533 204.442 433.533 204.484 433.491 204.569C433.491 204.653 433.449 204.737 433.449 204.779C433.364 205.032 433.322 205.201 433.28 205.411C433.238 205.58 433.238 205.748 433.238 205.959C433.154 206.043 433.154 206.17 433.154 206.296C433.154 206.549 433.069 206.844 433.069 207.139H433.154C433.154 207.139 433.069 207.181 433.069 207.223C433.069 207.265 433.154 207.307 433.154 207.307H433.069V208.361C433.069 208.782 433.069 209.161 433.154 209.541V209.625C433.154 210.131 433.238 210.594 433.364 211.057C433.491 211.647 433.702 212.195 433.912 212.743C434.207 213.544 434.502 214.26 434.923 214.934C436.651 217.926 439.39 220.159 441.665 222.097L443.772 223.825L445.541 225.257C445.963 225.637 446.469 226.016 446.932 226.395C447.058 226.521 447.227 226.69 447.438 226.816C447.564 226.901 447.648 226.985 447.733 227.069C453.716 232.041 457.719 236.802 457.719 245.525C457.719 246.704 457.634 247.884 457.466 249.022C457.087 252.14 456.033 255.005 454.432 257.533C453.969 258.418 453.294 259.303 452.662 260.103C452.199 260.651 451.778 261.157 451.23 261.578C450.893 262 450.514 262.337 450.092 262.674C449.839 262.926 449.502 263.222 449.123 263.432C448.87 263.727 448.533 263.938 448.154 264.148C447.901 264.401 447.564 264.612 447.185 264.78C446.932 264.991 446.595 265.202 446.216 265.37C445.921 265.581 445.626 265.707 445.331 265.834C444.994 266.045 444.741 266.171 444.404 266.34C444.025 266.466 443.688 266.634 443.393 266.761C441.707 267.435 439.98 267.983 438.084 268.32C438.084 268.32 437.957 268.404 437.873 268.404H437.704C437.704 268.404 437.452 268.488 437.283 268.488C437.03 268.531 436.82 268.573 436.525 268.615C436.23 268.657 435.977 268.699 435.64 268.699C435.345 268.783 435.008 268.826 434.671 268.826C434.291 268.826 433.954 268.91 433.533 268.91C433.154 268.91 432.732 268.994 432.269 268.91C432.016 268.952 431.721 268.952 431.384 268.952H430.963C429.067 268.91 427.213 268.741 425.443 268.446C423.589 268.151 421.861 267.73 420.26 267.14C418.701 266.677 417.353 266.087 416.047 265.37C414.614 264.696 413.308 263.854 412.212 262.927C412.086 262.8 411.917 262.674 411.791 262.547L415.583 249.822H415.71C416.005 250.665 416.299 251.508 416.636 252.308C419.544 259.303 424.558 264.443 430.246 266.382C430.878 266.634 431.384 266.803 432.016 266.887C432.48 267.056 432.985 267.14 433.449 267.182C433.912 267.266 434.291 267.309 434.755 267.309C435.05 267.309 435.345 267.309 435.598 267.309H435.935C436.145 267.309 436.314 267.309 436.482 267.309H436.567C436.567 267.309 436.819 267.309 436.946 267.224V267.309C437.199 267.309 437.452 267.224 437.746 267.182C438.084 267.14 438.336 267.056 438.589 266.972C438.8 266.972 439.053 266.887 439.221 266.845C439.221 266.845 439.474 266.761 439.558 266.677H439.643C441.37 266.087 442.761 265.118 443.941 263.854C444.488 263.306 444.867 262.674 445.289 262C446.131 260.398 446.679 258.544 446.679 256.522V256.438C446.679 256.185 446.679 255.89 446.637 255.637C446.637 255.216 446.637 254.836 446.511 254.415C446.511 254.289 446.511 254.162 446.469 254.036C445.71 249.612 442.718 246.283 438.21 242.28C438.083 242.196 436.23 240.637 435.345 239.878L431.468 236.718C430.12 235.707 428.856 234.611 427.634 233.389C427.55 233.347 427.507 233.263 427.465 233.221C425.064 230.777 423.168 227.701 422.451 223.361C422.451 223.361 422.437 223.333 422.409 223.277C422.156 222.308 422.03 221.212 422.03 220.075C422.03 219.864 422.03 219.653 422.072 219.485V219.063C422.072 218.01 422.114 216.957 422.283 215.987C422.283 215.819 422.283 215.692 422.367 215.566C422.535 213.796 422.957 212.111 423.589 210.51C423.673 210.215 423.758 209.92 423.884 209.625C424.052 209.288 424.221 208.951 424.39 208.656C424.516 208.319 424.642 208.024 424.811 207.729C424.979 207.392 425.232 207.097 425.401 206.802C425.569 206.507 425.78 206.212 425.906 205.917C425.948 205.917 425.949 205.875 425.949 205.875C426.243 205.496 426.496 205.159 426.749 204.821C427.002 204.484 427.255 204.147 427.55 203.852H427.592C427.887 203.431 428.266 203.01 428.729 202.63C429.193 202.125 429.741 201.661 430.246 201.282C431.131 200.566 432.016 199.934 432.985 199.386C435.345 197.995 437.999 196.984 440.864 196.437C441.244 196.394 441.581 196.352 441.96 196.31C443.266 196.099 444.572 196.015 445.879 196.015C451.146 196.015 457.045 197.49 463.828 200.524V200.566Z" fill="#ED91FA"/>
<path d="M515.319 200.566L512.748 212.448H512.622C512.454 212.111 512.285 211.816 512.159 211.479C511.948 211.057 511.737 210.594 511.442 210.173C511.232 209.751 511.021 209.372 510.81 208.951C510.6 208.614 510.347 208.234 510.136 207.897C509.42 206.844 508.704 205.791 507.861 204.821C507.06 203.894 506.217 203.052 505.375 202.251H505.333C504.195 201.198 502.889 200.313 501.625 199.597C499.434 198.375 497.032 197.658 494.504 197.658C492.65 197.658 490.88 198.122 489.448 198.965C488.773 199.302 488.141 199.765 487.678 200.271C487.256 200.608 486.961 201.029 486.624 201.451C486.371 201.788 486.077 202.167 485.908 202.588C485.655 202.968 485.065 204.442 485.065 204.484C484.812 205.243 484.602 206.844 484.602 207.139V208.361C484.602 208.782 484.77 210.594 484.897 211.057C485.234 212.616 486.751 216.03 490.417 219.738C491.344 220.622 492.313 221.381 493.197 222.097L499.265 227.069C505.206 232.041 509.209 236.802 509.209 245.525C509.209 251.508 507.524 255.005 505.923 257.533C505.459 258.418 503.268 261.157 502.762 261.578C502.383 262 501.962 262.337 501.625 262.674C501.33 262.926 500.951 263.222 500.656 263.432C500.361 263.727 500.024 263.938 499.644 264.148C499.349 264.401 499.055 264.612 498.675 264.78C498.38 264.991 498.085 265.202 497.706 265.37C497.411 265.581 497.158 265.707 496.779 265.834C496.484 266.045 496.189 266.171 495.894 266.34C495.515 266.466 495.22 266.634 494.883 266.761C493.198 267.435 491.428 267.983 489.574 268.32L489.195 268.404C489.195 268.404 488.268 268.573 488.015 268.615C487.762 268.657 486.498 268.826 486.119 268.826C485.739 268.826 485.445 268.91 485.023 268.91C484.602 268.91 484.223 268.994 483.801 268.91C483.506 268.952 483.212 268.952 482.874 268.952H482.453C480.557 268.91 478.703 268.741 476.933 268.446C475.121 268.151 473.352 267.73 471.751 267.14C470.192 266.677 468.801 266.087 467.537 265.37C466.104 264.696 464.84 263.854 463.703 262.927C463.534 262.8 463.45 262.674 463.281 262.547L467.074 249.822H467.158C467.495 250.665 467.748 251.508 468.127 252.308C471.076 259.303 476.091 264.443 481.737 266.382C482.369 266.634 482.874 266.803 483.506 266.887C483.97 267.056 484.476 267.14 484.939 267.182C485.403 267.266 485.824 267.309 486.203 267.309C486.54 267.309 486.793 267.309 487.088 267.309H487.425C487.636 267.309 488.352 267.309 488.436 267.309C488.731 267.309 488.984 267.224 489.237 267.182C489.574 267.14 489.827 267.056 490.122 266.972C490.29 266.972 490.459 266.887 490.712 266.845C490.838 266.803 490.922 266.761 491.091 266.719H491.175C492.86 266.087 494.335 265.118 495.431 263.854C495.979 263.306 496.358 262.716 496.737 262.084C497.538 260.609 498.085 258.924 498.17 257.07C498.17 256.016 498.127 255.005 498.001 254.036C498.001 253.952 498.001 253.91 497.959 253.825C497.158 249.485 494.167 246.241 489.7 242.28C489.574 242.196 489.49 242.112 489.321 241.985C488.563 241.311 480.346 234.611 479.124 233.389C479.04 233.347 478.998 233.263 478.956 233.221C476.428 230.608 474.405 227.364 473.815 222.603C473.773 222.518 473.773 222.476 473.773 222.434C473.689 221.886 473.604 221.381 473.562 220.791C473.562 220.496 473.52 220.201 473.52 219.864V219.063C473.52 218.01 473.562 216.957 473.773 215.987C473.773 215.819 474.447 212.111 475.079 210.51C475.079 210.51 476.175 208.024 476.343 207.729C476.47 207.392 477.987 205.159 478.239 204.821C478.534 204.484 478.745 204.147 479.04 203.852H479.082C479.419 203.431 479.756 203.01 480.22 202.63C480.641 202.167 481.189 201.703 481.695 201.282C482.579 200.566 483.506 199.934 484.476 199.386C486.793 197.995 489.49 196.984 492.355 196.437C492.734 196.394 493.113 196.352 493.451 196.31C494.757 196.099 496.063 196.015 497.411 196.015C502.678 196.015 508.535 197.49 515.319 200.524V200.566Z" fill="#ED91FA"/>
</svg>
